a, b, c, d, e, f
0, 0, Header, 1, 3, 192
1, 0, Start_track
1, 0, Title_t, "Universal roll #90615 Dill Pickles, c/b Johnson "
1, 0, Title_t, "Scanned by Terry Smythe, Winnipeg, Canada "
1, 0, Text_t, "\012"
1, 0, Time_signature, 4, 2, 24, 8
1, 0, Key_signature, 0, "major"
1, 0, Tempo, 521739
1, 0, Marker_t, "Standard MIDI:LPI 295:Tempo  75: 04-11-2003"
1, 0, End_track
2, 0, Start_track
2, 0, Title_t, ""
2, 768, Note_on_c, 0, 87, 46
2, 770, Note_on_c, 0, 75, 45
2, 770, Note_on_c, 0, 67, 45
2, 771, Note_on_c, 0, 63, 43
2, 813, Note_on_c, 0, 87, 0
2, 814, Note_on_c, 0, 89, 47
2, 816, Note_on_c, 0, 75, 0
2, 816, Note_on_c, 0, 77, 47
2, 858, Note_on_c, 0, 89, 0
2, 858, Note_on_c, 0, 91, 46
2, 860, Note_on_c, 0, 77, 0
2, 861, Note_on_c, 0, 79, 44
2, 902, Note_on_c, 0, 91, 0
2, 904, Note_on_c, 0, 89, 47
2, 905, Note_on_c, 0, 79, 0
2, 905, Note_on_c, 0, 77, 43
2, 938, Note_on_c, 0, 89, 0
2, 941, Note_on_c, 0, 77, 0
2, 950, Note_on_c, 0, 87, 48
2, 952, Note_on_c, 0, 75, 43
2, 1049, Note_on_c, 0, 87, 0
2, 1051, Note_on_c, 0, 75, 0
2, 1052, Note_on_c, 0, 67, 0
2, 1053, Note_on_c, 0, 63, 0
2, 1140, Note_on_c, 0, 75, 44
2, 1142, Note_on_c, 0, 51, 55
2, 1142, Note_on_c, 0, 55, 57
2, 1142, Note_on_c, 0, 61, 58
2, 1142, Note_on_c, 0, 63, 55
2, 1185, Note_on_c, 0, 77, 43
2, 1187, Note_on_c, 0, 65, 47
2, 1193, Note_on_c, 0, 75, 0
2, 1195, Note_on_c, 0, 63, 0
2, 1231, Note_on_c, 0, 65, 0
2, 1231, Note_on_c, 0, 79, 48
2, 1232, Note_on_c, 0, 67, 42
2, 1242, Note_on_c, 0, 77, 0
2, 1274, Note_on_c, 0, 79, 0
2, 1275, Note_on_c, 0, 77, 42
2, 1276, Note_on_c, 0, 67, 0
2, 1277, Note_on_c, 0, 65, 41
2, 1319, Note_on_c, 0, 77, 0
2, 1321, Note_on_c, 0, 65, 0
2, 1321, Note_on_c, 0, 75, 41
2, 1322, Note_on_c, 0, 63, 57
2, 1410, Note_on_c, 0, 75, 0
2, 1411, Note_on_c, 0, 61, 0
2, 1411, Note_on_c, 0, 63, 0
2, 1412, Note_on_c, 0, 55, 0
2, 1412, Note_on_c, 0, 51, 0
2, 1505, Note_on_c, 0, 75, 43
2, 1507, Note_on_c, 0, 63, 56
2, 1508, Note_on_c, 0, 51, 55
2, 1549, Note_on_c, 0, 75, 0
2, 1551, Note_on_c, 0, 63, 0
2, 1552, Note_on_c, 0, 51, 0
2, 1596, Note_on_c, 0, 75, 43
2, 1598, Note_on_c, 0, 51, 54
2, 1598, Note_on_c, 0, 63, 54
2, 1639, Note_on_c, 0, 77, 46
2, 1641, Note_on_c, 0, 65, 44
2, 1643, Note_on_c, 0, 53, 56
2, 1648, Note_on_c, 0, 75, 0
2, 1649, Note_on_c, 0, 63, 0
2, 1651, Note_on_c, 0, 51, 0
2, 1668, Note_on_c, 0, 53, 0
2, 1674, Note_on_c, 0, 77, 0
2, 1675, Note_on_c, 0, 65, 0
2, 1685, Note_on_c, 0, 67, 41
2, 1685, Note_on_c, 0, 79, 44
2, 1688, Note_on_c, 0, 55, 60
2, 1712, Note_on_c, 0, 67, 0
2, 1719, Note_on_c, 0, 79, 0
2, 1723, Note_on_c, 0, 55, 0
2, 1725, Note_on_c, 0, 56, 55
2, 1730, Note_on_c, 0, 80, 48
2, 1733, Note_on_c, 0, 68, 46
2, 1760, Note_on_c, 0, 56, 0
2, 1765, Note_on_c, 0, 80, 0
2, 1768, Note_on_c, 0, 68, 0
2, 1778, Note_on_c, 0, 81, 45
2, 1778, Note_on_c, 0, 69, 46
2, 1780, Note_on_c, 0, 57, 60
2, 1813, Note_on_c, 0, 81, 0
2, 1814, Note_on_c, 0, 69, 0
2, 1817, Note_on_c, 0, 57, 0
2, 1817, Note_on_c, 0, 58, 60
2, 1824, Note_on_c, 0, 82, 44
2, 1857, Note_on_c, 0, 82, 0
2, 1861, Note_on_c, 0, 58, 0
2, 1867, Note_on_c, 0, 87, 45
2, 1869, Note_on_c, 0, 75, 44
2, 1871, Note_on_c, 0, 63, 55
2, 1954, Note_on_c, 0, 87, 0
2, 1955, Note_on_c, 0, 75, 0
2, 1958, Note_on_c, 0, 63, 0
2, 2048, Note_on_c, 0, 87, 42
2, 2050, Note_on_c, 0, 75, 48
2, 2050, Note_on_c, 0, 79, 41
2, 2052, Note_on_c, 0, 51, 56
2, 2054, Note_on_c, 0, 39, 55
2, 2136, Note_on_c, 0, 51, 0
2, 2138, Note_on_c, 0, 39, 0
2, 2140, Note_on_c, 0, 87, 0
2, 2142, Note_on_c, 0, 79, 0
2, 2142, Note_on_c, 0, 75, 0
2, 2229, Note_on_c, 0, 56, 57
2, 2233, Note_on_c, 0, 87, 42
2, 2235, Note_on_c, 0, 75, 48
2, 2239, Note_on_c, 0, 44, 58
2, 2276, Note_on_c, 0, 87, 0
2, 2277, Note_on_c, 0, 75, 0
2, 2277, Note_on_c, 0, 89, 41
2, 2278, Note_on_c, 0, 77, 47
2, 2281, Note_on_c, 0, 56, 0
2, 2317, Note_on_c, 0, 56, 59
2, 2320, Note_on_c, 0, 89, 0
2, 2320, Note_on_c, 0, 92, 47
2, 2322, Note_on_c, 0, 77, 0
2, 2322, Note_on_c, 0, 80, 42
2, 2326, Note_on_c, 0, 60, 53
2, 2327, Note_on_c, 0, 44, 0
2, 2327, Note_on_c, 0, 51, 55
2, 2360, Note_on_c, 0, 60, 0
2, 2361, Note_on_c, 0, 56, 0
2, 2362, Note_on_c, 0, 51, 0
2, 2366, Note_on_c, 0, 75, 46
2, 2368, Note_on_c, 0, 87, 45
2, 2375, Note_on_c, 0, 92, 0
2, 2376, Note_on_c, 0, 80, 0
2, 2413, Note_on_c, 0, 89, 42
2, 2414, Note_on_c, 0, 77, 46
2, 2417, Note_on_c, 0, 51, 56
2, 2419, Note_on_c, 0, 39, 55
2, 2422, Note_on_c, 0, 87, 0
2, 2424, Note_on_c, 0, 75, 0
2, 2457, Note_on_c, 0, 92, 48
2, 2458, Note_on_c, 0, 80, 45
2, 2466, Note_on_c, 0, 89, 0
2, 2468, Note_on_c, 0, 77, 0
2, 2471, Note_on_c, 0, 51, 0
2, 2503, Note_on_c, 0, 87, 44
2, 2506, Note_on_c, 0, 75, 44
2, 2507, Note_on_c, 0, 60, 54
2, 2507, Note_on_c, 0, 63, 55
2, 2508, Note_on_c, 0, 56, 53
2, 2511, Note_on_c, 0, 92, 0
2, 2513, Note_on_c, 0, 80, 0
2, 2518, Note_on_c, 0, 39, 0
2, 2541, Note_on_c, 0, 63, 0
2, 2542, Note_on_c, 0, 56, 0
2, 2542, Note_on_c, 0, 60, 0
2, 2547, Note_on_c, 0, 89, 47
2, 2548, Note_on_c, 0, 77, 47
2, 2555, Note_on_c, 0, 87, 0
2, 2556, Note_on_c, 0, 75, 0
2, 2589, Note_on_c, 0, 92, 43
2, 2590, Note_on_c, 0, 80, 41
2, 2594, Note_on_c, 0, 56, 53
2, 2594, Note_on_c, 0, 44, 55
2, 2597, Note_on_c, 0, 89, 0
2, 2599, Note_on_c, 0, 77, 0
2, 2633, Note_on_c, 0, 87, 42
2, 2634, Note_on_c, 0, 75, 44
2, 2639, Note_on_c, 0, 92, 0
2, 2641, Note_on_c, 0, 80, 0
2, 2643, Note_on_c, 0, 56, 0
2, 2675, Note_on_c, 0, 77, 44
2, 2675, Note_on_c, 0, 89, 42
2, 2679, Note_on_c, 0, 53, 59
2, 2679, Note_on_c, 0, 56, 57
2, 2679, Note_on_c, 0, 60, 59
2, 2683, Note_on_c, 0, 87, 0
2, 2685, Note_on_c, 0, 75, 0
2, 2688, Note_on_c, 0, 44, 0
2, 2712, Note_on_c, 0, 60, 0
2, 2713, Note_on_c, 0, 56, 0
2, 2713, Note_on_c, 0, 53, 0
2, 2717, Note_on_c, 0, 92, 48
2, 2718, Note_on_c, 0, 80, 41
2, 2725, Note_on_c, 0, 89, 0
2, 2727, Note_on_c, 0, 77, 0
2, 2765, Note_on_c, 0, 51, 55
2, 2766, Note_on_c, 0, 39, 54
2, 2806, Note_on_c, 0, 77, 44
2, 2806, Note_on_c, 0, 89, 42
2, 2811, Note_on_c, 0, 92, 0
2, 2812, Note_on_c, 0, 80, 0
2, 2816, Note_on_c, 0, 51, 0
2, 2846, Note_on_c, 0, 89, 0
2, 2848, Note_on_c, 0, 87, 45
2, 2849, Note_on_c, 0, 75, 48
2, 2851, Note_on_c, 0, 51, 57
2, 2852, Note_on_c, 0, 39, 0
2, 2852, Note_on_c, 0, 56, 59
2, 2852, Note_on_c, 0, 60, 59
2, 2857, Note_on_c, 0, 77, 0
2, 2876, Note_on_c, 0, 51, 0
2, 2881, Note_on_c, 0, 75, 0
2, 2883, Note_on_c, 0, 56, 0
2, 2883, Note_on_c, 0, 60, 0
2, 2888, Note_on_c, 0, 87, 0
2, 2890, Note_on_c, 0, 84, 46
2, 2891, Note_on_c, 0, 72, 42
2, 2928, Note_on_c, 0, 41, 56
2, 2932, Note_on_c, 0, 84, 0
2, 2934, Note_on_c, 0, 72, 0
2, 2934, Note_on_c, 0, 80, 45
2, 2935, Note_on_c, 0, 68, 44
2, 2937, Note_on_c, 0, 53, 57
2, 2978, Note_on_c, 0, 80, 0
2, 2979, Note_on_c, 0, 82, 45
2, 2980, Note_on_c, 0, 70, 44
2, 2996, Note_on_c, 0, 68, 0
2, 3023, Note_on_c, 0, 70, 0
2, 3024, Note_on_c, 0, 84, 43
2, 3025, Note_on_c, 0, 72, 43
2, 3026, Note_on_c, 0, 53, 0
2, 3026, Note_on_c, 0, 41, 0
2, 3026, Note_on_c, 0, 65, 42
2, 3026, Note_on_c, 0, 60, 54
2, 3027, Note_on_c, 0, 56, 57
2, 3032, Note_on_c, 0, 82, 0
2, 3061, Note_on_c, 0, 65, 0
2, 3062, Note_on_c, 0, 60, 0
2, 3062, Note_on_c, 0, 56, 0
2, 3069, Note_on_c, 0, 80, 46
2, 3071, Note_on_c, 0, 68, 46
2, 3076, Note_on_c, 0, 84, 0
2, 3077, Note_on_c, 0, 72, 0
2, 3113, Note_on_c, 0, 82, 42
2, 3114, Note_on_c, 0, 70, 47
2, 3116, Note_on_c, 0, 48, 54
2, 3116, Note_on_c, 0, 60, 60
2, 3121, Note_on_c, 0, 80, 0
2, 3122, Note_on_c, 0, 68, 0
2, 3156, Note_on_c, 0, 84, 47
2, 3157, Note_on_c, 0, 72, 44
2, 3164, Note_on_c, 0, 70, 0
2, 3164, Note_on_c, 0, 82, 0
2, 3166, Note_on_c, 0, 60, 0
2, 3197, Note_on_c, 0, 80, 42
2, 3199, Note_on_c, 0, 65, 41
2, 3200, Note_on_c, 0, 68, 46
2, 3201, Note_on_c, 0, 48, 0
2, 3201, Note_on_c, 0, 56, 57
2, 3201, Note_on_c, 0, 60, 54
2, 3206, Note_on_c, 0, 84, 0
2, 3208, Note_on_c, 0, 72, 0
2, 3233, Note_on_c, 0, 68, 0
2, 3233, Note_on_c, 0, 65, 0
2, 3234, Note_on_c, 0, 60, 0
2, 3235, Note_on_c, 0, 56, 0
2, 3242, Note_on_c, 0, 70, 41
2, 3242, Note_on_c, 0, 82, 46
2, 3248, Note_on_c, 0, 80, 0
2, 3285, Note_on_c, 0, 84, 41
2, 3286, Note_on_c, 0, 72, 44
2, 3289, Note_on_c, 0, 41, 56
2, 3289, Note_on_c, 0, 53, 55
2, 3292, Note_on_c, 0, 82, 0
2, 3294, Note_on_c, 0, 70, 0
2, 3329, Note_on_c, 0, 80, 46
2, 3330, Note_on_c, 0, 68, 44
2, 3337, Note_on_c, 0, 84, 0
2, 3338, Note_on_c, 0, 72, 0
2, 3369, Note_on_c, 0, 65, 43
2, 3375, Note_on_c, 0, 70, 44
2, 3375, Note_on_c, 0, 82, 48
2, 3377, Note_on_c, 0, 53, 0
2, 3377, Note_on_c, 0, 60, 58
2, 3378, Note_on_c, 0, 41, 0
2, 3378, Note_on_c, 0, 56, 53
2, 3383, Note_on_c, 0, 80, 0
2, 3384, Note_on_c, 0, 68, 0
2, 3404, Note_on_c, 0, 56, 0
2, 3410, Note_on_c, 0, 65, 0
2, 3411, Note_on_c, 0, 60, 0
2, 3419, Note_on_c, 0, 84, 44
2, 3420, Note_on_c, 0, 72, 48
2, 3427, Note_on_c, 0, 82, 0
2, 3428, Note_on_c, 0, 70, 0
2, 3458, Note_on_c, 0, 48, 56
2, 3505, Note_on_c, 0, 84, 0
2, 3506, Note_on_c, 0, 82, 45
2, 3508, Note_on_c, 0, 70, 42
2, 3515, Note_on_c, 0, 72, 0
2, 3545, Note_on_c, 0, 56, 60
2, 3549, Note_on_c, 0, 82, 0
2, 3550, Note_on_c, 0, 80, 48
2, 3552, Note_on_c, 0, 65, 46
2, 3552, Note_on_c, 0, 68, 44
2, 3554, Note_on_c, 0, 48, 0
2, 3554, Note_on_c, 0, 60, 53
2, 3559, Note_on_c, 0, 70, 0
2, 3568, Note_on_c, 0, 65, 0
2, 3578, Note_on_c, 0, 56, 0
2, 3578, Note_on_c, 0, 60, 0
2, 3593, Note_on_c, 0, 80, 0
2, 3595, Note_on_c, 0, 68, 0
2, 3595, Note_on_c, 0, 77, 47
2, 3596, Note_on_c, 0, 65, 41
2, 3642, Note_on_c, 0, 75, 45
2, 3644, Note_on_c, 0, 58, 59
2, 3644, Note_on_c, 0, 63, 59
2, 3645, Note_on_c, 0, 46, 55
2, 3650, Note_on_c, 0, 65, 0
2, 3650, Note_on_c, 0, 77, 0
2, 3686, Note_on_c, 0, 75, 0
2, 3686, Note_on_c, 0, 77, 48
2, 3688, Note_on_c, 0, 63, 0
2, 3689, Note_on_c, 0, 65, 44
2, 3698, Note_on_c, 0, 58, 0
2, 3732, Note_on_c, 0, 79, 48
2, 3733, Note_on_c, 0, 67, 47
2, 3735, Note_on_c, 0, 51, 58
2, 3735, Note_on_c, 0, 55, 56
2, 3735, Note_on_c, 0, 61, 53
2, 3740, Note_on_c, 0, 77, 0
2, 3742, Note_on_c, 0, 65, 0
2, 3744, Note_on_c, 0, 46, 0
2, 3768, Note_on_c, 0, 61, 0
2, 3769, Note_on_c, 0, 55, 0
2, 3770, Note_on_c, 0, 51, 0
2, 3776, Note_on_c, 0, 75, 46
2, 3778, Note_on_c, 0, 63, 59
2, 3783, Note_on_c, 0, 79, 0
2, 3785, Note_on_c, 0, 67, 0
2, 3819, Note_on_c, 0, 77, 48
2, 3821, Note_on_c, 0, 65, 43
2, 3823, Note_on_c, 0, 51, 55
2, 3825, Note_on_c, 0, 39, 59
2, 3829, Note_on_c, 0, 75, 0
2, 3830, Note_on_c, 0, 63, 0
2, 3877, Note_on_c, 0, 51, 0
2, 3911, Note_on_c, 0, 79, 48
2, 3912, Note_on_c, 0, 67, 45
2, 3913, Note_on_c, 0, 63, 55
2, 3914, Note_on_c, 0, 61, 56
2, 3914, Note_on_c, 0, 55, 59
2, 3919, Note_on_c, 0, 77, 0
2, 3921, Note_on_c, 0, 65, 0
2, 3925, Note_on_c, 0, 39, 0
2, 3931, Note_on_c, 0, 63, 0
2, 3949, Note_on_c, 0, 55, 0
2, 3949, Note_on_c, 0, 61, 0
2, 3958, Note_on_c, 0, 75, 43
2, 3960, Note_on_c, 0, 63, 54
2, 3965, Note_on_c, 0, 79, 0
2, 3966, Note_on_c, 0, 67, 0
2, 4003, Note_on_c, 0, 77, 46
2, 4005, Note_on_c, 0, 65, 47
2, 4007, Note_on_c, 0, 58, 55
2, 4008, Note_on_c, 0, 46, 58
2, 4012, Note_on_c, 0, 75, 0
2, 4014, Note_on_c, 0, 63, 0
2, 4049, Note_on_c, 0, 77, 0
2, 4050, Note_on_c, 0, 65, 0
2, 4051, Note_on_c, 0, 79, 41
2, 4052, Note_on_c, 0, 67, 44
2, 4087, Note_on_c, 0, 58, 0
2, 4089, Note_on_c, 0, 46, 0
2, 4089, Note_on_c, 0, 55, 55
2, 4089, Note_on_c, 0, 61, 59
2, 4123, Note_on_c, 0, 61, 0
2, 4138, Note_on_c, 0, 55, 0
2, 4141, Note_on_c, 0, 75, 48
2, 4143, Note_on_c, 0, 63, 54
2, 4148, Note_on_c, 0, 79, 0
2, 4150, Note_on_c, 0, 67, 0
2, 4184, Note_on_c, 0, 77, 48
2, 4187, Note_on_c, 0, 65, 46
2, 4188, Note_on_c, 0, 51, 57
2, 4191, Note_on_c, 0, 39, 60
2, 4194, Note_on_c, 0, 75, 0
2, 4195, Note_on_c, 0, 63, 0
2, 4276, Note_on_c, 0, 65, 0
2, 4278, Note_on_c, 0, 61, 53
2, 4279, Note_on_c, 0, 55, 56
2, 4284, Note_on_c, 0, 77, 0
2, 4289, Note_on_c, 0, 51, 0
2, 4291, Note_on_c, 0, 39, 0
2, 4305, Note_on_c, 0, 75, 44
2, 4308, Note_on_c, 0, 63, 57
2, 4315, Note_on_c, 0, 61, 0
2, 4316, Note_on_c, 0, 55, 0
2, 4322, Note_on_c, 0, 77, 42
2, 4324, Note_on_c, 0, 65, 41
2, 4342, Note_on_c, 0, 63, 0
2, 4349, Note_on_c, 0, 75, 0
2, 4350, Note_on_c, 0, 79, 46
2, 4352, Note_on_c, 0, 67, 48
2, 4367, Note_on_c, 0, 80, 42
2, 4370, Note_on_c, 0, 68, 48
2, 4372, Note_on_c, 0, 56, 59
2, 4373, Note_on_c, 0, 44, 56
2, 4376, Note_on_c, 0, 79, 0
2, 4377, Note_on_c, 0, 77, 0
2, 4378, Note_on_c, 0, 65, 0
2, 4379, Note_on_c, 0, 67, 0
2, 4414, Note_on_c, 0, 79, 42
2, 4416, Note_on_c, 0, 67, 43
2, 4417, Note_on_c, 0, 56, 0
2, 4421, Note_on_c, 0, 80, 0
2, 4424, Note_on_c, 0, 68, 0
2, 4458, Note_on_c, 0, 79, 0
2, 4458, Note_on_c, 0, 80, 42
2, 4460, Note_on_c, 0, 67, 0
2, 4461, Note_on_c, 0, 68, 45
2, 4462, Note_on_c, 0, 63, 54
2, 4463, Note_on_c, 0, 56, 60
2, 4463, Note_on_c, 0, 60, 56
2, 4464, Note_on_c, 0, 44, 0
2, 4495, Note_on_c, 0, 68, 0
2, 4497, Note_on_c, 0, 56, 0
2, 4497, Note_on_c, 0, 60, 0
2, 4503, Note_on_c, 0, 77, 48
2, 4505, Note_on_c, 0, 65, 47
2, 4511, Note_on_c, 0, 80, 0
2, 4514, Note_on_c, 0, 63, 0
2, 4553, Note_on_c, 0, 46, 53
2, 4592, Note_on_c, 0, 79, 42
2, 4595, Note_on_c, 0, 67, 44
2, 4600, Note_on_c, 0, 77, 0
2, 4602, Note_on_c, 0, 65, 0
2, 4636, Note_on_c, 0, 80, 47
2, 4639, Note_on_c, 0, 68, 45
2, 4641, Note_on_c, 0, 58, 58
2, 4642, Note_on_c, 0, 62, 54
2, 4643, Note_on_c, 0, 56, 55
2, 4646, Note_on_c, 0, 79, 0
2, 4649, Note_on_c, 0, 67, 0
2, 4652, Note_on_c, 0, 46, 0
2, 4667, Note_on_c, 0, 62, 0
2, 4668, Note_on_c, 0, 56, 0
2, 4668, Note_on_c, 0, 58, 0
2, 4730, Note_on_c, 0, 82, 45
2, 4730, Note_on_c, 0, 70, 47
2, 4733, Note_on_c, 0, 55, 57
2, 4735, Note_on_c, 0, 43, 54
2, 4737, Note_on_c, 0, 80, 0
2, 4739, Note_on_c, 0, 68, 0
2, 4765, Note_on_c, 0, 81, 45
2, 4772, Note_on_c, 0, 82, 0
2, 4775, Note_on_c, 0, 70, 0
2, 4775, Note_on_c, 0, 69, 45
2, 4776, Note_on_c, 0, 55, 0
2, 4817, Note_on_c, 0, 81, 0
2, 4818, Note_on_c, 0, 82, 45
2, 4819, Note_on_c, 0, 69, 0
2, 4820, Note_on_c, 0, 70, 48
2, 4822, Note_on_c, 0, 51, 60
2, 4822, Note_on_c, 0, 61, 60
2, 4823, Note_on_c, 0, 55, 59
2, 4831, Note_on_c, 0, 43, 0
2, 4846, Note_on_c, 0, 61, 0
2, 4848, Note_on_c, 0, 51, 0
2, 4856, Note_on_c, 0, 55, 0
2, 4861, Note_on_c, 0, 82, 0
2, 4861, Note_on_c, 0, 87, 46
2, 4862, Note_on_c, 0, 70, 0
2, 4863, Note_on_c, 0, 67, 43
2, 4863, Note_on_c, 0, 75, 46
2, 4912, Note_on_c, 0, 51, 53
2, 4913, Note_on_c, 0, 39, 53
2, 4951, Note_on_c, 0, 85, 43
2, 4958, Note_on_c, 0, 87, 0
2, 4970, Note_on_c, 0, 75, 0
2, 4995, Note_on_c, 0, 82, 43
2, 4998, Note_on_c, 0, 51, 0
2, 4998, Note_on_c, 0, 63, 59
2, 4999, Note_on_c, 0, 55, 55
2, 4999, Note_on_c, 0, 61, 56
2, 5001, Note_on_c, 0, 39, 0
2, 5003, Note_on_c, 0, 85, 0
2, 5032, Note_on_c, 0, 63, 0
2, 5032, Note_on_c, 0, 61, 0
2, 5033, Note_on_c, 0, 55, 0
2, 5039, Note_on_c, 0, 79, 44
2, 5046, Note_on_c, 0, 82, 0
2, 5081, Note_on_c, 0, 87, 46
2, 5083, Note_on_c, 0, 75, 45
2, 5086, Note_on_c, 0, 44, 54
2, 5086, Note_on_c, 0, 56, 57
2, 5090, Note_on_c, 0, 79, 0
2, 5091, Note_on_c, 0, 67, 0
2, 5123, Note_on_c, 0, 89, 48
2, 5124, Note_on_c, 0, 77, 43
2, 5131, Note_on_c, 0, 87, 0
2, 5132, Note_on_c, 0, 75, 0
2, 5135, Note_on_c, 0, 56, 0
2, 5163, Note_on_c, 0, 92, 43
2, 5165, Note_on_c, 0, 80, 41
2, 5168, Note_on_c, 0, 63, 55
2, 5169, Note_on_c, 0, 56, 60
2, 5169, Note_on_c, 0, 60, 59
2, 5172, Note_on_c, 0, 89, 0
2, 5174, Note_on_c, 0, 77, 0
2, 5178, Note_on_c, 0, 44, 0
2, 5202, Note_on_c, 0, 60, 0
2, 5202, Note_on_c, 0, 63, 0
2, 5203, Note_on_c, 0, 56, 0
2, 5208, Note_on_c, 0, 87, 41
2, 5210, Note_on_c, 0, 75, 45
2, 5214, Note_on_c, 0, 92, 0
2, 5216, Note_on_c, 0, 80, 0
2, 5248, Note_on_c, 0, 39, 56
2, 5251, Note_on_c, 0, 87, 0
2, 5252, Note_on_c, 0, 89, 44
2, 5253, Note_on_c, 0, 77, 44
2, 5256, Note_on_c, 0, 51, 60
2, 5260, Note_on_c, 0, 75, 0
2, 5292, Note_on_c, 0, 92, 45
2, 5295, Note_on_c, 0, 77, 0
2, 5295, Note_on_c, 0, 80, 45
2, 5301, Note_on_c, 0, 89, 0
2, 5335, Note_on_c, 0, 87, 42
2, 5338, Note_on_c, 0, 68, 43
2, 5338, Note_on_c, 0, 75, 41
2, 5339, Note_on_c, 0, 63, 54
2, 5340, Note_on_c, 0, 60, 56
2, 5343, Note_on_c, 0, 92, 0
2, 5344, Note_on_c, 0, 80, 0
2, 5348, Note_on_c, 0, 51, 0
2, 5350, Note_on_c, 0, 39, 0
2, 5371, Note_on_c, 0, 68, 0
2, 5372, Note_on_c, 0, 63, 0
2, 5373, Note_on_c, 0, 60, 0
2, 5378, Note_on_c, 0, 87, 0
2, 5378, Note_on_c, 0, 89, 45
2, 5379, Note_on_c, 0, 75, 0
2, 5380, Note_on_c, 0, 77, 43
2, 5419, Note_on_c, 0, 92, 48
2, 5421, Note_on_c, 0, 77, 0
2, 5422, Note_on_c, 0, 80, 45
2, 5426, Note_on_c, 0, 56, 56
2, 5426, Note_on_c, 0, 44, 58
2, 5428, Note_on_c, 0, 89, 0
2, 5463, Note_on_c, 0, 80, 0
2, 5463, Note_on_c, 0, 87, 42
2, 5465, Note_on_c, 0, 75, 47
2, 5467, Note_on_c, 0, 56, 0
2, 5470, Note_on_c, 0, 92, 0
2, 5505, Note_on_c, 0, 89, 46
2, 5507, Note_on_c, 0, 75, 0
2, 5507, Note_on_c, 0, 77, 41
2, 5511, Note_on_c, 0, 44, 0
2, 5511, Note_on_c, 0, 51, 56
2, 5511, Note_on_c, 0, 56, 54
2, 5511, Note_on_c, 0, 60, 57
2, 5515, Note_on_c, 0, 87, 0
2, 5545, Note_on_c, 0, 56, 0
2, 5545, Note_on_c, 0, 60, 0
2, 5546, Note_on_c, 0, 51, 0
2, 5549, Note_on_c, 0, 92, 46
2, 5551, Note_on_c, 0, 77, 0
2, 5551, Note_on_c, 0, 80, 41
2, 5557, Note_on_c, 0, 89, 0
2, 5598, Note_on_c, 0, 51, 53
2, 5601, Note_on_c, 0, 39, 55
2, 5640, Note_on_c, 0, 77, 45
2, 5645, Note_on_c, 0, 92, 0
2, 5647, Note_on_c, 0, 80, 0
2, 5651, Note_on_c, 0, 51, 0
2, 5685, Note_on_c, 0, 75, 45
2, 5688, Note_on_c, 0, 60, 55
2, 5688, Note_on_c, 0, 63, 56
2, 5689, Note_on_c, 0, 56, 57
2, 5693, Note_on_c, 0, 77, 0
2, 5698, Note_on_c, 0, 39, 0
2, 5721, Note_on_c, 0, 63, 0
2, 5722, Note_on_c, 0, 60, 0
2, 5723, Note_on_c, 0, 56, 0
2, 5729, Note_on_c, 0, 84, 45
2, 5730, Note_on_c, 0, 72, 47
2, 5737, Note_on_c, 0, 75, 0
2, 5771, Note_on_c, 0, 80, 46
2, 5774, Note_on_c, 0, 68, 47
2, 5777, Note_on_c, 0, 41, 56
2, 5777, Note_on_c, 0, 53, 59
2, 5781, Note_on_c, 0, 84, 0
2, 5782, Note_on_c, 0, 72, 0
2, 5816, Note_on_c, 0, 82, 46
2, 5818, Note_on_c, 0, 70, 42
2, 5825, Note_on_c, 0, 80, 0
2, 5826, Note_on_c, 0, 68, 0
2, 5861, Note_on_c, 0, 84, 42
2, 5863, Note_on_c, 0, 72, 48
2, 5864, Note_on_c, 0, 65, 47
2, 5866, Note_on_c, 0, 56, 54
2, 5866, Note_on_c, 0, 60, 54
2, 5870, Note_on_c, 0, 82, 0
2, 5872, Note_on_c, 0, 70, 0
2, 5875, Note_on_c, 0, 53, 0
2, 5876, Note_on_c, 0, 41, 0
2, 5901, Note_on_c, 0, 65, 0
2, 5902, Note_on_c, 0, 60, 0
2, 5903, Note_on_c, 0, 56, 0
2, 5907, Note_on_c, 0, 84, 0
2, 5908, Note_on_c, 0, 80, 43
2, 5911, Note_on_c, 0, 68, 47
2, 5919, Note_on_c, 0, 72, 0
2, 5946, Note_on_c, 0, 68, 0
2, 5953, Note_on_c, 0, 80, 0
2, 5954, Note_on_c, 0, 82, 43
2, 5956, Note_on_c, 0, 70, 45
2, 5958, Note_on_c, 0, 60, 55
2, 5959, Note_on_c, 0, 48, 54
2, 5989, Note_on_c, 0, 82, 0
2, 5991, Note_on_c, 0, 70, 0
2, 5993, Note_on_c, 0, 60, 0
2, 6000, Note_on_c, 0, 84, 41
2, 6001, Note_on_c, 0, 72, 46
2, 6033, Note_on_c, 0, 84, 0
2, 6038, Note_on_c, 0, 60, 58
2, 6039, Note_on_c, 0, 48, 0
2, 6040, Note_on_c, 0, 56, 54
2, 6045, Note_on_c, 0, 72, 0
2, 6045, Note_on_c, 0, 80, 48
2, 6047, Note_on_c, 0, 68, 47
2, 6048, Note_on_c, 0, 65, 44
2, 6072, Note_on_c, 0, 68, 0
2, 6073, Note_on_c, 0, 65, 0
2, 6074, Note_on_c, 0, 60, 0
2, 6074, Note_on_c, 0, 56, 0
2, 6078, Note_on_c, 0, 80, 0
2, 6079, Note_on_c, 0, 82, 48
2, 6082, Note_on_c, 0, 70, 43
2, 6132, Note_on_c, 0, 82, 0
2, 6133, Note_on_c, 0, 84, 44
2, 6134, Note_on_c, 0, 72, 47
2, 6138, Note_on_c, 0, 53, 55
2, 6139, Note_on_c, 0, 41, 56
2, 6143, Note_on_c, 0, 70, 0
2, 6178, Note_on_c, 0, 80, 44
2, 6181, Note_on_c, 0, 68, 46
2, 6187, Note_on_c, 0, 84, 0
2, 6188, Note_on_c, 0, 72, 0
2, 6224, Note_on_c, 0, 82, 43
2, 6225, Note_on_c, 0, 70, 41
2, 6226, Note_on_c, 0, 65, 48
2, 6227, Note_on_c, 0, 60, 55
2, 6228, Note_on_c, 0, 56, 57
2, 6232, Note_on_c, 0, 80, 0
2, 6234, Note_on_c, 0, 68, 0
2, 6237, Note_on_c, 0, 53, 0
2, 6239, Note_on_c, 0, 41, 0
2, 6262, Note_on_c, 0, 65, 0
2, 6263, Note_on_c, 0, 60, 0
2, 6264, Note_on_c, 0, 56, 0
2, 6268, Note_on_c, 0, 84, 44
2, 6271, Note_on_c, 0, 72, 44
2, 6276, Note_on_c, 0, 82, 0
2, 6278, Note_on_c, 0, 70, 0
2, 6316, Note_on_c, 0, 60, 55
2, 6317, Note_on_c, 0, 48, 54
2, 6356, Note_on_c, 0, 82, 43
2, 6358, Note_on_c, 0, 70, 47
2, 6362, Note_on_c, 0, 84, 0
2, 6364, Note_on_c, 0, 72, 0
2, 6366, Note_on_c, 0, 60, 0
2, 6398, Note_on_c, 0, 80, 45
2, 6401, Note_on_c, 0, 65, 45
2, 6401, Note_on_c, 0, 68, 42
2, 6403, Note_on_c, 0, 56, 60
2, 6403, Note_on_c, 0, 60, 55
2, 6407, Note_on_c, 0, 82, 0
2, 6409, Note_on_c, 0, 70, 0
2, 6412, Note_on_c, 0, 48, 0
2, 6418, Note_on_c, 0, 65, 0
2, 6435, Note_on_c, 0, 60, 0
2, 6436, Note_on_c, 0, 56, 0
2, 6441, Note_on_c, 0, 77, 43
2, 6445, Note_on_c, 0, 65, 45
2, 6450, Note_on_c, 0, 80, 0
2, 6452, Note_on_c, 0, 68, 0
2, 6488, Note_on_c, 0, 75, 43
2, 6490, Note_on_c, 0, 63, 56
2, 6491, Note_on_c, 0, 58, 55
2, 6493, Note_on_c, 0, 46, 60
2, 6496, Note_on_c, 0, 77, 0
2, 6497, Note_on_c, 0, 65, 0
2, 6532, Note_on_c, 0, 77, 44
2, 6535, Note_on_c, 0, 65, 41
2, 6541, Note_on_c, 0, 75, 0
2, 6543, Note_on_c, 0, 63, 0
2, 6577, Note_on_c, 0, 77, 0
2, 6578, Note_on_c, 0, 65, 0
2, 6578, Note_on_c, 0, 79, 42
2, 6579, Note_on_c, 0, 58, 0
2, 6579, Note_on_c, 0, 67, 41
2, 6581, Note_on_c, 0, 46, 0
2, 6581, Note_on_c, 0, 51, 58
2, 6581, Note_on_c, 0, 61, 56
2, 6582, Note_on_c, 0, 55, 56
2, 6616, Note_on_c, 0, 61, 0
2, 6617, Note_on_c, 0, 51, 0
2, 6617, Note_on_c, 0, 55, 0
2, 6622, Note_on_c, 0, 79, 0
2, 6624, Note_on_c, 0, 75, 48
2, 6626, Note_on_c, 0, 63, 53
2, 6633, Note_on_c, 0, 67, 0
2, 6668, Note_on_c, 0, 77, 46
2, 6671, Note_on_c, 0, 65, 47
2, 6673, Note_on_c, 0, 51, 59
2, 6674, Note_on_c, 0, 39, 54
2, 6676, Note_on_c, 0, 75, 0
2, 6679, Note_on_c, 0, 63, 0
2, 6716, Note_on_c, 0, 51, 0
2, 6756, Note_on_c, 0, 77, 0
2, 6758, Note_on_c, 0, 65, 0
2, 6758, Note_on_c, 0, 79, 43
2, 6759, Note_on_c, 0, 67, 42
2, 6761, Note_on_c, 0, 61, 59
2, 6761, Note_on_c, 0, 63, 57
2, 6762, Note_on_c, 0, 55, 57
2, 6764, Note_on_c, 0, 39, 0
2, 6778, Note_on_c, 0, 63, 0
2, 6788, Note_on_c, 0, 61, 0
2, 6795, Note_on_c, 0, 75, 43
2, 6797, Note_on_c, 0, 55, 0
2, 6797, Note_on_c, 0, 63, 55
2, 6802, Note_on_c, 0, 79, 0
2, 6805, Note_on_c, 0, 67, 0
2, 6850, Note_on_c, 0, 77, 46
2, 6852, Note_on_c, 0, 65, 43
2, 6853, Note_on_c, 0, 58, 55
2, 6856, Note_on_c, 0, 46, 55
2, 6860, Note_on_c, 0, 75, 0
2, 6861, Note_on_c, 0, 63, 0
2, 6897, Note_on_c, 0, 79, 44
2, 6898, Note_on_c, 0, 67, 45
2, 6899, Note_on_c, 0, 61, 54
2, 6904, Note_on_c, 0, 77, 0
2, 6906, Note_on_c, 0, 65, 0
2, 6908, Note_on_c, 0, 58, 0
2, 6945, Note_on_c, 0, 51, 53
2, 6945, Note_on_c, 0, 55, 53
2, 6952, Note_on_c, 0, 61, 0
2, 6955, Note_on_c, 0, 46, 0
2, 6980, Note_on_c, 0, 55, 0
2, 6981, Note_on_c, 0, 51, 0
2, 6986, Note_on_c, 0, 75, 43
2, 6989, Note_on_c, 0, 63, 59
2, 6994, Note_on_c, 0, 79, 0
2, 6996, Note_on_c, 0, 67, 0
2, 7032, Note_on_c, 0, 77, 44
2, 7033, Note_on_c, 0, 65, 41
2, 7035, Note_on_c, 0, 51, 55
2, 7038, Note_on_c, 0, 39, 54
2, 7039, Note_on_c, 0, 75, 0
2, 7041, Note_on_c, 0, 63, 0
2, 7087, Note_on_c, 0, 51, 0
2, 7123, Note_on_c, 0, 61, 54
2, 7124, Note_on_c, 0, 55, 60
2, 7128, Note_on_c, 0, 77, 0
2, 7130, Note_on_c, 0, 65, 0
2, 7135, Note_on_c, 0, 39, 0
2, 7147, Note_on_c, 0, 75, 45
2, 7151, Note_on_c, 0, 63, 58
2, 7158, Note_on_c, 0, 61, 0
2, 7160, Note_on_c, 0, 55, 0
2, 7166, Note_on_c, 0, 77, 44
2, 7168, Note_on_c, 0, 65, 47
2, 7174, Note_on_c, 0, 75, 0
2, 7178, Note_on_c, 0, 63, 0
2, 7194, Note_on_c, 0, 79, 44
2, 7195, Note_on_c, 0, 67, 47
2, 7201, Note_on_c, 0, 77, 0
2, 7202, Note_on_c, 0, 65, 0
2, 7210, Note_on_c, 0, 80, 42
2, 7213, Note_on_c, 0, 68, 46
2, 7216, Note_on_c, 0, 56, 60
2, 7217, Note_on_c, 0, 44, 54
2, 7219, Note_on_c, 0, 79, 0
2, 7223, Note_on_c, 0, 67, 0
2, 7242, Note_on_c, 0, 56, 0
2, 7247, Note_on_c, 0, 80, 0
2, 7249, Note_on_c, 0, 68, 0
2, 7256, Note_on_c, 0, 82, 44
2, 7259, Note_on_c, 0, 70, 42
2, 7296, Note_on_c, 0, 60, 58
2, 7297, Note_on_c, 0, 56, 57
2, 7298, Note_on_c, 0, 82, 0
2, 7300, Note_on_c, 0, 84, 43
2, 7301, Note_on_c, 0, 70, 0
2, 7302, Note_on_c, 0, 72, 45
2, 7306, Note_on_c, 0, 51, 53
2, 7307, Note_on_c, 0, 44, 0
2, 7332, Note_on_c, 0, 51, 0
2, 7333, Note_on_c, 0, 56, 0
2, 7339, Note_on_c, 0, 60, 0
2, 7344, Note_on_c, 0, 84, 0
2, 7344, Note_on_c, 0, 87, 46
2, 7346, Note_on_c, 0, 72, 0
2, 7346, Note_on_c, 0, 75, 45
2, 7378, Note_on_c, 0, 39, 53
2, 7387, Note_on_c, 0, 87, 0
2, 7389, Note_on_c, 0, 84, 43
2, 7391, Note_on_c, 0, 72, 48
2, 7394, Note_on_c, 0, 51, 55
2, 7398, Note_on_c, 0, 75, 0
2, 7432, Note_on_c, 0, 87, 43
2, 7435, Note_on_c, 0, 75, 43
2, 7441, Note_on_c, 0, 84, 0
2, 7443, Note_on_c, 0, 72, 0
2, 7447, Note_on_c, 0, 51, 0
2, 7477, Note_on_c, 0, 82, 43
2, 7480, Note_on_c, 0, 70, 45
2, 7482, Note_on_c, 0, 61, 57
2, 7483, Note_on_c, 0, 51, 60
2, 7483, Note_on_c, 0, 55, 60
2, 7484, Note_on_c, 0, 87, 0
2, 7487, Note_on_c, 0, 75, 0
2, 7494, Note_on_c, 0, 39, 0
2, 7515, Note_on_c, 0, 55, 0
2, 7515, Note_on_c, 0, 61, 0
2, 7517, Note_on_c, 0, 51, 0
2, 7563, Note_on_c, 0, 80, 44
2, 7567, Note_on_c, 0, 68, 42
2, 7569, Note_on_c, 0, 60, 60
2, 7570, Note_on_c, 0, 56, 54
2, 7572, Note_on_c, 0, 82, 0
2, 7575, Note_on_c, 0, 70, 0
2, 7631, Note_on_c, 0, 86, 41
2, 7633, Note_on_c, 0, 74, 46
2, 7647, Note_on_c, 0, 87, 46
2, 7650, Note_on_c, 0, 75, 47
2, 7652, Note_on_c, 0, 61, 56
2, 7655, Note_on_c, 0, 86, 0
2, 7655, Note_on_c, 0, 49, 53
2, 7657, Note_on_c, 0, 80, 0
2, 7658, Note_on_c, 0, 68, 0
2, 7658, Note_on_c, 0, 74, 0
2, 7660, Note_on_c, 0, 60, 0
2, 7661, Note_on_c, 0, 56, 0
2, 7690, Note_on_c, 0, 75, 0
2, 7696, Note_on_c, 0, 87, 0
2, 7711, Note_on_c, 0, 49, 0
2, 7714, Note_on_c, 0, 86, 43
2, 7716, Note_on_c, 0, 74, 44
2, 7731, Note_on_c, 0, 87, 44
2, 7734, Note_on_c, 0, 75, 41
2, 7736, Note_on_c, 0, 61, 0
2, 7737, Note_on_c, 0, 60, 56
2, 7738, Note_on_c, 0, 48, 60
2, 7739, Note_on_c, 0, 86, 0
2, 7742, Note_on_c, 0, 74, 0
2, 7773, Note_on_c, 0, 87, 0
2, 7776, Note_on_c, 0, 75, 0
2, 7802, Note_on_c, 0, 86, 45
2, 7803, Note_on_c, 0, 74, 44
2, 7818, Note_on_c, 0, 87, 43
2, 7820, Note_on_c, 0, 75, 41
2, 7824, Note_on_c, 0, 48, 0
2, 7824, Note_on_c, 0, 58, 55
2, 7825, Note_on_c, 0, 46, 57
2, 7826, Note_on_c, 0, 86, 0
2, 7828, Note_on_c, 0, 74, 0
2, 7830, Note_on_c, 0, 60, 0
2, 7851, Note_on_c, 0, 87, 0
2, 7854, Note_on_c, 0, 75, 0
2, 7902, Note_on_c, 0, 87, 41
2, 7905, Note_on_c, 0, 75, 42
2, 7908, Note_on_c, 0, 56, 54
2, 7909, Note_on_c, 0, 44, 59
2, 7915, Note_on_c, 0, 58, 0
2, 7917, Note_on_c, 0, 46, 0
2, 7944, Note_on_c, 0, 89, 41
2, 7945, Note_on_c, 0, 77, 46
2, 7947, Note_on_c, 0, 56, 0
2, 7951, Note_on_c, 0, 87, 0
2, 7953, Note_on_c, 0, 75, 0
2, 7984, Note_on_c, 0, 92, 48
2, 7986, Note_on_c, 0, 80, 45
2, 7991, Note_on_c, 0, 51, 53
2, 7991, Note_on_c, 0, 56, 58
2, 7991, Note_on_c, 0, 60, 55
2, 7993, Note_on_c, 0, 89, 0
2, 7995, Note_on_c, 0, 77, 0
2, 8000, Note_on_c, 0, 44, 0
2, 8024, Note_on_c, 0, 60, 0
2, 8024, Note_on_c, 0, 56, 0
2, 8025, Note_on_c, 0, 51, 0
2, 8030, Note_on_c, 0, 87, 42
2, 8033, Note_on_c, 0, 75, 44
2, 8037, Note_on_c, 0, 92, 0
2, 8039, Note_on_c, 0, 80, 0
2, 8074, Note_on_c, 0, 89, 46
2, 8076, Note_on_c, 0, 77, 41
2, 8080, Note_on_c, 0, 51, 55
2, 8082, Note_on_c, 0, 39, 53
2, 8083, Note_on_c, 0, 87, 0
2, 8085, Note_on_c, 0, 75, 0
2, 8118, Note_on_c, 0, 92, 43
2, 8120, Note_on_c, 0, 80, 42
2, 8126, Note_on_c, 0, 89, 0
2, 8129, Note_on_c, 0, 77, 0
2, 8134, Note_on_c, 0, 51, 0
2, 8164, Note_on_c, 0, 87, 43
2, 8167, Note_on_c, 0, 75, 43
2, 8169, Note_on_c, 0, 63, 60
2, 8170, Note_on_c, 0, 56, 57
2, 8170, Note_on_c, 0, 60, 57
2, 8171, Note_on_c, 0, 92, 0
2, 8173, Note_on_c, 0, 80, 0
2, 8180, Note_on_c, 0, 39, 0
2, 8203, Note_on_c, 0, 63, 0
2, 8204, Note_on_c, 0, 60, 0
2, 8205, Note_on_c, 0, 56, 0
2, 8209, Note_on_c, 0, 89, 48
2, 8210, Note_on_c, 0, 77, 44
2, 8215, Note_on_c, 0, 87, 0
2, 8232, Note_on_c, 0, 75, 0
2, 8249, Note_on_c, 0, 92, 42
2, 8253, Note_on_c, 0, 80, 45
2, 8258, Note_on_c, 0, 89, 0
2, 8258, Note_on_c, 0, 56, 57
2, 8258, Note_on_c, 0, 44, 56
2, 8261, Note_on_c, 0, 77, 0
2, 8296, Note_on_c, 0, 87, 41
2, 8297, Note_on_c, 0, 80, 0
2, 8299, Note_on_c, 0, 75, 41
2, 8301, Note_on_c, 0, 56, 0
2, 8304, Note_on_c, 0, 92, 0
2, 8340, Note_on_c, 0, 89, 48
2, 8341, Note_on_c, 0, 75, 0
2, 8341, Note_on_c, 0, 77, 43
2, 8345, Note_on_c, 0, 60, 60
2, 8346, Note_on_c, 0, 56, 56
2, 8347, Note_on_c, 0, 44, 0
2, 8347, Note_on_c, 0, 53, 59
2, 8349, Note_on_c, 0, 87, 0
2, 8379, Note_on_c, 0, 60, 0
2, 8379, Note_on_c, 0, 56, 0
2, 8380, Note_on_c, 0, 53, 0
2, 8382, Note_on_c, 0, 92, 47
2, 8385, Note_on_c, 0, 77, 0
2, 8386, Note_on_c, 0, 80, 42
2, 8392, Note_on_c, 0, 89, 0
2, 8426, Note_on_c, 0, 51, 58
2, 8429, Note_on_c, 0, 39, 60
2, 8475, Note_on_c, 0, 89, 44
2, 8477, Note_on_c, 0, 77, 41
2, 8481, Note_on_c, 0, 51, 0
2, 8483, Note_on_c, 0, 92, 0
2, 8486, Note_on_c, 0, 80, 0
2, 8522, Note_on_c, 0, 87, 45
2, 8525, Note_on_c, 0, 75, 43
2, 8527, Note_on_c, 0, 60, 57
2, 8528, Note_on_c, 0, 51, 60
2, 8528, Note_on_c, 0, 56, 57
2, 8530, Note_on_c, 0, 39, 0
2, 8530, Note_on_c, 0, 89, 0
2, 8533, Note_on_c, 0, 77, 0
2, 8554, Note_on_c, 0, 60, 0
2, 8556, Note_on_c, 0, 51, 0
2, 8561, Note_on_c, 0, 84, 44
2, 8562, Note_on_c, 0, 72, 41
2, 8564, Note_on_c, 0, 56, 0
2, 8568, Note_on_c, 0, 87, 0
2, 8570, Note_on_c, 0, 75, 0
2, 8615, Note_on_c, 0, 80, 43
2, 8618, Note_on_c, 0, 68, 46
2, 8621, Note_on_c, 0, 41, 54
2, 8621, Note_on_c, 0, 53, 56
2, 8623, Note_on_c, 0, 84, 0
2, 8625, Note_on_c, 0, 72, 0
2, 8660, Note_on_c, 0, 80, 0
2, 8661, Note_on_c, 0, 82, 41
2, 8664, Note_on_c, 0, 70, 47
2, 8670, Note_on_c, 0, 68, 0
2, 8706, Note_on_c, 0, 84, 43
2, 8707, Note_on_c, 0, 72, 47
2, 8709, Note_on_c, 0, 65, 47
2, 8710, Note_on_c, 0, 60, 60
2, 8711, Note_on_c, 0, 56, 55
2, 8714, Note_on_c, 0, 82, 0
2, 8716, Note_on_c, 0, 70, 0
2, 8719, Note_on_c, 0, 53, 0
2, 8722, Note_on_c, 0, 41, 0
2, 8744, Note_on_c, 0, 65, 0
2, 8746, Note_on_c, 0, 60, 0
2, 8746, Note_on_c, 0, 56, 0
2, 8751, Note_on_c, 0, 80, 47
2, 8754, Note_on_c, 0, 68, 46
2, 8759, Note_on_c, 0, 84, 0
2, 8762, Note_on_c, 0, 72, 0
2, 8797, Note_on_c, 0, 82, 47
2, 8800, Note_on_c, 0, 70, 46
2, 8802, Note_on_c, 0, 60, 60
2, 8803, Note_on_c, 0, 48, 59
2, 8806, Note_on_c, 0, 80, 0
2, 8808, Note_on_c, 0, 68, 0
2, 8843, Note_on_c, 0, 84, 44
2, 8844, Note_on_c, 0, 72, 46
2, 8850, Note_on_c, 0, 82, 0
2, 8852, Note_on_c, 0, 70, 0
2, 8854, Note_on_c, 0, 60, 0
2, 8884, Note_on_c, 0, 80, 44
2, 8887, Note_on_c, 0, 68, 48
2, 8888, Note_on_c, 0, 65, 47
2, 8890, Note_on_c, 0, 48, 0
2, 8890, Note_on_c, 0, 56, 60
2, 8890, Note_on_c, 0, 60, 57
2, 8893, Note_on_c, 0, 84, 0
2, 8895, Note_on_c, 0, 72, 0
2, 8921, Note_on_c, 0, 68, 0
2, 8922, Note_on_c, 0, 65, 0
2, 8923, Note_on_c, 0, 60, 0
2, 8924, Note_on_c, 0, 56, 0
2, 8930, Note_on_c, 0, 82, 45
2, 8930, Note_on_c, 0, 70, 47
2, 8936, Note_on_c, 0, 80, 0
2, 8972, Note_on_c, 0, 84, 47
2, 8974, Note_on_c, 0, 72, 48
2, 8978, Note_on_c, 0, 53, 53
2, 8978, Note_on_c, 0, 41, 59
2, 8980, Note_on_c, 0, 82, 0
2, 8981, Note_on_c, 0, 70, 0
2, 9015, Note_on_c, 0, 84, 0
2, 9016, Note_on_c, 0, 80, 48
2, 9019, Note_on_c, 0, 68, 48
2, 9026, Note_on_c, 0, 72, 0
2, 9062, Note_on_c, 0, 68, 0
2, 9062, Note_on_c, 0, 82, 43
2, 9064, Note_on_c, 0, 65, 42
2, 9065, Note_on_c, 0, 70, 42
2, 9066, Note_on_c, 0, 53, 0
2, 9066, Note_on_c, 0, 60, 57
2, 9067, Note_on_c, 0, 56, 57
2, 9068, Note_on_c, 0, 41, 0
2, 9070, Note_on_c, 0, 80, 0
2, 9090, Note_on_c, 0, 70, 0
2, 9092, Note_on_c, 0, 60, 0
2, 9092, Note_on_c, 0, 56, 0
2, 9099, Note_on_c, 0, 65, 0
2, 9106, Note_on_c, 0, 84, 47
2, 9108, Note_on_c, 0, 72, 43
2, 9113, Note_on_c, 0, 82, 0
2, 9147, Note_on_c, 0, 48, 56
2, 9194, Note_on_c, 0, 82, 47
2, 9197, Note_on_c, 0, 70, 47
2, 9202, Note_on_c, 0, 84, 0
2, 9205, Note_on_c, 0, 72, 0
2, 9242, Note_on_c, 0, 65, 45
2, 9242, Note_on_c, 0, 68, 46
2, 9243, Note_on_c, 0, 56, 57
2, 9243, Note_on_c, 0, 60, 53
2, 9246, Note_on_c, 0, 80, 47
2, 9247, Note_on_c, 0, 82, 0
2, 9249, Note_on_c, 0, 70, 0
2, 9254, Note_on_c, 0, 48, 0
2, 9259, Note_on_c, 0, 65, 0
2, 9276, Note_on_c, 0, 60, 0
2, 9277, Note_on_c, 0, 56, 0
2, 9283, Note_on_c, 0, 77, 41
2, 9286, Note_on_c, 0, 65, 48
2, 9290, Note_on_c, 0, 80, 0
2, 9292, Note_on_c, 0, 68, 0
2, 9329, Note_on_c, 0, 75, 47
2, 9332, Note_on_c, 0, 63, 53
2, 9333, Note_on_c, 0, 58, 54
2, 9335, Note_on_c, 0, 46, 58
2, 9337, Note_on_c, 0, 77, 0
2, 9338, Note_on_c, 0, 65, 0
2, 9359, Note_on_c, 0, 58, 0
2, 9367, Note_on_c, 0, 63, 0
2, 9374, Note_on_c, 0, 77, 45
2, 9377, Note_on_c, 0, 65, 45
2, 9383, Note_on_c, 0, 75, 0
2, 9421, Note_on_c, 0, 79, 41
2, 9422, Note_on_c, 0, 67, 48
2, 9424, Note_on_c, 0, 61, 56
2, 9425, Note_on_c, 0, 51, 55
2, 9426, Note_on_c, 0, 55, 53
2, 9430, Note_on_c, 0, 77, 0
2, 9432, Note_on_c, 0, 65, 0
2, 9435, Note_on_c, 0, 46, 0
2, 9460, Note_on_c, 0, 61, 0
2, 9461, Note_on_c, 0, 55, 0
2, 9462, Note_on_c, 0, 51, 0
2, 9468, Note_on_c, 0, 75, 41
2, 9471, Note_on_c, 0, 63, 59
2, 9476, Note_on_c, 0, 79, 0
2, 9496, Note_on_c, 0, 67, 0
2, 9512, Note_on_c, 0, 77, 44
2, 9514, Note_on_c, 0, 65, 42
2, 9517, Note_on_c, 0, 51, 58
2, 9520, Note_on_c, 0, 39, 54
2, 9521, Note_on_c, 0, 75, 0
2, 9524, Note_on_c, 0, 63, 0
2, 9571, Note_on_c, 0, 51, 0
2, 9602, Note_on_c, 0, 79, 46
2, 9604, Note_on_c, 0, 67, 41
2, 9605, Note_on_c, 0, 63, 56
2, 9606, Note_on_c, 0, 61, 59
2, 9607, Note_on_c, 0, 55, 57
2, 9610, Note_on_c, 0, 77, 0
2, 9613, Note_on_c, 0, 65, 0
2, 9618, Note_on_c, 0, 39, 0
2, 9623, Note_on_c, 0, 63, 0
2, 9640, Note_on_c, 0, 67, 0
2, 9641, Note_on_c, 0, 61, 0
2, 9642, Note_on_c, 0, 55, 0
2, 9648, Note_on_c, 0, 75, 46
2, 9651, Note_on_c, 0, 63, 54
2, 9655, Note_on_c, 0, 79, 0
2, 9694, Note_on_c, 0, 77, 43
2, 9697, Note_on_c, 0, 65, 47
2, 9698, Note_on_c, 0, 58, 54
2, 9700, Note_on_c, 0, 46, 56
2, 9703, Note_on_c, 0, 75, 0
2, 9706, Note_on_c, 0, 63, 0
2, 9742, Note_on_c, 0, 79, 47
2, 9744, Note_on_c, 0, 67, 43
2, 9749, Note_on_c, 0, 77, 0
2, 9751, Note_on_c, 0, 65, 0
2, 9780, Note_on_c, 0, 63, 53
2, 9781, Note_on_c, 0, 55, 58
2, 9781, Note_on_c, 0, 61, 60
2, 9789, Note_on_c, 0, 58, 0
2, 9791, Note_on_c, 0, 46, 0
2, 9796, Note_on_c, 0, 63, 0
2, 9814, Note_on_c, 0, 61, 0
2, 9823, Note_on_c, 0, 55, 0
2, 9829, Note_on_c, 0, 67, 0
2, 9829, Note_on_c, 0, 75, 46
2, 9831, Note_on_c, 0, 63, 54
2, 9836, Note_on_c, 0, 79, 0
2, 9870, Note_on_c, 0, 39, 60
2, 9871, Note_on_c, 0, 75, 0
2, 9871, Note_on_c, 0, 77, 48
2, 9874, Note_on_c, 0, 65, 42
2, 9877, Note_on_c, 0, 51, 54
2, 9882, Note_on_c, 0, 63, 0
2, 9961, Note_on_c, 0, 61, 53
2, 9962, Note_on_c, 0, 55, 55
2, 9965, Note_on_c, 0, 77, 0
2, 9968, Note_on_c, 0, 65, 0
2, 9971, Note_on_c, 0, 51, 0
2, 9974, Note_on_c, 0, 39, 0
2, 9986, Note_on_c, 0, 75, 41
2, 9988, Note_on_c, 0, 63, 59
2, 9996, Note_on_c, 0, 61, 0
2, 9997, Note_on_c, 0, 55, 0
2, 10002, Note_on_c, 0, 77, 41
2, 10006, Note_on_c, 0, 65, 45
2, 10010, Note_on_c, 0, 75, 0
2, 10013, Note_on_c, 0, 63, 0
2, 10029, Note_on_c, 0, 79, 44
2, 10032, Note_on_c, 0, 67, 48
2, 10036, Note_on_c, 0, 44, 54
2, 10037, Note_on_c, 0, 77, 0
2, 10040, Note_on_c, 0, 65, 0
2, 10046, Note_on_c, 0, 80, 42
2, 10049, Note_on_c, 0, 68, 43
2, 10053, Note_on_c, 0, 56, 53
2, 10055, Note_on_c, 0, 79, 0
2, 10058, Note_on_c, 0, 67, 0
2, 10090, Note_on_c, 0, 79, 46
2, 10092, Note_on_c, 0, 67, 44
2, 10097, Note_on_c, 0, 80, 0
2, 10099, Note_on_c, 0, 68, 0
2, 10103, Note_on_c, 0, 56, 0
2, 10130, Note_on_c, 0, 79, 0
2, 10130, Note_on_c, 0, 80, 46
2, 10132, Note_on_c, 0, 67, 0
2, 10133, Note_on_c, 0, 68, 44
2, 10134, Note_on_c, 0, 63, 54
2, 10135, Note_on_c, 0, 60, 54
2, 10136, Note_on_c, 0, 56, 53
2, 10137, Note_on_c, 0, 44, 0
2, 10164, Note_on_c, 0, 68, 0
2, 10165, Note_on_c, 0, 63, 0
2, 10166, Note_on_c, 0, 60, 0
2, 10167, Note_on_c, 0, 56, 0
2, 10172, Note_on_c, 0, 77, 46
2, 10174, Note_on_c, 0, 65, 44
2, 10178, Note_on_c, 0, 80, 0
2, 10217, Note_on_c, 0, 46, 55
2, 10251, Note_on_c, 0, 79, 42
2, 10253, Note_on_c, 0, 67, 48
2, 10260, Note_on_c, 0, 77, 0
2, 10261, Note_on_c, 0, 65, 0
2, 10293, Note_on_c, 0, 80, 45
2, 10295, Note_on_c, 0, 68, 43
2, 10298, Note_on_c, 0, 58, 60
2, 10298, Note_on_c, 0, 62, 55
2, 10298, Note_on_c, 0, 56, 55
2, 10301, Note_on_c, 0, 79, 0
2, 10304, Note_on_c, 0, 67, 0
2, 10307, Note_on_c, 0, 46, 0
2, 10322, Note_on_c, 0, 62, 0
2, 10323, Note_on_c, 0, 56, 0
2, 10323, Note_on_c, 0, 58, 0
2, 10378, Note_on_c, 0, 43, 60
2, 10382, Note_on_c, 0, 68, 0
2, 10382, Note_on_c, 0, 82, 43
2, 10384, Note_on_c, 0, 70, 45
2, 10386, Note_on_c, 0, 55, 59
2, 10391, Note_on_c, 0, 80, 0
2, 10426, Note_on_c, 0, 81, 47
2, 10427, Note_on_c, 0, 69, 44
2, 10433, Note_on_c, 0, 82, 0
2, 10435, Note_on_c, 0, 70, 0
2, 10437, Note_on_c, 0, 55, 0
2, 10467, Note_on_c, 0, 82, 47
2, 10469, Note_on_c, 0, 70, 48
2, 10470, Note_on_c, 0, 61, 53
2, 10471, Note_on_c, 0, 51, 58
2, 10471, Note_on_c, 0, 55, 60
2, 10475, Note_on_c, 0, 81, 0
2, 10476, Note_on_c, 0, 69, 0
2, 10481, Note_on_c, 0, 43, 0
2, 10494, Note_on_c, 0, 61, 0
2, 10503, Note_on_c, 0, 55, 0
2, 10504, Note_on_c, 0, 51, 0
2, 10509, Note_on_c, 0, 87, 46
2, 10511, Note_on_c, 0, 75, 42
2, 10512, Note_on_c, 0, 67, 41
2, 10516, Note_on_c, 0, 82, 0
2, 10518, Note_on_c, 0, 70, 0
2, 10556, Note_on_c, 0, 51, 58
2, 10557, Note_on_c, 0, 39, 53
2, 10593, Note_on_c, 0, 85, 41
2, 10601, Note_on_c, 0, 87, 0
2, 10620, Note_on_c, 0, 75, 0
2, 10638, Note_on_c, 0, 82, 48
2, 10641, Note_on_c, 0, 51, 0
2, 10641, Note_on_c, 0, 63, 54
2, 10642, Note_on_c, 0, 55, 55
2, 10642, Note_on_c, 0, 61, 59
2, 10644, Note_on_c, 0, 39, 0
2, 10646, Note_on_c, 0, 85, 0
2, 10676, Note_on_c, 0, 63, 0
2, 10677, Note_on_c, 0, 55, 0
2, 10677, Note_on_c, 0, 61, 0
2, 10684, Note_on_c, 0, 79, 44
2, 10691, Note_on_c, 0, 82, 0
2, 10726, Note_on_c, 0, 87, 42
2, 10729, Note_on_c, 0, 75, 48
2, 10731, Note_on_c, 0, 56, 55
2, 10732, Note_on_c, 0, 44, 53
2, 10735, Note_on_c, 0, 79, 0
2, 10737, Note_on_c, 0, 67, 0
2, 10769, Note_on_c, 0, 89, 44
2, 10771, Note_on_c, 0, 77, 46
2, 10777, Note_on_c, 0, 87, 0
2, 10778, Note_on_c, 0, 75, 0
2, 10782, Note_on_c, 0, 56, 0
2, 10810, Note_on_c, 0, 92, 41
2, 10813, Note_on_c, 0, 80, 42
2, 10816, Note_on_c, 0, 63, 54
2, 10818, Note_on_c, 0, 56, 60
2, 10818, Note_on_c, 0, 60, 54
2, 10820, Note_on_c, 0, 89, 0
2, 10823, Note_on_c, 0, 77, 0
2, 10827, Note_on_c, 0, 44, 0
2, 10851, Note_on_c, 0, 60, 0
2, 10851, Note_on_c, 0, 63, 0
2, 10852, Note_on_c, 0, 56, 0
2, 10858, Note_on_c, 0, 87, 44
2, 10860, Note_on_c, 0, 75, 42
2, 10865, Note_on_c, 0, 92, 0
2, 10867, Note_on_c, 0, 80, 0
2, 10903, Note_on_c, 0, 89, 43
2, 10905, Note_on_c, 0, 77, 47
2, 10909, Note_on_c, 0, 51, 58
2, 10911, Note_on_c, 0, 39, 56
2, 10912, Note_on_c, 0, 87, 0
2, 10915, Note_on_c, 0, 75, 0
2, 10947, Note_on_c, 0, 92, 41
2, 10950, Note_on_c, 0, 80, 43
2, 10956, Note_on_c, 0, 89, 0
2, 10959, Note_on_c, 0, 77, 0
2, 10992, Note_on_c, 0, 92, 0
2, 10995, Note_on_c, 0, 87, 41
2, 10997, Note_on_c, 0, 68, 46
2, 10997, Note_on_c, 0, 75, 43
2, 10999, Note_on_c, 0, 63, 60
2, 11000, Note_on_c, 0, 51, 0
2, 11000, Note_on_c, 0, 60, 57
2, 11001, Note_on_c, 0, 39, 0
2, 11004, Note_on_c, 0, 80, 0
2, 11023, Note_on_c, 0, 68, 0
2, 11026, Note_on_c, 0, 60, 0
2, 11031, Note_on_c, 0, 89, 47
2, 11035, Note_on_c, 0, 63, 0
2, 11040, Note_on_c, 0, 87, 0
2, 11042, Note_on_c, 0, 75, 0
2, 11042, Note_on_c, 0, 77, 47
2, 11082, Note_on_c, 0, 56, 56
2, 11083, Note_on_c, 0, 44, 60
2, 11084, Note_on_c, 0, 89, 0
2, 11085, Note_on_c, 0, 92, 46
2, 11087, Note_on_c, 0, 77, 0
2, 11087, Note_on_c, 0, 80, 46
2, 11128, Note_on_c, 0, 87, 44
2, 11131, Note_on_c, 0, 75, 48
2, 11133, Note_on_c, 0, 56, 0
2, 11135, Note_on_c, 0, 92, 0
2, 11138, Note_on_c, 0, 80, 0
2, 11170, Note_on_c, 0, 87, 0
2, 11171, Note_on_c, 0, 89, 47
2, 11173, Note_on_c, 0, 77, 46
2, 11177, Note_on_c, 0, 51, 56
2, 11177, Note_on_c, 0, 60, 53
2, 11178, Note_on_c, 0, 56, 57
2, 11179, Note_on_c, 0, 44, 0
2, 11182, Note_on_c, 0, 75, 0
2, 11211, Note_on_c, 0, 60, 0
2, 11212, Note_on_c, 0, 51, 0
2, 11212, Note_on_c, 0, 56, 0
2, 11214, Note_on_c, 0, 92, 45
2, 11218, Note_on_c, 0, 80, 45
2, 11224, Note_on_c, 0, 89, 0
2, 11227, Note_on_c, 0, 77, 0
2, 11268, Note_on_c, 0, 51, 54
2, 11270, Note_on_c, 0, 39, 54
2, 11308, Note_on_c, 0, 77, 46
2, 11312, Note_on_c, 0, 51, 0
2, 11314, Note_on_c, 0, 92, 0
2, 11316, Note_on_c, 0, 80, 0
2, 11354, Note_on_c, 0, 75, 47
2, 11356, Note_on_c, 0, 63, 56
2, 11357, Note_on_c, 0, 56, 57
2, 11357, Note_on_c, 0, 60, 55
2, 11362, Note_on_c, 0, 77, 0
2, 11369, Note_on_c, 0, 39, 0
2, 11390, Note_on_c, 0, 63, 0
2, 11391, Note_on_c, 0, 60, 0
2, 11392, Note_on_c, 0, 56, 0
2, 11398, Note_on_c, 0, 84, 43
2, 11399, Note_on_c, 0, 72, 47
2, 11406, Note_on_c, 0, 75, 0
2, 11440, Note_on_c, 0, 80, 42
2, 11443, Note_on_c, 0, 68, 42
2, 11447, Note_on_c, 0, 41, 54
2, 11447, Note_on_c, 0, 53, 54
2, 11449, Note_on_c, 0, 84, 0
2, 11450, Note_on_c, 0, 72, 0
2, 11484, Note_on_c, 0, 82, 44
2, 11487, Note_on_c, 0, 70, 43
2, 11492, Note_on_c, 0, 80, 0
2, 11495, Note_on_c, 0, 68, 0
2, 11529, Note_on_c, 0, 72, 46
2, 11529, Note_on_c, 0, 84, 43
2, 11531, Note_on_c, 0, 65, 41
2, 11533, Note_on_c, 0, 56, 60
2, 11533, Note_on_c, 0, 60, 55
2, 11537, Note_on_c, 0, 82, 0
2, 11538, Note_on_c, 0, 70, 0
2, 11543, Note_on_c, 0, 53, 0
2, 11544, Note_on_c, 0, 41, 0
2, 11566, Note_on_c, 0, 65, 0
2, 11567, Note_on_c, 0, 60, 0
2, 11568, Note_on_c, 0, 56, 0
2, 11572, Note_on_c, 0, 84, 0
2, 11573, Note_on_c, 0, 80, 47
2, 11574, Note_on_c, 0, 72, 0
2, 11576, Note_on_c, 0, 68, 42
2, 11615, Note_on_c, 0, 48, 54
2, 11619, Note_on_c, 0, 82, 42
2, 11621, Note_on_c, 0, 70, 48
2, 11623, Note_on_c, 0, 60, 53
2, 11627, Note_on_c, 0, 80, 0
2, 11629, Note_on_c, 0, 68, 0
2, 11664, Note_on_c, 0, 84, 43
2, 11666, Note_on_c, 0, 70, 0
2, 11666, Note_on_c, 0, 72, 42
2, 11667, Note_on_c, 0, 60, 0
2, 11673, Note_on_c, 0, 82, 0
2, 11709, Note_on_c, 0, 80, 48
2, 11712, Note_on_c, 0, 65, 41
2, 11712, Note_on_c, 0, 68, 47
2, 11714, Note_on_c, 0, 56, 53
2, 11714, Note_on_c, 0, 60, 58
2, 11716, Note_on_c, 0, 84, 0
2, 11719, Note_on_c, 0, 72, 0
2, 11724, Note_on_c, 0, 48, 0
2, 11745, Note_on_c, 0, 68, 0
2, 11746, Note_on_c, 0, 65, 0
2, 11747, Note_on_c, 0, 60, 0
2, 11748, Note_on_c, 0, 56, 0
2, 11754, Note_on_c, 0, 82, 41
2, 11756, Note_on_c, 0, 70, 43
2, 11762, Note_on_c, 0, 80, 0
2, 11797, Note_on_c, 0, 84, 42
2, 11799, Note_on_c, 0, 72, 48
2, 11803, Note_on_c, 0, 53, 54
2, 11804, Note_on_c, 0, 41, 56
2, 11806, Note_on_c, 0, 82, 0
2, 11807, Note_on_c, 0, 70, 0
2, 11842, Note_on_c, 0, 80, 48
2, 11844, Note_on_c, 0, 68, 44
2, 11850, Note_on_c, 0, 84, 0
2, 11853, Note_on_c, 0, 72, 0
2, 11886, Note_on_c, 0, 82, 42
2, 11890, Note_on_c, 0, 65, 42
2, 11890, Note_on_c, 0, 70, 46
2, 11892, Note_on_c, 0, 53, 0
2, 11892, Note_on_c, 0, 60, 59
2, 11893, Note_on_c, 0, 56, 57
2, 11894, Note_on_c, 0, 41, 0
2, 11896, Note_on_c, 0, 80, 0
2, 11898, Note_on_c, 0, 68, 0
2, 11926, Note_on_c, 0, 65, 0
2, 11928, Note_on_c, 0, 60, 0
2, 11929, Note_on_c, 0, 56, 0
2, 11934, Note_on_c, 0, 84, 42
2, 11936, Note_on_c, 0, 72, 48
2, 11942, Note_on_c, 0, 82, 0
2, 11944, Note_on_c, 0, 70, 0
2, 11983, Note_on_c, 0, 60, 53
2, 11984, Note_on_c, 0, 48, 56
2, 12023, Note_on_c, 0, 82, 41
2, 12025, Note_on_c, 0, 70, 46
2, 12030, Note_on_c, 0, 84, 0
2, 12032, Note_on_c, 0, 72, 0
2, 12035, Note_on_c, 0, 60, 0
2, 12070, Note_on_c, 0, 65, 45
2, 12070, Note_on_c, 0, 68, 45
2, 12073, Note_on_c, 0, 56, 59
2, 12073, Note_on_c, 0, 60, 55
2, 12075, Note_on_c, 0, 82, 0
2, 12076, Note_on_c, 0, 80, 45
2, 12077, Note_on_c, 0, 70, 0
2, 12081, Note_on_c, 0, 48, 0
2, 12087, Note_on_c, 0, 65, 0
2, 12105, Note_on_c, 0, 60, 0
2, 12106, Note_on_c, 0, 56, 0
2, 12112, Note_on_c, 0, 77, 46
2, 12116, Note_on_c, 0, 65, 48
2, 12121, Note_on_c, 0, 80, 0
2, 12122, Note_on_c, 0, 68, 0
2, 12160, Note_on_c, 0, 75, 42
2, 12163, Note_on_c, 0, 63, 55
2, 12164, Note_on_c, 0, 58, 58
2, 12166, Note_on_c, 0, 46, 55
2, 12168, Note_on_c, 0, 77, 0
2, 12170, Note_on_c, 0, 65, 0
2, 12206, Note_on_c, 0, 77, 47
2, 12210, Note_on_c, 0, 65, 48
2, 12216, Note_on_c, 0, 75, 0
2, 12218, Note_on_c, 0, 63, 0
2, 12254, Note_on_c, 0, 79, 41
2, 12256, Note_on_c, 0, 67, 47
2, 12258, Note_on_c, 0, 55, 58
2, 12258, Note_on_c, 0, 61, 60
2, 12259, Note_on_c, 0, 51, 56
2, 12263, Note_on_c, 0, 77, 0
2, 12267, Note_on_c, 0, 58, 0
2, 12268, Note_on_c, 0, 65, 0
2, 12268, Note_on_c, 0, 46, 0
2, 12285, Note_on_c, 0, 61, 0
2, 12287, Note_on_c, 0, 51, 0
2, 12294, Note_on_c, 0, 55, 0
2, 12300, Note_on_c, 0, 75, 46
2, 12303, Note_on_c, 0, 63, 53
2, 12308, Note_on_c, 0, 79, 0
2, 12311, Note_on_c, 0, 67, 0
2, 12345, Note_on_c, 0, 77, 47
2, 12348, Note_on_c, 0, 65, 42
2, 12350, Note_on_c, 0, 51, 59
2, 12353, Note_on_c, 0, 39, 60
2, 12355, Note_on_c, 0, 75, 0
2, 12358, Note_on_c, 0, 63, 0
2, 12393, Note_on_c, 0, 51, 0
2, 12432, Note_on_c, 0, 79, 43
2, 12434, Note_on_c, 0, 67, 41
2, 12435, Note_on_c, 0, 61, 55
2, 12436, Note_on_c, 0, 55, 54
2, 12440, Note_on_c, 0, 77, 0
2, 12442, Note_on_c, 0, 65, 0
2, 12448, Note_on_c, 0, 39, 0
2, 12461, Note_on_c, 0, 61, 0
2, 12471, Note_on_c, 0, 55, 0
2, 12478, Note_on_c, 0, 67, 0
2, 12478, Note_on_c, 0, 75, 44
2, 12480, Note_on_c, 0, 63, 57
2, 12484, Note_on_c, 0, 79, 0
2, 12521, Note_on_c, 0, 77, 48
2, 12524, Note_on_c, 0, 65, 41
2, 12526, Note_on_c, 0, 58, 57
2, 12527, Note_on_c, 0, 46, 53
2, 12530, Note_on_c, 0, 75, 0
2, 12532, Note_on_c, 0, 63, 0
2, 12565, Note_on_c, 0, 79, 44
2, 12567, Note_on_c, 0, 67, 44
2, 12569, Note_on_c, 0, 61, 60
2, 12574, Note_on_c, 0, 77, 0
2, 12576, Note_on_c, 0, 65, 0
2, 12578, Note_on_c, 0, 58, 0
2, 12613, Note_on_c, 0, 55, 60
2, 12614, Note_on_c, 0, 51, 59
2, 12620, Note_on_c, 0, 61, 0
2, 12623, Note_on_c, 0, 46, 0
2, 12647, Note_on_c, 0, 55, 0
2, 12648, Note_on_c, 0, 51, 0
2, 12652, Note_on_c, 0, 75, 48
2, 12655, Note_on_c, 0, 63, 56
2, 12659, Note_on_c, 0, 79, 0
2, 12663, Note_on_c, 0, 67, 0
2, 12694, Note_on_c, 0, 77, 48
2, 12697, Note_on_c, 0, 65, 47
2, 12699, Note_on_c, 0, 51, 55
2, 12700, Note_on_c, 0, 39, 54
2, 12703, Note_on_c, 0, 75, 0
2, 12705, Note_on_c, 0, 63, 0
2, 12746, Note_on_c, 0, 51, 0
2, 12779, Note_on_c, 0, 61, 60
2, 12780, Note_on_c, 0, 55, 54
2, 12784, Note_on_c, 0, 77, 0
2, 12786, Note_on_c, 0, 65, 0
2, 12790, Note_on_c, 0, 39, 0
2, 12803, Note_on_c, 0, 75, 41
2, 12805, Note_on_c, 0, 63, 56
2, 12819, Note_on_c, 0, 77, 44
2, 12821, Note_on_c, 0, 65, 41
2, 12822, Note_on_c, 0, 55, 0
2, 12823, Note_on_c, 0, 61, 0
2, 12836, Note_on_c, 0, 75, 0
2, 12839, Note_on_c, 0, 63, 0
2, 12844, Note_on_c, 0, 79, 48
2, 12846, Note_on_c, 0, 67, 45
2, 12852, Note_on_c, 0, 77, 0
2, 12854, Note_on_c, 0, 65, 0
2, 12861, Note_on_c, 0, 80, 46
2, 12864, Note_on_c, 0, 68, 44
2, 12866, Note_on_c, 0, 56, 57
2, 12866, Note_on_c, 0, 44, 54
2, 12879, Note_on_c, 0, 79, 0
2, 12880, Note_on_c, 0, 67, 0
2, 12888, Note_on_c, 0, 68, 0
2, 12894, Note_on_c, 0, 80, 0
2, 12898, Note_on_c, 0, 56, 0
2, 12905, Note_on_c, 0, 82, 48
2, 12907, Note_on_c, 0, 70, 43
2, 12945, Note_on_c, 0, 82, 0
2, 12946, Note_on_c, 0, 70, 0
2, 12946, Note_on_c, 0, 84, 46
2, 12948, Note_on_c, 0, 72, 46
2, 12949, Note_on_c, 0, 51, 59
2, 12950, Note_on_c, 0, 44, 0
2, 12950, Note_on_c, 0, 56, 58
2, 12950, Note_on_c, 0, 60, 55
2, 12982, Note_on_c, 0, 60, 0
2, 12982, Note_on_c, 0, 56, 0
2, 12983, Note_on_c, 0, 51, 0
2, 12987, Note_on_c, 0, 87, 41
2, 12989, Note_on_c, 0, 75, 48
2, 12996, Note_on_c, 0, 84, 0
2, 12997, Note_on_c, 0, 72, 0
2, 13032, Note_on_c, 0, 84, 45
2, 13033, Note_on_c, 0, 72, 42
2, 13035, Note_on_c, 0, 51, 59
2, 13036, Note_on_c, 0, 39, 54
2, 13038, Note_on_c, 0, 87, 0
2, 13040, Note_on_c, 0, 75, 0
2, 13075, Note_on_c, 0, 87, 44
2, 13076, Note_on_c, 0, 75, 43
2, 13082, Note_on_c, 0, 84, 0
2, 13084, Note_on_c, 0, 72, 0
2, 13087, Note_on_c, 0, 51, 0
2, 13120, Note_on_c, 0, 82, 46
2, 13121, Note_on_c, 0, 70, 41
2, 13123, Note_on_c, 0, 51, 55
2, 13123, Note_on_c, 0, 55, 56
2, 13123, Note_on_c, 0, 61, 57
2, 13127, Note_on_c, 0, 87, 0
2, 13129, Note_on_c, 0, 75, 0
2, 13132, Note_on_c, 0, 39, 0
2, 13157, Note_on_c, 0, 61, 0
2, 13157, Note_on_c, 0, 55, 0
2, 13158, Note_on_c, 0, 51, 0
2, 13209, Note_on_c, 0, 80, 48
2, 13211, Note_on_c, 0, 68, 44
2, 13213, Note_on_c, 0, 56, 55
2, 13214, Note_on_c, 0, 44, 59
2, 13218, Note_on_c, 0, 82, 0
2, 13220, Note_on_c, 0, 70, 0
2, 13301, Note_on_c, 0, 67, 46
2, 13303, Note_on_c, 0, 55, 54
2, 13304, Note_on_c, 0, 43, 55
2, 13308, Note_on_c, 0, 80, 0
2, 13310, Note_on_c, 0, 68, 0
2, 13312, Note_on_c, 0, 56, 0
2, 13314, Note_on_c, 0, 44, 0
2, 13389, Note_on_c, 0, 67, 0
2, 13391, Note_on_c, 0, 55, 0
2, 13391, Note_on_c, 0, 65, 46
2, 13393, Note_on_c, 0, 43, 0
2, 13393, Note_on_c, 0, 41, 59
2, 13393, Note_on_c, 0, 53, 55
2, 13482, Note_on_c, 0, 52, 59
2, 13482, Note_on_c, 0, 64, 57
2, 13483, Note_on_c, 0, 40, 55
2, 13489, Note_on_c, 0, 65, 0
2, 13490, Note_on_c, 0, 53, 0
2, 13492, Note_on_c, 0, 41, 0
2, 13566, Note_on_c, 0, 39, 56
2, 13572, Note_on_c, 0, 64, 0
2, 13573, Note_on_c, 0, 52, 0
2, 13574, Note_on_c, 0, 40, 0
2, 13574, Note_on_c, 0, 51, 57
2, 13654, Note_on_c, 0, 52, 53
2, 13655, Note_on_c, 0, 39, 0
2, 13655, Note_on_c, 0, 40, 60
2, 13662, Note_on_c, 0, 51, 0
2, 13705, Note_on_c, 0, 52, 0
2, 13706, Note_on_c, 0, 40, 0
2, 13706, Note_on_c, 0, 41, 56
2, 13706, Note_on_c, 0, 53, 59
2, 13796, Note_on_c, 0, 42, 56
2, 13796, Note_on_c, 0, 54, 56
2, 13803, Note_on_c, 0, 53, 0
2, 13804, Note_on_c, 0, 41, 0
2, 13841, Note_on_c, 0, 55, 58
2, 13842, Note_on_c, 0, 43, 56
2, 13849, Note_on_c, 0, 54, 0
2, 13850, Note_on_c, 0, 42, 0
2, 13926, Note_on_c, 0, 68, 42
2, 13930, Note_on_c, 0, 44, 53
2, 13930, Note_on_c, 0, 56, 55
2, 13937, Note_on_c, 0, 55, 0
2, 13938, Note_on_c, 0, 43, 0
2, 13971, Note_on_c, 0, 56, 0
2, 14013, Note_on_c, 0, 68, 0
2, 14013, Note_on_c, 0, 77, 43
2, 14017, Note_on_c, 0, 51, 54
2, 14017, Note_on_c, 0, 56, 56
2, 14017, Note_on_c, 0, 60, 56
2, 14018, Note_on_c, 0, 44, 0
2, 14042, Note_on_c, 0, 51, 0
2, 14048, Note_on_c, 0, 77, 0
2, 14051, Note_on_c, 0, 60, 0
2, 14051, Note_on_c, 0, 56, 0
2, 14058, Note_on_c, 0, 75, 43
2, 14059, Note_on_c, 0, 68, 43
2, 14059, Note_on_c, 0, 72, 42
2, 14099, Note_on_c, 0, 39, 58
2, 14106, Note_on_c, 0, 51, 57
2, 14119, Note_on_c, 0, 68, 0
2, 14128, Note_on_c, 0, 75, 0
2, 14129, Note_on_c, 0, 72, 0
2, 14141, Note_on_c, 0, 51, 0
2, 14147, Note_on_c, 0, 77, 42
2, 14183, Note_on_c, 0, 77, 0
2, 14189, Note_on_c, 0, 39, 0
2, 14194, Note_on_c, 0, 68, 44
2, 14194, Note_on_c, 0, 72, 44
2, 14194, Note_on_c, 0, 75, 43
2, 14197, Note_on_c, 0, 51, 53
2, 14197, Note_on_c, 0, 56, 60
2, 14197, Note_on_c, 0, 60, 57
2, 14223, Note_on_c, 0, 51, 0
2, 14231, Note_on_c, 0, 60, 0
2, 14232, Note_on_c, 0, 56, 0
2, 14282, Note_on_c, 0, 67, 47
2, 14284, Note_on_c, 0, 58, 58
2, 14285, Note_on_c, 0, 46, 60
2, 14289, Note_on_c, 0, 68, 0
2, 14289, Note_on_c, 0, 75, 0
2, 14289, Note_on_c, 0, 72, 0
2, 14368, Note_on_c, 0, 77, 41
2, 14372, Note_on_c, 0, 55, 54
2, 14372, Note_on_c, 0, 61, 56
2, 14373, Note_on_c, 0, 51, 59
2, 14378, Note_on_c, 0, 67, 0
2, 14379, Note_on_c, 0, 58, 0
2, 14381, Note_on_c, 0, 46, 0
2, 14398, Note_on_c, 0, 61, 0
2, 14408, Note_on_c, 0, 55, 0
2, 14409, Note_on_c, 0, 51, 0
2, 14415, Note_on_c, 0, 75, 47
2, 14416, Note_on_c, 0, 73, 42
2, 14417, Note_on_c, 0, 67, 45
2, 14423, Note_on_c, 0, 77, 0
2, 14464, Note_on_c, 0, 51, 60
2, 14466, Note_on_c, 0, 39, 57
2, 14496, Note_on_c, 0, 75, 0
2, 14498, Note_on_c, 0, 67, 0
2, 14505, Note_on_c, 0, 77, 44
2, 14506, Note_on_c, 0, 73, 0
2, 14518, Note_on_c, 0, 51, 0
2, 14541, Note_on_c, 0, 77, 0
2, 14551, Note_on_c, 0, 67, 48
2, 14551, Note_on_c, 0, 73, 42
2, 14551, Note_on_c, 0, 75, 48
2, 14553, Note_on_c, 0, 63, 60
2, 14554, Note_on_c, 0, 61, 56
2, 14555, Note_on_c, 0, 55, 60
2, 14565, Note_on_c, 0, 39, 0
2, 14586, Note_on_c, 0, 63, 0
2, 14587, Note_on_c, 0, 61, 0
2, 14588, Note_on_c, 0, 55, 0
2, 14638, Note_on_c, 0, 68, 44
2, 14641, Note_on_c, 0, 56, 58
2, 14642, Note_on_c, 0, 44, 58
2, 14644, Note_on_c, 0, 75, 0
2, 14645, Note_on_c, 0, 73, 0
2, 14646, Note_on_c, 0, 67, 0
2, 14684, Note_on_c, 0, 56, 0
2, 14725, Note_on_c, 0, 77, 43
2, 14729, Note_on_c, 0, 60, 56
2, 14730, Note_on_c, 0, 51, 60
2, 14731, Note_on_c, 0, 44, 0
2, 14731, Note_on_c, 0, 56, 56
2, 14735, Note_on_c, 0, 68, 0
2, 14760, Note_on_c, 0, 77, 0
2, 14764, Note_on_c, 0, 56, 0
2, 14764, Note_on_c, 0, 60, 0
2, 14766, Note_on_c, 0, 51, 0
2, 14772, Note_on_c, 0, 72, 41
2, 14772, Note_on_c, 0, 75, 45
2, 14773, Note_on_c, 0, 68, 44
2, 14822, Note_on_c, 0, 51, 57
2, 14825, Note_on_c, 0, 39, 55
2, 14844, Note_on_c, 0, 75, 0
2, 14845, Note_on_c, 0, 72, 0
2, 14845, Note_on_c, 0, 68, 0
2, 14858, Note_on_c, 0, 51, 0
2, 14864, Note_on_c, 0, 77, 43
2, 14906, Note_on_c, 0, 39, 0
2, 14910, Note_on_c, 0, 68, 41
2, 14910, Note_on_c, 0, 72, 47
2, 14910, Note_on_c, 0, 75, 43
2, 14912, Note_on_c, 0, 63, 57
2, 14913, Note_on_c, 0, 56, 55
2, 14913, Note_on_c, 0, 60, 56
2, 14918, Note_on_c, 0, 77, 0
2, 14938, Note_on_c, 0, 56, 0
2, 14938, Note_on_c, 0, 60, 0
2, 14946, Note_on_c, 0, 63, 0
2, 15001, Note_on_c, 0, 51, 55
2, 15002, Note_on_c, 0, 39, 60
2, 15004, Note_on_c, 0, 75, 0
2, 15005, Note_on_c, 0, 68, 0
2, 15005, Note_on_c, 0, 72, 0
2, 15089, Note_on_c, 0, 52, 54
2, 15092, Note_on_c, 0, 40, 57
2, 15098, Note_on_c, 0, 51, 0
2, 15099, Note_on_c, 0, 39, 0
2, 15134, Note_on_c, 0, 53, 57
2, 15135, Note_on_c, 0, 41, 54
2, 15141, Note_on_c, 0, 52, 0
2, 15143, Note_on_c, 0, 40, 0
2, 15220, Note_on_c, 0, 54, 54
2, 15221, Note_on_c, 0, 42, 54
2, 15227, Note_on_c, 0, 53, 0
2, 15228, Note_on_c, 0, 41, 0
2, 15261, Note_on_c, 0, 55, 54
2, 15262, Note_on_c, 0, 43, 56
2, 15267, Note_on_c, 0, 54, 0
2, 15269, Note_on_c, 0, 42, 0
2, 15342, Note_on_c, 0, 68, 44
2, 15345, Note_on_c, 0, 56, 55
2, 15346, Note_on_c, 0, 44, 58
2, 15352, Note_on_c, 0, 55, 0
2, 15353, Note_on_c, 0, 43, 0
2, 15386, Note_on_c, 0, 56, 0
2, 15421, Note_on_c, 0, 60, 59
2, 15422, Note_on_c, 0, 56, 54
2, 15426, Note_on_c, 0, 77, 42
2, 15428, Note_on_c, 0, 68, 0
2, 15431, Note_on_c, 0, 51, 54
2, 15432, Note_on_c, 0, 44, 0
2, 15455, Note_on_c, 0, 60, 0
2, 15456, Note_on_c, 0, 51, 0
2, 15465, Note_on_c, 0, 56, 0
2, 15470, Note_on_c, 0, 77, 0
2, 15472, Note_on_c, 0, 72, 43
2, 15472, Note_on_c, 0, 75, 42
2, 15473, Note_on_c, 0, 68, 46
2, 15517, Note_on_c, 0, 51, 58
2, 15519, Note_on_c, 0, 39, 60
2, 15547, Note_on_c, 0, 75, 0
2, 15548, Note_on_c, 0, 72, 0
2, 15548, Note_on_c, 0, 68, 0
2, 15556, Note_on_c, 0, 77, 47
2, 15567, Note_on_c, 0, 51, 0
2, 15588, Note_on_c, 0, 77, 0
2, 15599, Note_on_c, 0, 75, 41
2, 15600, Note_on_c, 0, 68, 42
2, 15600, Note_on_c, 0, 72, 42
2, 15602, Note_on_c, 0, 51, 53
2, 15602, Note_on_c, 0, 56, 57
2, 15602, Note_on_c, 0, 60, 56
2, 15611, Note_on_c, 0, 39, 0
2, 15634, Note_on_c, 0, 60, 0
2, 15635, Note_on_c, 0, 56, 0
2, 15636, Note_on_c, 0, 51, 0
2, 15689, Note_on_c, 0, 70, 41
2, 15691, Note_on_c, 0, 41, 57
2, 15691, Note_on_c, 0, 53, 57
2, 15695, Note_on_c, 0, 75, 0
2, 15696, Note_on_c, 0, 72, 0
2, 15696, Note_on_c, 0, 68, 0
2, 15735, Note_on_c, 0, 74, 48
2, 15742, Note_on_c, 0, 70, 0
2, 15779, Note_on_c, 0, 77, 44
2, 15783, Note_on_c, 0, 58, 60
2, 15783, Note_on_c, 0, 62, 56
2, 15784, Note_on_c, 0, 56, 59
2, 15790, Note_on_c, 0, 74, 0
2, 15793, Note_on_c, 0, 53, 0
2, 15794, Note_on_c, 0, 41, 0
2, 15818, Note_on_c, 0, 62, 0
2, 15819, Note_on_c, 0, 56, 0
2, 15819, Note_on_c, 0, 58, 0
2, 15826, Note_on_c, 0, 82, 42
2, 15829, Note_on_c, 0, 70, 44
2, 15835, Note_on_c, 0, 77, 0
2, 15874, Note_on_c, 0, 58, 57
2, 15876, Note_on_c, 0, 46, 60
2, 15915, Note_on_c, 0, 82, 0
2, 15916, Note_on_c, 0, 70, 0
2, 15917, Note_on_c, 0, 74, 46
2, 15927, Note_on_c, 0, 58, 0
2, 15961, Note_on_c, 0, 80, 43
2, 15962, Note_on_c, 0, 68, 43
2, 15963, Note_on_c, 0, 58, 57
2, 15963, Note_on_c, 0, 62, 60
2, 15964, Note_on_c, 0, 56, 60
2, 15969, Note_on_c, 0, 74, 0
2, 15973, Note_on_c, 0, 46, 0
2, 15998, Note_on_c, 0, 62, 0
2, 15999, Note_on_c, 0, 58, 0
2, 15999, Note_on_c, 0, 56, 0
2, 16051, Note_on_c, 0, 79, 43
2, 16052, Note_on_c, 0, 67, 43
2, 16055, Note_on_c, 0, 51, 60
2, 16056, Note_on_c, 0, 39, 59
2, 16058, Note_on_c, 0, 80, 0
2, 16060, Note_on_c, 0, 68, 0
2, 16137, Note_on_c, 0, 39, 0
2, 16142, Note_on_c, 0, 77, 47
2, 16144, Note_on_c, 0, 65, 48
2, 16145, Note_on_c, 0, 51, 0
2, 16147, Note_on_c, 0, 41, 56
2, 16147, Note_on_c, 0, 53, 55
2, 16151, Note_on_c, 0, 79, 0
2, 16153, Note_on_c, 0, 67, 0
2, 16217, Note_on_c, 0, 55, 58
2, 16225, Note_on_c, 0, 53, 0
2, 16230, Note_on_c, 0, 75, 46
2, 16232, Note_on_c, 0, 63, 54
2, 16234, Note_on_c, 0, 43, 55
2, 16238, Note_on_c, 0, 77, 0
2, 16240, Note_on_c, 0, 65, 0
2, 16244, Note_on_c, 0, 41, 0
2, 16321, Note_on_c, 0, 55, 0
2, 16322, Note_on_c, 0, 46, 58
2, 16322, Note_on_c, 0, 58, 59
2, 16327, Note_on_c, 0, 75, 0
2, 16328, Note_on_c, 0, 63, 0
2, 16332, Note_on_c, 0, 43, 0
2, 16413, Note_on_c, 0, 51, 59
2, 16416, Note_on_c, 0, 39, 59
2, 16420, Note_on_c, 0, 58, 0
2, 16422, Note_on_c, 0, 46, 0
2, 16502, Note_on_c, 0, 52, 57
2, 16504, Note_on_c, 0, 40, 56
2, 16511, Note_on_c, 0, 51, 0
2, 16512, Note_on_c, 0, 39, 0
2, 16546, Note_on_c, 0, 53, 54
2, 16547, Note_on_c, 0, 41, 59
2, 16553, Note_on_c, 0, 52, 0
2, 16555, Note_on_c, 0, 40, 0
2, 16635, Note_on_c, 0, 54, 53
2, 16636, Note_on_c, 0, 42, 58
2, 16643, Note_on_c, 0, 53, 0
2, 16645, Note_on_c, 0, 41, 0
2, 16674, Note_on_c, 0, 43, 56
2, 16680, Note_on_c, 0, 54, 0
2, 16681, Note_on_c, 0, 55, 59
2, 16682, Note_on_c, 0, 42, 0
2, 16770, Note_on_c, 0, 68, 45
2, 16774, Note_on_c, 0, 43, 0
2, 16774, Note_on_c, 0, 56, 53
2, 16775, Note_on_c, 0, 44, 57
2, 16780, Note_on_c, 0, 55, 0
2, 16825, Note_on_c, 0, 56, 0
2, 16848, Note_on_c, 0, 68, 0
2, 16856, Note_on_c, 0, 77, 45
2, 16860, Note_on_c, 0, 60, 57
2, 16861, Note_on_c, 0, 51, 58
2, 16861, Note_on_c, 0, 56, 53
2, 16871, Note_on_c, 0, 44, 0
2, 16891, Note_on_c, 0, 77, 0
2, 16894, Note_on_c, 0, 60, 0
2, 16895, Note_on_c, 0, 56, 0
2, 16896, Note_on_c, 0, 51, 0
2, 16901, Note_on_c, 0, 72, 41
2, 16902, Note_on_c, 0, 68, 46
2, 16902, Note_on_c, 0, 75, 48
2, 16951, Note_on_c, 0, 51, 60
2, 16954, Note_on_c, 0, 39, 58
2, 16983, Note_on_c, 0, 75, 0
2, 16983, Note_on_c, 0, 68, 0
2, 16984, Note_on_c, 0, 72, 0
2, 16992, Note_on_c, 0, 77, 45
2, 17004, Note_on_c, 0, 51, 0
2, 17028, Note_on_c, 0, 77, 0
2, 17038, Note_on_c, 0, 72, 43
2, 17039, Note_on_c, 0, 68, 43
2, 17039, Note_on_c, 0, 75, 43
2, 17041, Note_on_c, 0, 60, 56
2, 17042, Note_on_c, 0, 51, 59
2, 17042, Note_on_c, 0, 56, 55
2, 17043, Note_on_c, 0, 39, 0
2, 17075, Note_on_c, 0, 60, 0
2, 17076, Note_on_c, 0, 56, 0
2, 17077, Note_on_c, 0, 51, 0
2, 17117, Note_on_c, 0, 75, 0
2, 17118, Note_on_c, 0, 68, 0
2, 17118, Note_on_c, 0, 72, 0
2, 17128, Note_on_c, 0, 67, 47
2, 17131, Note_on_c, 0, 58, 57
2, 17133, Note_on_c, 0, 46, 57
2, 17214, Note_on_c, 0, 77, 47
2, 17217, Note_on_c, 0, 61, 57
2, 17218, Note_on_c, 0, 55, 59
2, 17219, Note_on_c, 0, 51, 55
2, 17225, Note_on_c, 0, 67, 0
2, 17226, Note_on_c, 0, 58, 0
2, 17229, Note_on_c, 0, 46, 0
2, 17249, Note_on_c, 0, 77, 0
2, 17252, Note_on_c, 0, 61, 0
2, 17254, Note_on_c, 0, 55, 0
2, 17254, Note_on_c, 0, 51, 0
2, 17259, Note_on_c, 0, 73, 43
2, 17259, Note_on_c, 0, 75, 46
2, 17261, Note_on_c, 0, 67, 47
2, 17308, Note_on_c, 0, 51, 57
2, 17311, Note_on_c, 0, 39, 60
2, 17339, Note_on_c, 0, 75, 0
2, 17339, Note_on_c, 0, 73, 0
2, 17341, Note_on_c, 0, 67, 0
2, 17349, Note_on_c, 0, 77, 45
2, 17361, Note_on_c, 0, 51, 0
2, 17382, Note_on_c, 0, 77, 0
2, 17394, Note_on_c, 0, 73, 47
2, 17394, Note_on_c, 0, 75, 43
2, 17395, Note_on_c, 0, 67, 45
2, 17397, Note_on_c, 0, 61, 53
2, 17398, Note_on_c, 0, 51, 54
2, 17398, Note_on_c, 0, 55, 59
2, 17408, Note_on_c, 0, 39, 0
2, 17423, Note_on_c, 0, 61, 0
2, 17431, Note_on_c, 0, 55, 0
2, 17432, Note_on_c, 0, 51, 0
2, 17483, Note_on_c, 0, 68, 42
2, 17486, Note_on_c, 0, 56, 53
2, 17488, Note_on_c, 0, 44, 55
2, 17490, Note_on_c, 0, 73, 0
2, 17490, Note_on_c, 0, 75, 0
2, 17492, Note_on_c, 0, 67, 0
2, 17528, Note_on_c, 0, 56, 0
2, 17569, Note_on_c, 0, 77, 46
2, 17573, Note_on_c, 0, 51, 58
2, 17573, Note_on_c, 0, 56, 54
2, 17573, Note_on_c, 0, 60, 56
2, 17579, Note_on_c, 0, 68, 0
2, 17584, Note_on_c, 0, 44, 0
2, 17603, Note_on_c, 0, 77, 0
2, 17607, Note_on_c, 0, 60, 0
2, 17607, Note_on_c, 0, 72, 43
2, 17608, Note_on_c, 0, 56, 0
2, 17609, Note_on_c, 0, 51, 0
2, 17615, Note_on_c, 0, 68, 47
2, 17615, Note_on_c, 0, 75, 42
2, 17664, Note_on_c, 0, 51, 56
2, 17666, Note_on_c, 0, 39, 55
2, 17684, Note_on_c, 0, 75, 0
2, 17685, Note_on_c, 0, 72, 0
2, 17685, Note_on_c, 0, 68, 0
2, 17702, Note_on_c, 0, 77, 47
2, 17707, Note_on_c, 0, 51, 0
2, 17736, Note_on_c, 0, 77, 0
2, 17745, Note_on_c, 0, 75, 48
2, 17746, Note_on_c, 0, 72, 46
2, 17747, Note_on_c, 0, 68, 48
2, 17749, Note_on_c, 0, 56, 54
2, 17749, Note_on_c, 0, 60, 55
2, 17752, Note_on_c, 0, 39, 0
2, 17781, Note_on_c, 0, 60, 0
2, 17782, Note_on_c, 0, 56, 0
2, 17832, Note_on_c, 0, 51, 53
2, 17834, Note_on_c, 0, 39, 55
2, 17835, Note_on_c, 0, 75, 0
2, 17837, Note_on_c, 0, 68, 0
2, 17837, Note_on_c, 0, 72, 0
2, 17907, Note_on_c, 0, 52, 59
2, 17909, Note_on_c, 0, 40, 58
2, 17916, Note_on_c, 0, 51, 0
2, 17918, Note_on_c, 0, 39, 0
2, 17950, Note_on_c, 0, 53, 60
2, 17952, Note_on_c, 0, 41, 58
2, 17958, Note_on_c, 0, 52, 0
2, 17959, Note_on_c, 0, 40, 0
2, 18046, Note_on_c, 0, 42, 58
2, 18046, Note_on_c, 0, 54, 57
2, 18052, Note_on_c, 0, 53, 0
2, 18054, Note_on_c, 0, 41, 0
2, 18086, Note_on_c, 0, 55, 59
2, 18087, Note_on_c, 0, 43, 57
2, 18094, Note_on_c, 0, 54, 0
2, 18095, Note_on_c, 0, 42, 0
2, 18168, Note_on_c, 0, 68, 46
2, 18169, Note_on_c, 0, 55, 0
2, 18170, Note_on_c, 0, 56, 53
2, 18171, Note_on_c, 0, 44, 53
2, 18178, Note_on_c, 0, 43, 0
2, 18219, Note_on_c, 0, 56, 0
2, 18252, Note_on_c, 0, 77, 42
2, 18256, Note_on_c, 0, 51, 58
2, 18256, Note_on_c, 0, 56, 58
2, 18256, Note_on_c, 0, 60, 60
2, 18262, Note_on_c, 0, 68, 0
2, 18266, Note_on_c, 0, 44, 0
2, 18288, Note_on_c, 0, 77, 0
2, 18290, Note_on_c, 0, 60, 0
2, 18291, Note_on_c, 0, 56, 0
2, 18291, Note_on_c, 0, 51, 0
2, 18298, Note_on_c, 0, 72, 43
2, 18298, Note_on_c, 0, 75, 41
2, 18299, Note_on_c, 0, 68, 46
2, 18346, Note_on_c, 0, 51, 59
2, 18348, Note_on_c, 0, 39, 53
2, 18378, Note_on_c, 0, 75, 0
2, 18379, Note_on_c, 0, 68, 0
2, 18380, Note_on_c, 0, 72, 0
2, 18386, Note_on_c, 0, 77, 47
2, 18398, Note_on_c, 0, 51, 0
2, 18421, Note_on_c, 0, 77, 0
2, 18432, Note_on_c, 0, 68, 42
2, 18432, Note_on_c, 0, 72, 47
2, 18433, Note_on_c, 0, 75, 46
2, 18434, Note_on_c, 0, 56, 57
2, 18434, Note_on_c, 0, 60, 59
2, 18434, Note_on_c, 0, 63, 56
2, 18444, Note_on_c, 0, 39, 0
2, 18466, Note_on_c, 0, 60, 0
2, 18466, Note_on_c, 0, 63, 0
2, 18467, Note_on_c, 0, 56, 0
2, 18505, Note_on_c, 0, 67, 47
2, 18508, Note_on_c, 0, 75, 0
2, 18509, Note_on_c, 0, 68, 0
2, 18509, Note_on_c, 0, 72, 0
2, 18521, Note_on_c, 0, 58, 55
2, 18523, Note_on_c, 0, 46, 54
2, 18608, Note_on_c, 0, 77, 46
2, 18609, Note_on_c, 0, 67, 0
2, 18610, Note_on_c, 0, 58, 0
2, 18612, Note_on_c, 0, 46, 0
2, 18612, Note_on_c, 0, 51, 60
2, 18612, Note_on_c, 0, 55, 56
2, 18612, Note_on_c, 0, 61, 59
2, 18635, Note_on_c, 0, 77, 0
2, 18637, Note_on_c, 0, 61, 0
2, 18639, Note_on_c, 0, 51, 0
2, 18647, Note_on_c, 0, 55, 0
2, 18655, Note_on_c, 0, 67, 42
2, 18655, Note_on_c, 0, 73, 47
2, 18655, Note_on_c, 0, 75, 48
2, 18702, Note_on_c, 0, 51, 53
2, 18704, Note_on_c, 0, 39, 56
2, 18723, Note_on_c, 0, 75, 0
2, 18724, Note_on_c, 0, 73, 0
2, 18725, Note_on_c, 0, 67, 0
2, 18743, Note_on_c, 0, 77, 48
2, 18746, Note_on_c, 0, 51, 0
2, 18786, Note_on_c, 0, 77, 0
2, 18788, Note_on_c, 0, 67, 48
2, 18788, Note_on_c, 0, 73, 45
2, 18788, Note_on_c, 0, 75, 47
2, 18790, Note_on_c, 0, 63, 55
2, 18791, Note_on_c, 0, 55, 54
2, 18791, Note_on_c, 0, 61, 59
2, 18801, Note_on_c, 0, 39, 0
2, 18823, Note_on_c, 0, 63, 0
2, 18824, Note_on_c, 0, 55, 0
2, 18824, Note_on_c, 0, 61, 0
2, 18866, Note_on_c, 0, 73, 0
2, 18866, Note_on_c, 0, 75, 0
2, 18867, Note_on_c, 0, 67, 0
2, 18876, Note_on_c, 0, 68, 46
2, 18878, Note_on_c, 0, 63, 60
2, 18879, Note_on_c, 0, 56, 60
2, 18881, Note_on_c, 0, 44, 58
2, 18969, Note_on_c, 0, 51, 58
2, 18975, Note_on_c, 0, 68, 0
2, 18976, Note_on_c, 0, 63, 0
2, 18978, Note_on_c, 0, 56, 0
2, 18980, Note_on_c, 0, 44, 0
2, 19056, Note_on_c, 0, 80, 48
2, 19057, Note_on_c, 0, 72, 46
2, 19058, Note_on_c, 0, 68, 48
2, 19060, Note_on_c, 0, 56, 58
2, 19061, Note_on_c, 0, 44, 55
2, 19068, Note_on_c, 0, 51, 0
2, 19141, Note_on_c, 0, 80, 0
2, 19143, Note_on_c, 0, 68, 0
2, 19143, Note_on_c, 0, 72, 0
2, 19146, Note_on_c, 0, 56, 0
2, 19148, Note_on_c, 0, 44, 0
2, 19229, Note_on_c, 0, 56, 59
2, 19230, Note_on_c, 0, 44, 60
2, 19235, Note_on_c, 0, 87, 43
2, 19236, Note_on_c, 0, 75, 42
2, 19275, Note_on_c, 0, 56, 0
2, 19279, Note_on_c, 0, 87, 0
2, 19280, Note_on_c, 0, 89, 44
2, 19282, Note_on_c, 0, 75, 0
2, 19282, Note_on_c, 0, 77, 41
2, 19323, Note_on_c, 0, 92, 43
2, 19327, Note_on_c, 0, 80, 45
2, 19332, Note_on_c, 0, 51, 59
2, 19332, Note_on_c, 0, 60, 53
2, 19333, Note_on_c, 0, 44, 0
2, 19333, Note_on_c, 0, 56, 56
2, 19334, Note_on_c, 0, 89, 0
2, 19337, Note_on_c, 0, 77, 0
2, 19367, Note_on_c, 0, 60, 0
2, 19368, Note_on_c, 0, 51, 0
2, 19368, Note_on_c, 0, 56, 0
2, 19372, Note_on_c, 0, 87, 44
2, 19373, Note_on_c, 0, 75, 47
2, 19379, Note_on_c, 0, 92, 0
2, 19382, Note_on_c, 0, 80, 0
2, 19416, Note_on_c, 0, 89, 48
2, 19418, Note_on_c, 0, 77, 43
2, 19421, Note_on_c, 0, 51, 58
2, 19424, Note_on_c, 0, 87, 0
2, 19424, Note_on_c, 0, 39, 59
2, 19426, Note_on_c, 0, 75, 0
2, 19459, Note_on_c, 0, 92, 44
2, 19461, Note_on_c, 0, 80, 44
2, 19466, Note_on_c, 0, 89, 0
2, 19468, Note_on_c, 0, 77, 0
2, 19473, Note_on_c, 0, 51, 0
2, 19505, Note_on_c, 0, 87, 45
2, 19507, Note_on_c, 0, 75, 48
2, 19510, Note_on_c, 0, 60, 56
2, 19510, Note_on_c, 0, 63, 59
2, 19511, Note_on_c, 0, 56, 60
2, 19513, Note_on_c, 0, 92, 0
2, 19514, Note_on_c, 0, 80, 0
2, 19521, Note_on_c, 0, 39, 0
2, 19543, Note_on_c, 0, 63, 0
2, 19544, Note_on_c, 0, 60, 0
2, 19545, Note_on_c, 0, 56, 0
2, 19551, Note_on_c, 0, 89, 46
2, 19552, Note_on_c, 0, 77, 44
2, 19559, Note_on_c, 0, 87, 0
2, 19561, Note_on_c, 0, 75, 0
2, 19594, Note_on_c, 0, 92, 41
2, 19597, Note_on_c, 0, 80, 44
2, 19602, Note_on_c, 0, 56, 54
2, 19603, Note_on_c, 0, 44, 53
2, 19604, Note_on_c, 0, 89, 0
2, 19606, Note_on_c, 0, 77, 0
2, 19641, Note_on_c, 0, 87, 41
2, 19643, Note_on_c, 0, 75, 41
2, 19646, Note_on_c, 0, 56, 0
2, 19651, Note_on_c, 0, 80, 0
2, 19658, Note_on_c, 0, 92, 0
2, 19682, Note_on_c, 0, 56, 57
2, 19684, Note_on_c, 0, 87, 0
2, 19686, Note_on_c, 0, 89, 43
2, 19687, Note_on_c, 0, 75, 0
2, 19687, Note_on_c, 0, 77, 48
2, 19691, Note_on_c, 0, 60, 57
2, 19692, Note_on_c, 0, 44, 0
2, 19693, Note_on_c, 0, 53, 59
2, 19717, Note_on_c, 0, 53, 0
2, 19717, Note_on_c, 0, 56, 0
2, 19725, Note_on_c, 0, 60, 0
2, 19729, Note_on_c, 0, 92, 44
2, 19731, Note_on_c, 0, 80, 41
2, 19737, Note_on_c, 0, 89, 0
2, 19739, Note_on_c, 0, 77, 0
2, 19780, Note_on_c, 0, 51, 59
2, 19782, Note_on_c, 0, 39, 57
2, 19812, Note_on_c, 0, 89, 41
2, 19820, Note_on_c, 0, 77, 44
2, 19826, Note_on_c, 0, 92, 0
2, 19827, Note_on_c, 0, 80, 0
2, 19833, Note_on_c, 0, 51, 0
2, 19863, Note_on_c, 0, 39, 0
2, 19864, Note_on_c, 0, 87, 46
2, 19867, Note_on_c, 0, 75, 46
2, 19870, Note_on_c, 0, 60, 53
2, 19871, Note_on_c, 0, 51, 54
2, 19871, Note_on_c, 0, 56, 60
2, 19872, Note_on_c, 0, 89, 0
2, 19874, Note_on_c, 0, 77, 0
2, 19904, Note_on_c, 0, 60, 0
2, 19905, Note_on_c, 0, 56, 0
2, 19906, Note_on_c, 0, 51, 0
2, 19911, Note_on_c, 0, 84, 48
2, 19913, Note_on_c, 0, 72, 42
2, 19919, Note_on_c, 0, 87, 0
2, 19921, Note_on_c, 0, 75, 0
2, 19956, Note_on_c, 0, 80, 41
2, 19959, Note_on_c, 0, 68, 48
2, 19962, Note_on_c, 0, 53, 53
2, 19964, Note_on_c, 0, 84, 0
2, 19964, Note_on_c, 0, 41, 54
2, 19967, Note_on_c, 0, 72, 0
2, 19999, Note_on_c, 0, 80, 0
2, 20001, Note_on_c, 0, 68, 0
2, 20001, Note_on_c, 0, 82, 46
2, 20003, Note_on_c, 0, 70, 43
2, 20044, Note_on_c, 0, 84, 47
2, 20046, Note_on_c, 0, 72, 45
2, 20048, Note_on_c, 0, 65, 44
2, 20050, Note_on_c, 0, 56, 58
2, 20050, Note_on_c, 0, 60, 53
2, 20053, Note_on_c, 0, 82, 0
2, 20056, Note_on_c, 0, 70, 0
2, 20059, Note_on_c, 0, 53, 0
2, 20061, Note_on_c, 0, 41, 0
2, 20082, Note_on_c, 0, 65, 0
2, 20082, Note_on_c, 0, 72, 0
2, 20083, Note_on_c, 0, 60, 0
2, 20084, Note_on_c, 0, 56, 0
2, 20090, Note_on_c, 0, 80, 47
2, 20092, Note_on_c, 0, 68, 41
2, 20110, Note_on_c, 0, 84, 0
2, 20136, Note_on_c, 0, 82, 46
2, 20138, Note_on_c, 0, 70, 41
2, 20140, Note_on_c, 0, 48, 57
2, 20140, Note_on_c, 0, 60, 53
2, 20143, Note_on_c, 0, 80, 0
2, 20145, Note_on_c, 0, 68, 0
2, 20174, Note_on_c, 0, 60, 0
2, 20180, Note_on_c, 0, 84, 42
2, 20182, Note_on_c, 0, 72, 41
2, 20187, Note_on_c, 0, 82, 0
2, 20189, Note_on_c, 0, 70, 0
2, 20224, Note_on_c, 0, 80, 47
2, 20227, Note_on_c, 0, 65, 46
2, 20227, Note_on_c, 0, 68, 43
2, 20229, Note_on_c, 0, 60, 54
2, 20230, Note_on_c, 0, 56, 55
2, 20233, Note_on_c, 0, 84, 0
2, 20235, Note_on_c, 0, 72, 0
2, 20239, Note_on_c, 0, 48, 0
2, 20260, Note_on_c, 0, 68, 0
2, 20261, Note_on_c, 0, 65, 0
2, 20262, Note_on_c, 0, 60, 0
2, 20263, Note_on_c, 0, 56, 0
2, 20269, Note_on_c, 0, 82, 43
2, 20271, Note_on_c, 0, 70, 43
2, 20277, Note_on_c, 0, 80, 0
2, 20312, Note_on_c, 0, 84, 45
2, 20313, Note_on_c, 0, 72, 43
2, 20317, Note_on_c, 0, 53, 56
2, 20318, Note_on_c, 0, 41, 55
2, 20320, Note_on_c, 0, 82, 0
2, 20322, Note_on_c, 0, 70, 0
2, 20354, Note_on_c, 0, 80, 43
2, 20356, Note_on_c, 0, 68, 47
2, 20362, Note_on_c, 0, 84, 0
2, 20364, Note_on_c, 0, 72, 0
2, 20392, Note_on_c, 0, 53, 0
2, 20393, Note_on_c, 0, 56, 59
2, 20394, Note_on_c, 0, 41, 0
2, 20398, Note_on_c, 0, 68, 0
2, 20398, Note_on_c, 0, 82, 43
2, 20400, Note_on_c, 0, 65, 44
2, 20400, Note_on_c, 0, 70, 48
2, 20401, Note_on_c, 0, 60, 57
2, 20405, Note_on_c, 0, 80, 0
2, 20417, Note_on_c, 0, 56, 0
2, 20423, Note_on_c, 0, 70, 0
2, 20424, Note_on_c, 0, 65, 0
2, 20425, Note_on_c, 0, 60, 0
2, 20440, Note_on_c, 0, 84, 41
2, 20441, Note_on_c, 0, 72, 46
2, 20447, Note_on_c, 0, 82, 0
2, 20468, Note_on_c, 0, 48, 60
2, 20485, Note_on_c, 0, 60, 56
2, 20518, Note_on_c, 0, 60, 0
2, 20523, Note_on_c, 0, 84, 0
2, 20525, Note_on_c, 0, 72, 0
2, 20525, Note_on_c, 0, 82, 43
2, 20527, Note_on_c, 0, 70, 46
2, 20569, Note_on_c, 0, 80, 42
2, 20570, Note_on_c, 0, 65, 41
2, 20570, Note_on_c, 0, 68, 45
2, 20571, Note_on_c, 0, 56, 54
2, 20572, Note_on_c, 0, 60, 54
2, 20577, Note_on_c, 0, 82, 0
2, 20578, Note_on_c, 0, 70, 0
2, 20582, Note_on_c, 0, 48, 0
2, 20588, Note_on_c, 0, 65, 0
2, 20604, Note_on_c, 0, 68, 0
2, 20606, Note_on_c, 0, 60, 0
2, 20607, Note_on_c, 0, 56, 0
2, 20613, Note_on_c, 0, 77, 41
2, 20615, Note_on_c, 0, 65, 41
2, 20620, Note_on_c, 0, 80, 0
2, 20657, Note_on_c, 0, 75, 41
2, 20659, Note_on_c, 0, 46, 60
2, 20659, Note_on_c, 0, 58, 53
2, 20659, Note_on_c, 0, 63, 55
2, 20665, Note_on_c, 0, 77, 0
2, 20666, Note_on_c, 0, 65, 0
2, 20697, Note_on_c, 0, 77, 46
2, 20699, Note_on_c, 0, 65, 42
2, 20705, Note_on_c, 0, 75, 0
2, 20706, Note_on_c, 0, 63, 0
2, 20738, Note_on_c, 0, 79, 42
2, 20739, Note_on_c, 0, 61, 53
2, 20740, Note_on_c, 0, 51, 60
2, 20740, Note_on_c, 0, 55, 54
2, 20746, Note_on_c, 0, 77, 0
2, 20747, Note_on_c, 0, 65, 0
2, 20747, Note_on_c, 0, 67, 42
2, 20748, Note_on_c, 0, 58, 0
2, 20750, Note_on_c, 0, 46, 0
2, 20773, Note_on_c, 0, 61, 0
2, 20774, Note_on_c, 0, 55, 0
2, 20775, Note_on_c, 0, 51, 0
2, 20781, Note_on_c, 0, 75, 47
2, 20783, Note_on_c, 0, 63, 55
2, 20788, Note_on_c, 0, 79, 0
2, 20791, Note_on_c, 0, 67, 0
2, 20825, Note_on_c, 0, 77, 48
2, 20827, Note_on_c, 0, 65, 43
2, 20829, Note_on_c, 0, 51, 53
2, 20831, Note_on_c, 0, 39, 60
2, 20834, Note_on_c, 0, 75, 0
2, 20836, Note_on_c, 0, 63, 0
2, 20882, Note_on_c, 0, 51, 0
2, 20916, Note_on_c, 0, 79, 48
2, 20917, Note_on_c, 0, 63, 54
2, 20917, Note_on_c, 0, 67, 41
2, 20918, Note_on_c, 0, 55, 60
2, 20918, Note_on_c, 0, 61, 59
2, 20924, Note_on_c, 0, 77, 0
2, 20926, Note_on_c, 0, 65, 0
2, 20930, Note_on_c, 0, 39, 0
2, 20935, Note_on_c, 0, 63, 0
2, 20945, Note_on_c, 0, 61, 0
2, 20952, Note_on_c, 0, 67, 0
2, 20953, Note_on_c, 0, 55, 0
2, 20961, Note_on_c, 0, 75, 42
2, 20962, Note_on_c, 0, 63, 56
2, 20968, Note_on_c, 0, 79, 0
2, 21004, Note_on_c, 0, 77, 44
2, 21005, Note_on_c, 0, 65, 48
2, 21006, Note_on_c, 0, 58, 54
2, 21008, Note_on_c, 0, 46, 59
2, 21013, Note_on_c, 0, 75, 0
2, 21014, Note_on_c, 0, 63, 0
2, 21049, Note_on_c, 0, 67, 44
2, 21049, Note_on_c, 0, 79, 45
2, 21055, Note_on_c, 0, 77, 0
2, 21057, Note_on_c, 0, 65, 0
2, 21093, Note_on_c, 0, 58, 0
2, 21095, Note_on_c, 0, 46, 0
2, 21095, Note_on_c, 0, 55, 59
2, 21095, Note_on_c, 0, 61, 58
2, 21128, Note_on_c, 0, 61, 0
2, 21129, Note_on_c, 0, 55, 0
2, 21137, Note_on_c, 0, 75, 45
2, 21139, Note_on_c, 0, 63, 58
2, 21145, Note_on_c, 0, 79, 0
2, 21146, Note_on_c, 0, 67, 0
2, 21182, Note_on_c, 0, 77, 43
2, 21184, Note_on_c, 0, 65, 44
2, 21185, Note_on_c, 0, 51, 55
2, 21187, Note_on_c, 0, 39, 58
2, 21191, Note_on_c, 0, 75, 0
2, 21193, Note_on_c, 0, 63, 0
2, 21275, Note_on_c, 0, 55, 56
2, 21275, Note_on_c, 0, 61, 55
2, 21281, Note_on_c, 0, 77, 0
2, 21282, Note_on_c, 0, 65, 0
2, 21284, Note_on_c, 0, 51, 0
2, 21286, Note_on_c, 0, 39, 0
2, 21301, Note_on_c, 0, 75, 43
2, 21302, Note_on_c, 0, 63, 60
2, 21310, Note_on_c, 0, 55, 0
2, 21310, Note_on_c, 0, 61, 0
2, 21317, Note_on_c, 0, 77, 44
2, 21318, Note_on_c, 0, 65, 43
2, 21334, Note_on_c, 0, 75, 0
2, 21336, Note_on_c, 0, 63, 0
2, 21344, Note_on_c, 0, 79, 43
2, 21345, Note_on_c, 0, 67, 46
2, 21351, Note_on_c, 0, 77, 0
2, 21352, Note_on_c, 0, 65, 0
2, 21360, Note_on_c, 0, 80, 45
2, 21362, Note_on_c, 0, 68, 48
2, 21363, Note_on_c, 0, 44, 53
2, 21363, Note_on_c, 0, 56, 59
2, 21368, Note_on_c, 0, 79, 0
2, 21370, Note_on_c, 0, 67, 0
2, 21395, Note_on_c, 0, 79, 43
2, 21406, Note_on_c, 0, 67, 43
2, 21411, Note_on_c, 0, 80, 0
2, 21412, Note_on_c, 0, 68, 0
2, 21415, Note_on_c, 0, 56, 0
2, 21448, Note_on_c, 0, 80, 46
2, 21451, Note_on_c, 0, 68, 45
2, 21452, Note_on_c, 0, 63, 59
2, 21453, Note_on_c, 0, 56, 56
2, 21453, Note_on_c, 0, 60, 56
2, 21458, Note_on_c, 0, 79, 0
2, 21460, Note_on_c, 0, 67, 0
2, 21462, Note_on_c, 0, 44, 0
2, 21488, Note_on_c, 0, 60, 0
2, 21488, Note_on_c, 0, 63, 0
2, 21489, Note_on_c, 0, 56, 0
2, 21495, Note_on_c, 0, 77, 42
2, 21497, Note_on_c, 0, 65, 47
2, 21503, Note_on_c, 0, 80, 0
2, 21504, Note_on_c, 0, 68, 0
2, 21546, Note_on_c, 0, 46, 58
2, 21587, Note_on_c, 0, 79, 42
2, 21589, Note_on_c, 0, 67, 43
2, 21595, Note_on_c, 0, 77, 0
2, 21596, Note_on_c, 0, 65, 0
2, 21629, Note_on_c, 0, 80, 44
2, 21633, Note_on_c, 0, 58, 56
2, 21633, Note_on_c, 0, 68, 42
2, 21634, Note_on_c, 0, 46, 0
2, 21634, Note_on_c, 0, 56, 60
2, 21634, Note_on_c, 0, 62, 56
2, 21639, Note_on_c, 0, 79, 0
2, 21641, Note_on_c, 0, 67, 0
2, 21659, Note_on_c, 0, 58, 0
2, 21659, Note_on_c, 0, 62, 0
2, 21668, Note_on_c, 0, 56, 0
2, 21714, Note_on_c, 0, 43, 54
2, 21720, Note_on_c, 0, 68, 0
2, 21720, Note_on_c, 0, 82, 48
2, 21722, Note_on_c, 0, 70, 46
2, 21723, Note_on_c, 0, 55, 59
2, 21728, Note_on_c, 0, 80, 0
2, 21746, Note_on_c, 0, 82, 0
2, 21758, Note_on_c, 0, 70, 0
2, 21767, Note_on_c, 0, 81, 46
2, 21768, Note_on_c, 0, 69, 44
2, 21769, Note_on_c, 0, 55, 0
2, 21803, Note_on_c, 0, 69, 0
2, 21803, Note_on_c, 0, 81, 0
2, 21814, Note_on_c, 0, 82, 44
2, 21816, Note_on_c, 0, 61, 55
2, 21816, Note_on_c, 0, 70, 47
2, 21817, Note_on_c, 0, 51, 53
2, 21817, Note_on_c, 0, 55, 60
2, 21818, Note_on_c, 0, 43, 0
2, 21843, Note_on_c, 0, 61, 0
2, 21852, Note_on_c, 0, 55, 0
2, 21853, Note_on_c, 0, 51, 0
2, 21859, Note_on_c, 0, 87, 44
2, 21862, Note_on_c, 0, 67, 41
2, 21862, Note_on_c, 0, 75, 43
2, 21868, Note_on_c, 0, 82, 0
2, 21869, Note_on_c, 0, 70, 0
2, 21911, Note_on_c, 0, 51, 60
2, 21913, Note_on_c, 0, 39, 57
2, 21950, Note_on_c, 0, 85, 48
2, 21957, Note_on_c, 0, 87, 0
2, 21962, Note_on_c, 0, 51, 0
2, 21993, Note_on_c, 0, 75, 0
2, 21993, Note_on_c, 0, 82, 42
2, 21996, Note_on_c, 0, 61, 57
2, 21996, Note_on_c, 0, 63, 55
2, 21997, Note_on_c, 0, 55, 56
2, 22001, Note_on_c, 0, 85, 0
2, 22007, Note_on_c, 0, 39, 0
2, 22030, Note_on_c, 0, 63, 0
2, 22031, Note_on_c, 0, 61, 0
2, 22031, Note_on_c, 0, 55, 0
2, 22036, Note_on_c, 0, 79, 43
2, 22043, Note_on_c, 0, 82, 0
2, 22080, Note_on_c, 0, 87, 42
2, 22082, Note_on_c, 0, 75, 45
2, 22085, Note_on_c, 0, 44, 55
2, 22085, Note_on_c, 0, 56, 56
2, 22089, Note_on_c, 0, 79, 0
2, 22092, Note_on_c, 0, 67, 0
2, 22120, Note_on_c, 0, 56, 0
2, 22126, Note_on_c, 0, 89, 47
2, 22127, Note_on_c, 0, 77, 41
2, 22133, Note_on_c, 0, 87, 0
2, 22135, Note_on_c, 0, 75, 0
2, 22170, Note_on_c, 0, 92, 48
2, 22172, Note_on_c, 0, 80, 42
2, 22176, Note_on_c, 0, 63, 60
2, 22177, Note_on_c, 0, 56, 60
2, 22177, Note_on_c, 0, 60, 57
2, 22179, Note_on_c, 0, 89, 0
2, 22181, Note_on_c, 0, 77, 0
2, 22187, Note_on_c, 0, 44, 0
2, 22202, Note_on_c, 0, 60, 0
2, 22202, Note_on_c, 0, 63, 0
2, 22203, Note_on_c, 0, 56, 0
2, 22217, Note_on_c, 0, 80, 0
2, 22217, Note_on_c, 0, 87, 46
2, 22219, Note_on_c, 0, 75, 43
2, 22225, Note_on_c, 0, 92, 0
2, 22262, Note_on_c, 0, 89, 47
2, 22263, Note_on_c, 0, 77, 44
2, 22267, Note_on_c, 0, 51, 54
2, 22269, Note_on_c, 0, 39, 59
2, 22270, Note_on_c, 0, 87, 0
2, 22272, Note_on_c, 0, 75, 0
2, 22303, Note_on_c, 0, 92, 44
2, 22305, Note_on_c, 0, 77, 0
2, 22306, Note_on_c, 0, 80, 42
2, 22312, Note_on_c, 0, 89, 0
2, 22349, Note_on_c, 0, 87, 45
2, 22351, Note_on_c, 0, 68, 45
2, 22351, Note_on_c, 0, 75, 44
2, 22353, Note_on_c, 0, 63, 55
2, 22356, Note_on_c, 0, 92, 0
2, 22356, Note_on_c, 0, 39, 0
2, 22358, Note_on_c, 0, 80, 0
2, 22364, Note_on_c, 0, 51, 0
2, 22386, Note_on_c, 0, 75, 0
2, 22387, Note_on_c, 0, 68, 0
2, 22388, Note_on_c, 0, 63, 0
2, 22394, Note_on_c, 0, 89, 41
2, 22394, Note_on_c, 0, 77, 44
2, 22400, Note_on_c, 0, 87, 0
2, 22437, Note_on_c, 0, 92, 48
2, 22440, Note_on_c, 0, 80, 48
2, 22445, Note_on_c, 0, 56, 60
2, 22446, Note_on_c, 0, 89, 0
2, 22446, Note_on_c, 0, 44, 58
2, 22449, Note_on_c, 0, 77, 0
2, 22470, Note_on_c, 0, 56, 0
2, 22485, Note_on_c, 0, 87, 48
2, 22488, Note_on_c, 0, 75, 42
2, 22492, Note_on_c, 0, 92, 0
2, 22494, Note_on_c, 0, 80, 0
2, 22529, Note_on_c, 0, 87, 0
2, 22530, Note_on_c, 0, 89, 41
2, 22532, Note_on_c, 0, 77, 46
2, 22537, Note_on_c, 0, 51, 56
2, 22537, Note_on_c, 0, 56, 57
2, 22537, Note_on_c, 0, 60, 54
2, 22541, Note_on_c, 0, 75, 0
2, 22547, Note_on_c, 0, 44, 0
2, 22571, Note_on_c, 0, 51, 0
2, 22571, Note_on_c, 0, 56, 0
2, 22574, Note_on_c, 0, 92, 48
2, 22576, Note_on_c, 0, 80, 41
2, 22582, Note_on_c, 0, 89, 0
2, 22586, Note_on_c, 0, 77, 0
2, 22587, Note_on_c, 0, 60, 0
2, 22626, Note_on_c, 0, 51, 59
2, 22628, Note_on_c, 0, 39, 58
2, 22665, Note_on_c, 0, 77, 44
2, 22671, Note_on_c, 0, 92, 0
2, 22673, Note_on_c, 0, 80, 0
2, 22679, Note_on_c, 0, 51, 0
2, 22711, Note_on_c, 0, 75, 46
2, 22714, Note_on_c, 0, 60, 59
2, 22714, Note_on_c, 0, 63, 56
2, 22715, Note_on_c, 0, 56, 53
2, 22719, Note_on_c, 0, 77, 0
2, 22729, Note_on_c, 0, 39, 0
2, 22748, Note_on_c, 0, 63, 0
2, 22749, Note_on_c, 0, 60, 0
2, 22750, Note_on_c, 0, 56, 0
2, 22754, Note_on_c, 0, 84, 47
2, 22756, Note_on_c, 0, 72, 42
2, 22763, Note_on_c, 0, 75, 0
2, 22800, Note_on_c, 0, 80, 47
2, 22802, Note_on_c, 0, 68, 43
2, 22805, Note_on_c, 0, 53, 53
2, 22807, Note_on_c, 0, 84, 0
2, 22807, Note_on_c, 0, 41, 60
2, 22810, Note_on_c, 0, 72, 0
2, 22843, Note_on_c, 0, 80, 0
2, 22845, Note_on_c, 0, 68, 0
2, 22845, Note_on_c, 0, 82, 44
2, 22847, Note_on_c, 0, 70, 47
2, 22886, Note_on_c, 0, 84, 43
2, 22888, Note_on_c, 0, 72, 47
2, 22890, Note_on_c, 0, 65, 41
2, 22891, Note_on_c, 0, 53, 0
2, 22891, Note_on_c, 0, 60, 54
2, 22893, Note_on_c, 0, 41, 0
2, 22895, Note_on_c, 0, 82, 0
2, 22897, Note_on_c, 0, 70, 0
2, 22922, Note_on_c, 0, 65, 0
2, 22923, Note_on_c, 0, 60, 0
2, 22929, Note_on_c, 0, 80, 42
2, 22930, Note_on_c, 0, 72, 0
2, 22932, Note_on_c, 0, 68, 44
2, 22953, Note_on_c, 0, 84, 0
2, 22968, Note_on_c, 0, 48, 54
2, 22971, Note_on_c, 0, 82, 48
2, 22973, Note_on_c, 0, 70, 43
2, 22975, Note_on_c, 0, 60, 56
2, 22979, Note_on_c, 0, 80, 0
2, 22980, Note_on_c, 0, 68, 0
2, 23013, Note_on_c, 0, 82, 0
2, 23013, Note_on_c, 0, 84, 48
2, 23014, Note_on_c, 0, 70, 0
2, 23015, Note_on_c, 0, 72, 47
2, 23016, Note_on_c, 0, 60, 0
2, 23051, Note_on_c, 0, 56, 60
2, 23055, Note_on_c, 0, 80, 47
2, 23059, Note_on_c, 0, 65, 41
2, 23059, Note_on_c, 0, 68, 42
2, 23060, Note_on_c, 0, 48, 0
2, 23060, Note_on_c, 0, 60, 57
2, 23065, Note_on_c, 0, 84, 0
2, 23066, Note_on_c, 0, 72, 0
2, 23083, Note_on_c, 0, 68, 0
2, 23084, Note_on_c, 0, 65, 0
2, 23085, Note_on_c, 0, 60, 0
2, 23086, Note_on_c, 0, 56, 0
2, 23091, Note_on_c, 0, 82, 43
2, 23093, Note_on_c, 0, 70, 48
2, 23099, Note_on_c, 0, 80, 0
2, 23142, Note_on_c, 0, 84, 48
2, 23143, Note_on_c, 0, 72, 47
2, 23147, Note_on_c, 0, 53, 58
2, 23148, Note_on_c, 0, 41, 53
2, 23151, Note_on_c, 0, 82, 0
2, 23152, Note_on_c, 0, 70, 0
2, 23185, Note_on_c, 0, 80, 46
2, 23186, Note_on_c, 0, 68, 42
2, 23192, Note_on_c, 0, 84, 0
2, 23194, Note_on_c, 0, 72, 0
2, 23227, Note_on_c, 0, 82, 47
2, 23229, Note_on_c, 0, 70, 48
2, 23230, Note_on_c, 0, 60, 53
2, 23230, Note_on_c, 0, 65, 46
2, 23231, Note_on_c, 0, 56, 54
2, 23234, Note_on_c, 0, 80, 0
2, 23235, Note_on_c, 0, 68, 0
2, 23238, Note_on_c, 0, 53, 0
2, 23239, Note_on_c, 0, 41, 0
2, 23260, Note_on_c, 0, 70, 0
2, 23261, Note_on_c, 0, 65, 0
2, 23262, Note_on_c, 0, 60, 0
2, 23262, Note_on_c, 0, 56, 0
2, 23268, Note_on_c, 0, 84, 44
2, 23270, Note_on_c, 0, 72, 48
2, 23276, Note_on_c, 0, 82, 0
2, 23314, Note_on_c, 0, 48, 55
2, 23314, Note_on_c, 0, 60, 60
2, 23347, Note_on_c, 0, 60, 0
2, 23353, Note_on_c, 0, 82, 43
2, 23354, Note_on_c, 0, 70, 41
2, 23360, Note_on_c, 0, 84, 0
2, 23362, Note_on_c, 0, 72, 0
2, 23396, Note_on_c, 0, 80, 43
2, 23398, Note_on_c, 0, 68, 42
2, 23399, Note_on_c, 0, 65, 43
2, 23400, Note_on_c, 0, 48, 0
2, 23400, Note_on_c, 0, 56, 53
2, 23400, Note_on_c, 0, 60, 55
2, 23404, Note_on_c, 0, 82, 0
2, 23405, Note_on_c, 0, 70, 0
2, 23416, Note_on_c, 0, 65, 0
2, 23432, Note_on_c, 0, 68, 0
2, 23435, Note_on_c, 0, 60, 0
2, 23436, Note_on_c, 0, 56, 0
2, 23442, Note_on_c, 0, 77, 42
2, 23444, Note_on_c, 0, 65, 43
2, 23450, Note_on_c, 0, 80, 0
2, 23480, Note_on_c, 0, 58, 59
2, 23482, Note_on_c, 0, 46, 60
2, 23488, Note_on_c, 0, 75, 44
2, 23490, Note_on_c, 0, 63, 53
2, 23496, Note_on_c, 0, 77, 0
2, 23498, Note_on_c, 0, 65, 0
2, 23525, Note_on_c, 0, 58, 0
2, 23525, Note_on_c, 0, 63, 0
2, 23532, Note_on_c, 0, 77, 42
2, 23534, Note_on_c, 0, 65, 47
2, 23540, Note_on_c, 0, 75, 0
2, 23576, Note_on_c, 0, 79, 44
2, 23577, Note_on_c, 0, 67, 42
2, 23578, Note_on_c, 0, 46, 0
2, 23578, Note_on_c, 0, 55, 60
2, 23578, Note_on_c, 0, 61, 60
2, 23579, Note_on_c, 0, 51, 53
2, 23584, Note_on_c, 0, 77, 0
2, 23586, Note_on_c, 0, 65, 0
2, 23603, Note_on_c, 0, 61, 0
2, 23612, Note_on_c, 0, 67, 0
2, 23613, Note_on_c, 0, 55, 0
2, 23614, Note_on_c, 0, 51, 0
2, 23620, Note_on_c, 0, 75, 43
2, 23622, Note_on_c, 0, 63, 53
2, 23628, Note_on_c, 0, 79, 0
2, 23660, Note_on_c, 0, 39, 54
2, 23666, Note_on_c, 0, 77, 48
2, 23666, Note_on_c, 0, 65, 48
2, 23667, Note_on_c, 0, 51, 57
2, 23673, Note_on_c, 0, 75, 0
2, 23674, Note_on_c, 0, 63, 0
2, 23720, Note_on_c, 0, 51, 0
2, 23755, Note_on_c, 0, 79, 45
2, 23756, Note_on_c, 0, 67, 48
2, 23757, Note_on_c, 0, 55, 60
2, 23757, Note_on_c, 0, 63, 58
2, 23758, Note_on_c, 0, 61, 58
2, 23759, Note_on_c, 0, 39, 0
2, 23763, Note_on_c, 0, 77, 0
2, 23765, Note_on_c, 0, 65, 0
2, 23774, Note_on_c, 0, 63, 0
2, 23783, Note_on_c, 0, 67, 0
2, 23792, Note_on_c, 0, 61, 0
2, 23793, Note_on_c, 0, 55, 0
2, 23802, Note_on_c, 0, 75, 46
2, 23803, Note_on_c, 0, 63, 54
2, 23809, Note_on_c, 0, 79, 0
2, 23847, Note_on_c, 0, 77, 41
2, 23848, Note_on_c, 0, 65, 47
2, 23850, Note_on_c, 0, 46, 54
2, 23850, Note_on_c, 0, 58, 53
2, 23856, Note_on_c, 0, 75, 0
2, 23857, Note_on_c, 0, 63, 0
2, 23891, Note_on_c, 0, 79, 45
2, 23892, Note_on_c, 0, 67, 43
2, 23899, Note_on_c, 0, 77, 0
2, 23900, Note_on_c, 0, 65, 0
2, 23937, Note_on_c, 0, 46, 0
2, 23937, Note_on_c, 0, 51, 57
2, 23937, Note_on_c, 0, 55, 53
2, 23937, Note_on_c, 0, 61, 55
2, 23944, Note_on_c, 0, 58, 0
2, 23971, Note_on_c, 0, 61, 0
2, 23972, Note_on_c, 0, 55, 0
2, 23973, Note_on_c, 0, 51, 0
2, 23978, Note_on_c, 0, 79, 0
2, 23980, Note_on_c, 0, 67, 0
2, 23980, Note_on_c, 0, 75, 42
2, 23982, Note_on_c, 0, 63, 55
2, 24026, Note_on_c, 0, 77, 47
2, 24028, Note_on_c, 0, 65, 41
2, 24030, Note_on_c, 0, 51, 58
2, 24031, Note_on_c, 0, 39, 53
2, 24036, Note_on_c, 0, 75, 0
2, 24037, Note_on_c, 0, 63, 0
2, 24075, Note_on_c, 0, 51, 0
2, 24120, Note_on_c, 0, 65, 0
2, 24122, Note_on_c, 0, 55, 57
2, 24122, Note_on_c, 0, 61, 54
2, 24123, Note_on_c, 0, 39, 0
2, 24127, Note_on_c, 0, 77, 0
2, 24147, Note_on_c, 0, 75, 48
2, 24149, Note_on_c, 0, 63, 57
2, 24158, Note_on_c, 0, 55, 0
2, 24158, Note_on_c, 0, 61, 0
2, 24165, Note_on_c, 0, 77, 45
2, 24167, Note_on_c, 0, 65, 41
2, 24182, Note_on_c, 0, 75, 0
2, 24184, Note_on_c, 0, 63, 0
2, 24184, Note_on_c, 0, 79, 48
2, 24191, Note_on_c, 0, 68, 43
2, 24193, Note_on_c, 0, 67, 42
2, 24199, Note_on_c, 0, 77, 0
2, 24200, Note_on_c, 0, 65, 0
2, 24208, Note_on_c, 0, 80, 43
2, 24213, Note_on_c, 0, 44, 60
2, 24213, Note_on_c, 0, 56, 54
2, 24226, Note_on_c, 0, 79, 0
2, 24227, Note_on_c, 0, 67, 0
2, 24244, Note_on_c, 0, 68, 0
2, 24253, Note_on_c, 0, 82, 41
2, 24255, Note_on_c, 0, 70, 42
2, 24262, Note_on_c, 0, 80, 0
2, 24265, Note_on_c, 0, 56, 0
2, 24297, Note_on_c, 0, 82, 0
2, 24299, Note_on_c, 0, 70, 0
2, 24299, Note_on_c, 0, 84, 46
2, 24301, Note_on_c, 0, 72, 41
2, 24303, Note_on_c, 0, 51, 57
2, 24303, Note_on_c, 0, 56, 58
2, 24303, Note_on_c, 0, 60, 55
2, 24304, Note_on_c, 0, 44, 0
2, 24330, Note_on_c, 0, 51, 0
2, 24338, Note_on_c, 0, 60, 0
2, 24344, Note_on_c, 0, 84, 0
2, 24344, Note_on_c, 0, 87, 43
2, 24346, Note_on_c, 0, 56, 0
2, 24346, Note_on_c, 0, 72, 0
2, 24346, Note_on_c, 0, 75, 48
2, 24392, Note_on_c, 0, 84, 46
2, 24393, Note_on_c, 0, 72, 44
2, 24396, Note_on_c, 0, 51, 60
2, 24398, Note_on_c, 0, 39, 57
2, 24399, Note_on_c, 0, 87, 0
2, 24402, Note_on_c, 0, 75, 0
2, 24437, Note_on_c, 0, 87, 47
2, 24440, Note_on_c, 0, 75, 48
2, 24447, Note_on_c, 0, 84, 0
2, 24449, Note_on_c, 0, 72, 0
2, 24453, Note_on_c, 0, 51, 0
2, 24484, Note_on_c, 0, 82, 46
2, 24487, Note_on_c, 0, 70, 48
2, 24488, Note_on_c, 0, 51, 57
2, 24488, Note_on_c, 0, 55, 53
2, 24488, Note_on_c, 0, 61, 58
2, 24492, Note_on_c, 0, 87, 0
2, 24494, Note_on_c, 0, 75, 0
2, 24500, Note_on_c, 0, 39, 0
2, 24524, Note_on_c, 0, 61, 0
2, 24524, Note_on_c, 0, 55, 0
2, 24525, Note_on_c, 0, 51, 0
2, 24573, Note_on_c, 0, 80, 41
2, 24575, Note_on_c, 0, 68, 46
2, 24578, Note_on_c, 0, 60, 54
2, 24578, Note_on_c, 0, 44, 53
2, 24578, Note_on_c, 0, 56, 59
2, 24582, Note_on_c, 0, 82, 0
2, 24583, Note_on_c, 0, 70, 0
2, 24660, Note_on_c, 0, 80, 0
2, 24662, Note_on_c, 0, 68, 0
2, 24664, Note_on_c, 0, 60, 0
2, 24665, Note_on_c, 0, 56, 0
2, 24667, Note_on_c, 0, 44, 0
2, 24751, Note_on_c, 0, 92, 41
2, 24753, Note_on_c, 0, 80, 41
2, 24755, Note_on_c, 0, 72, 41
2, 24756, Note_on_c, 0, 68, 46
2, 24758, Note_on_c, 0, 56, 59
2, 24759, Note_on_c, 0, 44, 58
2, 24816, Note_on_c, 0, 80, 0
2, 24849, Note_on_c, 0, 92, 0
2, 24852, Note_on_c, 0, 68, 0
2, 24852, Note_on_c, 0, 72, 0
2, 24855, Note_on_c, 0, 56, 0
2, 24856, Note_on_c, 0, 44, 0
2, 24861, Note_on_c, 0, 80, 41
2, 24880, Note_on_c, 0, 82, 46
2, 24887, Note_on_c, 0, 80, 0
2, 24914, Note_on_c, 0, 82, 0
2, 24914, Note_on_c, 0, 84, 42
2, 24928, Note_on_c, 0, 49, 54
2, 24929, Note_on_c, 0, 37, 59
2, 24931, Note_on_c, 0, 85, 43
2, 24933, Note_on_c, 0, 77, 45
2, 24939, Note_on_c, 0, 84, 0
2, 24978, Note_on_c, 0, 82, 41
2, 24985, Note_on_c, 0, 85, 0
2, 24986, Note_on_c, 0, 77, 0
2, 25023, Note_on_c, 0, 84, 46
2, 25026, Note_on_c, 0, 65, 45
2, 25027, Note_on_c, 0, 61, 56
2, 25029, Note_on_c, 0, 56, 58
2, 25032, Note_on_c, 0, 82, 0
2, 25038, Note_on_c, 0, 49, 0
2, 25039, Note_on_c, 0, 37, 0
2, 25061, Note_on_c, 0, 65, 0
2, 25063, Note_on_c, 0, 61, 0
2, 25064, Note_on_c, 0, 56, 0
2, 25070, Note_on_c, 0, 80, 43
2, 25078, Note_on_c, 0, 84, 0
2, 25118, Note_on_c, 0, 82, 45
2, 25122, Note_on_c, 0, 56, 59
2, 25123, Note_on_c, 0, 44, 56
2, 25126, Note_on_c, 0, 80, 0
2, 25157, Note_on_c, 0, 56, 0
2, 25163, Note_on_c, 0, 80, 46
2, 25171, Note_on_c, 0, 82, 0
2, 25208, Note_on_c, 0, 77, 42
2, 25211, Note_on_c, 0, 65, 42
2, 25212, Note_on_c, 0, 61, 54
2, 25213, Note_on_c, 0, 56, 56
2, 25216, Note_on_c, 0, 80, 0
2, 25223, Note_on_c, 0, 44, 0
2, 25245, Note_on_c, 0, 65, 0
2, 25247, Note_on_c, 0, 61, 0
2, 25248, Note_on_c, 0, 56, 0
2, 25298, Note_on_c, 0, 80, 47
2, 25301, Note_on_c, 0, 68, 46
2, 25305, Note_on_c, 0, 49, 58
2, 25306, Note_on_c, 0, 37, 58
2, 25309, Note_on_c, 0, 77, 0
2, 25346, Note_on_c, 0, 73, 41
2, 25353, Note_on_c, 0, 80, 0
2, 25355, Note_on_c, 0, 68, 0
2, 25392, Note_on_c, 0, 77, 43
2, 25394, Note_on_c, 0, 65, 48
2, 25394, Note_on_c, 0, 61, 53
2, 25395, Note_on_c, 0, 56, 53
2, 25401, Note_on_c, 0, 73, 0
2, 25405, Note_on_c, 0, 49, 0
2, 25407, Note_on_c, 0, 37, 0
2, 25428, Note_on_c, 0, 65, 0
2, 25429, Note_on_c, 0, 61, 0
2, 25430, Note_on_c, 0, 56, 0
2, 25437, Note_on_c, 0, 82, 46
2, 25440, Note_on_c, 0, 70, 47
2, 25446, Note_on_c, 0, 77, 0
2, 25486, Note_on_c, 0, 58, 60
2, 25488, Note_on_c, 0, 46, 56
2, 25510, Note_on_c, 0, 58, 0
2, 25561, Note_on_c, 0, 58, 56
2, 25564, Note_on_c, 0, 82, 0
2, 25566, Note_on_c, 0, 70, 0
2, 25566, Note_on_c, 0, 73, 42
2, 25566, Note_on_c, 0, 77, 44
2, 25569, Note_on_c, 0, 61, 54
2, 25570, Note_on_c, 0, 46, 0
2, 25570, Note_on_c, 0, 53, 55
2, 25592, Note_on_c, 0, 61, 0
2, 25593, Note_on_c, 0, 58, 0
2, 25594, Note_on_c, 0, 53, 0
2, 25608, Note_on_c, 0, 77, 0
2, 25609, Note_on_c, 0, 73, 0
2, 25653, Note_on_c, 0, 77, 43
2, 25654, Note_on_c, 0, 67, 42
2, 25656, Note_on_c, 0, 58, 60
2, 25658, Note_on_c, 0, 46, 55
2, 25697, Note_on_c, 0, 73, 42
2, 25704, Note_on_c, 0, 77, 0
2, 25705, Note_on_c, 0, 67, 0
2, 25739, Note_on_c, 0, 75, 45
2, 25741, Note_on_c, 0, 51, 60
2, 25741, Note_on_c, 0, 55, 57
2, 25741, Note_on_c, 0, 61, 58
2, 25748, Note_on_c, 0, 73, 0
2, 25749, Note_on_c, 0, 58, 0
2, 25751, Note_on_c, 0, 46, 0
2, 25774, Note_on_c, 0, 61, 0
2, 25775, Note_on_c, 0, 55, 0
2, 25775, Note_on_c, 0, 51, 0
2, 25781, Note_on_c, 0, 67, 44
2, 25781, Note_on_c, 0, 73, 44
2, 25781, Note_on_c, 0, 77, 41
2, 25789, Note_on_c, 0, 75, 0
2, 25813, Note_on_c, 0, 73, 0
2, 25825, Note_on_c, 0, 58, 57
2, 25826, Note_on_c, 0, 46, 54
2, 25864, Note_on_c, 0, 73, 43
2, 25871, Note_on_c, 0, 77, 0
2, 25872, Note_on_c, 0, 67, 0
2, 25896, Note_on_c, 0, 73, 0
2, 25904, Note_on_c, 0, 72, 46
2, 25904, Note_on_c, 0, 75, 45
2, 25906, Note_on_c, 0, 66, 48
2, 25907, Note_on_c, 0, 56, 54
2, 25908, Note_on_c, 0, 44, 55
2, 25915, Note_on_c, 0, 58, 0
2, 25916, Note_on_c, 0, 46, 0
2, 25993, Note_on_c, 0, 65, 43
2, 25994, Note_on_c, 0, 61, 55
2, 25994, Note_on_c, 0, 49, 55
2, 25999, Note_on_c, 0, 75, 0
2, 26000, Note_on_c, 0, 72, 0
2, 26001, Note_on_c, 0, 66, 0
2, 26001, Note_on_c, 0, 73, 47
2, 26002, Note_on_c, 0, 56, 0
2, 26011, Note_on_c, 0, 61, 0
2, 26012, Note_on_c, 0, 49, 0
2, 26013, Note_on_c, 0, 44, 0
2, 26040, Note_on_c, 0, 61, 53
2, 26041, Note_on_c, 0, 49, 54
2, 26046, Note_on_c, 0, 65, 0
2, 26066, Note_on_c, 0, 61, 0
2, 26066, Note_on_c, 0, 63, 54
2, 26067, Note_on_c, 0, 49, 0
2, 26067, Note_on_c, 0, 51, 55
2, 26077, Note_on_c, 0, 53, 54
2, 26083, Note_on_c, 0, 73, 0
2, 26085, Note_on_c, 0, 65, 47
2, 26086, Note_on_c, 0, 51, 0
2, 26092, Note_on_c, 0, 63, 0
2, 26103, Note_on_c, 0, 53, 0
2, 26110, Note_on_c, 0, 65, 0
2, 26112, Note_on_c, 0, 66, 48
2, 26114, Note_on_c, 0, 54, 54
2, 26114, Note_on_c, 0, 56, 60
2, 26129, Note_on_c, 0, 68, 45
2, 26137, Note_on_c, 0, 66, 0
2, 26138, Note_on_c, 0, 54, 0
2, 26138, Note_on_c, 0, 56, 0
2, 26147, Note_on_c, 0, 58, 57
2, 26153, Note_on_c, 0, 68, 0
2, 26156, Note_on_c, 0, 70, 48
2, 26173, Note_on_c, 0, 72, 45
2, 26175, Note_on_c, 0, 60, 53
2, 26182, Note_on_c, 0, 70, 0
2, 26183, Note_on_c, 0, 58, 0
2, 26192, Note_on_c, 0, 61, 57
2, 26199, Note_on_c, 0, 72, 0
2, 26200, Note_on_c, 0, 73, 42
2, 26201, Note_on_c, 0, 60, 0
2, 26217, Note_on_c, 0, 75, 48
2, 26218, Note_on_c, 0, 61, 0
2, 26219, Note_on_c, 0, 63, 57
2, 26226, Note_on_c, 0, 73, 0
2, 26244, Note_on_c, 0, 75, 0
2, 26244, Note_on_c, 0, 77, 45
2, 26245, Note_on_c, 0, 63, 0
2, 26246, Note_on_c, 0, 65, 46
2, 26263, Note_on_c, 0, 78, 45
2, 26265, Note_on_c, 0, 66, 41
2, 26272, Note_on_c, 0, 77, 0
2, 26273, Note_on_c, 0, 65, 0
2, 26290, Note_on_c, 0, 78, 0
2, 26290, Note_on_c, 0, 80, 45
2, 26291, Note_on_c, 0, 66, 0
2, 26292, Note_on_c, 0, 68, 48
2, 26309, Note_on_c, 0, 82, 47
2, 26311, Note_on_c, 0, 70, 47
2, 26318, Note_on_c, 0, 80, 0
2, 26319, Note_on_c, 0, 68, 0
2, 26330, Note_on_c, 0, 72, 48
2, 26336, Note_on_c, 0, 82, 0
2, 26337, Note_on_c, 0, 70, 0
2, 26338, Note_on_c, 0, 84, 46
2, 26356, Note_on_c, 0, 72, 0
2, 26356, Note_on_c, 0, 77, 45
2, 26356, Note_on_c, 0, 85, 45
2, 26359, Note_on_c, 0, 61, 55
2, 26360, Note_on_c, 0, 49, 57
2, 26365, Note_on_c, 0, 84, 0
2, 26403, Note_on_c, 0, 82, 48
2, 26404, Note_on_c, 0, 61, 0
2, 26411, Note_on_c, 0, 85, 0
2, 26412, Note_on_c, 0, 77, 0
2, 26450, Note_on_c, 0, 84, 42
2, 26452, Note_on_c, 0, 65, 42
2, 26453, Note_on_c, 0, 61, 58
2, 26454, Note_on_c, 0, 56, 55
2, 26459, Note_on_c, 0, 82, 0
2, 26463, Note_on_c, 0, 49, 0
2, 26488, Note_on_c, 0, 65, 0
2, 26489, Note_on_c, 0, 61, 0
2, 26490, Note_on_c, 0, 56, 0
2, 26497, Note_on_c, 0, 80, 48
2, 26504, Note_on_c, 0, 84, 0
2, 26542, Note_on_c, 0, 82, 44
2, 26546, Note_on_c, 0, 56, 56
2, 26546, Note_on_c, 0, 44, 53
2, 26549, Note_on_c, 0, 80, 0
2, 26587, Note_on_c, 0, 80, 43
2, 26594, Note_on_c, 0, 82, 0
2, 26598, Note_on_c, 0, 56, 0
2, 26634, Note_on_c, 0, 77, 44
2, 26636, Note_on_c, 0, 68, 44
2, 26637, Note_on_c, 0, 61, 53
2, 26637, Note_on_c, 0, 65, 47
2, 26642, Note_on_c, 0, 80, 0
2, 26648, Note_on_c, 0, 44, 0
2, 26673, Note_on_c, 0, 68, 0
2, 26673, Note_on_c, 0, 65, 0
2, 26674, Note_on_c, 0, 61, 0
2, 26731, Note_on_c, 0, 80, 48
2, 26733, Note_on_c, 0, 68, 47
2, 26735, Note_on_c, 0, 61, 58
2, 26736, Note_on_c, 0, 49, 53
2, 26740, Note_on_c, 0, 77, 0
2, 26778, Note_on_c, 0, 68, 0
2, 26780, Note_on_c, 0, 61, 0
2, 26780, Note_on_c, 0, 73, 48
2, 26786, Note_on_c, 0, 80, 0
2, 26819, Note_on_c, 0, 49, 0
2, 26819, Note_on_c, 0, 56, 53
2, 26819, Note_on_c, 0, 61, 59
2, 26826, Note_on_c, 0, 73, 0
2, 26826, Note_on_c, 0, 77, 48
2, 26828, Note_on_c, 0, 65, 46
2, 26861, Note_on_c, 0, 65, 0
2, 26862, Note_on_c, 0, 61, 0
2, 26864, Note_on_c, 0, 56, 0
2, 26871, Note_on_c, 0, 82, 41
2, 26873, Note_on_c, 0, 70, 44
2, 26880, Note_on_c, 0, 77, 0
2, 26911, Note_on_c, 0, 56, 56
2, 26921, Note_on_c, 0, 44, 60
2, 26965, Note_on_c, 0, 56, 0
2, 27010, Note_on_c, 0, 70, 0
2, 27010, Note_on_c, 0, 77, 48
2, 27011, Note_on_c, 0, 68, 46
2, 27011, Note_on_c, 0, 73, 48
2, 27012, Note_on_c, 0, 61, 58
2, 27012, Note_on_c, 0, 65, 42
2, 27014, Note_on_c, 0, 44, 0
2, 27019, Note_on_c, 0, 82, 0
2, 27049, Note_on_c, 0, 68, 0
2, 27049, Note_on_c, 0, 65, 0
2, 27050, Note_on_c, 0, 61, 0
2, 27094, Note_on_c, 0, 77, 0
2, 27095, Note_on_c, 0, 73, 0
2, 27103, Note_on_c, 0, 84, 48
2, 27104, Note_on_c, 0, 79, 46
2, 27105, Note_on_c, 0, 72, 46
2, 27107, Note_on_c, 0, 58, 60
2, 27108, Note_on_c, 0, 46, 54
2, 27140, Note_on_c, 0, 79, 0
2, 27192, Note_on_c, 0, 82, 43
2, 27193, Note_on_c, 0, 79, 46
2, 27194, Note_on_c, 0, 70, 46
2, 27194, Note_on_c, 0, 63, 56
2, 27195, Note_on_c, 0, 55, 58
2, 27195, Note_on_c, 0, 61, 56
2, 27200, Note_on_c, 0, 84, 0
2, 27201, Note_on_c, 0, 72, 0
2, 27204, Note_on_c, 0, 58, 0
2, 27205, Note_on_c, 0, 46, 0
2, 27229, Note_on_c, 0, 55, 0
2, 27229, Note_on_c, 0, 61, 0
2, 27241, Note_on_c, 0, 63, 0
2, 27243, Note_on_c, 0, 79, 0
2, 27281, Note_on_c, 0, 84, 41
2, 27282, Note_on_c, 0, 72, 44
2, 27284, Note_on_c, 0, 51, 55
2, 27286, Note_on_c, 0, 39, 56
2, 27289, Note_on_c, 0, 82, 0
2, 27290, Note_on_c, 0, 70, 0
2, 27326, Note_on_c, 0, 82, 42
2, 27327, Note_on_c, 0, 79, 41
2, 27329, Note_on_c, 0, 70, 47
2, 27335, Note_on_c, 0, 84, 0
2, 27338, Note_on_c, 0, 72, 0
2, 27367, Note_on_c, 0, 51, 0
2, 27369, Note_on_c, 0, 39, 0
2, 27376, Note_on_c, 0, 67, 41
2, 27377, Note_on_c, 0, 61, 57
2, 27377, Note_on_c, 0, 63, 60
2, 27404, Note_on_c, 0, 61, 0
2, 27411, Note_on_c, 0, 67, 0
2, 27412, Note_on_c, 0, 63, 0
2, 27459, Note_on_c, 0, 56, 57
2, 27460, Note_on_c, 0, 44, 58
2, 27464, Note_on_c, 0, 87, 48
2, 27466, Note_on_c, 0, 75, 41
2, 27466, Note_on_c, 0, 78, 45
2, 27467, Note_on_c, 0, 68, 47
2, 27474, Note_on_c, 0, 79, 0
2, 27474, Note_on_c, 0, 82, 0
2, 27475, Note_on_c, 0, 70, 0
2, 27555, Note_on_c, 0, 69, 46
2, 27558, Note_on_c, 0, 57, 58
2, 27560, Note_on_c, 0, 45, 56
2, 27564, Note_on_c, 0, 68, 0
2, 27567, Note_on_c, 0, 56, 0
2, 27569, Note_on_c, 0, 44, 0
2, 27602, Note_on_c, 0, 70, 44
2, 27603, Note_on_c, 0, 58, 57
2, 27605, Note_on_c, 0, 46, 58
2, 27610, Note_on_c, 0, 69, 0
2, 27612, Note_on_c, 0, 57, 0
2, 27614, Note_on_c, 0, 45, 0
2, 27697, Note_on_c, 0, 71, 47
2, 27698, Note_on_c, 0, 59, 53
2, 27701, Note_on_c, 0, 47, 56
2, 27705, Note_on_c, 0, 70, 0
2, 27708, Note_on_c, 0, 58, 0
2, 27710, Note_on_c, 0, 46, 0
2, 27745, Note_on_c, 0, 72, 42
2, 27747, Note_on_c, 0, 48, 58
2, 27747, Note_on_c, 0, 60, 55
2, 27753, Note_on_c, 0, 71, 0
2, 27755, Note_on_c, 0, 59, 0
2, 27757, Note_on_c, 0, 47, 0
2, 27772, Note_on_c, 0, 80, 42
2, 27792, Note_on_c, 0, 82, 41
2, 27809, Note_on_c, 0, 80, 0
2, 27818, Note_on_c, 0, 84, 41
2, 27826, Note_on_c, 0, 82, 0
2, 27836, Note_on_c, 0, 77, 47
2, 27836, Note_on_c, 0, 85, 45
2, 27841, Note_on_c, 0, 49, 59
2, 27842, Note_on_c, 0, 37, 59
2, 27843, Note_on_c, 0, 87, 0
2, 27844, Note_on_c, 0, 84, 0
2, 27845, Note_on_c, 0, 75, 0
2, 27845, Note_on_c, 0, 78, 0
2, 27845, Note_on_c, 0, 72, 0
2, 27848, Note_on_c, 0, 60, 0
2, 27849, Note_on_c, 0, 48, 0
2, 27882, Note_on_c, 0, 82, 46
2, 27889, Note_on_c, 0, 85, 0
2, 27890, Note_on_c, 0, 77, 0
2, 27928, Note_on_c, 0, 84, 48
2, 27931, Note_on_c, 0, 61, 58
2, 27931, Note_on_c, 0, 65, 45
2, 27933, Note_on_c, 0, 56, 60
2, 27937, Note_on_c, 0, 82, 0
2, 27942, Note_on_c, 0, 49, 0
2, 27943, Note_on_c, 0, 37, 0
2, 27966, Note_on_c, 0, 65, 0
2, 27967, Note_on_c, 0, 56, 0
2, 27967, Note_on_c, 0, 61, 0
2, 27975, Note_on_c, 0, 80, 45
2, 27983, Note_on_c, 0, 84, 0
2, 28022, Note_on_c, 0, 82, 44
2, 28027, Note_on_c, 0, 56, 58
2, 28028, Note_on_c, 0, 44, 56
2, 28031, Note_on_c, 0, 80, 0
2, 28068, Note_on_c, 0, 82, 0
2, 28069, Note_on_c, 0, 80, 47
2, 28073, Note_on_c, 0, 56, 0
2, 28105, Note_on_c, 0, 80, 0
2, 28110, Note_on_c, 0, 44, 0
2, 28116, Note_on_c, 0, 77, 41
2, 28117, Note_on_c, 0, 68, 48
2, 28118, Note_on_c, 0, 65, 48
2, 28119, Note_on_c, 0, 61, 57
2, 28142, Note_on_c, 0, 68, 0
2, 28144, Note_on_c, 0, 61, 0
2, 28152, Note_on_c, 0, 65, 0
2, 28202, Note_on_c, 0, 80, 44
2, 28203, Note_on_c, 0, 68, 43
2, 28206, Note_on_c, 0, 37, 55
2, 28206, Note_on_c, 0, 49, 55
2, 28210, Note_on_c, 0, 77, 0
2, 28238, Note_on_c, 0, 73, 43
2, 28245, Note_on_c, 0, 80, 0
2, 28246, Note_on_c, 0, 68, 0
2, 28290, Note_on_c, 0, 77, 44
2, 28291, Note_on_c, 0, 65, 48
2, 28292, Note_on_c, 0, 61, 55
2, 28293, Note_on_c, 0, 56, 58
2, 28294, Note_on_c, 0, 37, 0
2, 28298, Note_on_c, 0, 73, 0
2, 28301, Note_on_c, 0, 49, 0
2, 28325, Note_on_c, 0, 65, 0
2, 28325, Note_on_c, 0, 61, 0
2, 28326, Note_on_c, 0, 56, 0
2, 28334, Note_on_c, 0, 82, 48
2, 28335, Note_on_c, 0, 70, 43
2, 28342, Note_on_c, 0, 77, 0
2, 28380, Note_on_c, 0, 58, 55
2, 28381, Note_on_c, 0, 46, 60
2, 28430, Note_on_c, 0, 58, 0
2, 28463, Note_on_c, 0, 77, 41
2, 28465, Note_on_c, 0, 73, 41
2, 28466, Note_on_c, 0, 58, 55
2, 28466, Note_on_c, 0, 61, 55
2, 28471, Note_on_c, 0, 82, 0
2, 28472, Note_on_c, 0, 70, 0
2, 28475, Note_on_c, 0, 46, 0
2, 28507, Note_on_c, 0, 73, 0
2, 28508, Note_on_c, 0, 61, 0
2, 28508, Note_on_c, 0, 58, 0
2, 28514, Note_on_c, 0, 77, 0
2, 28550, Note_on_c, 0, 77, 42
2, 28551, Note_on_c, 0, 58, 59
2, 28551, Note_on_c, 0, 67, 45
2, 28551, Note_on_c, 0, 73, 46
2, 28553, Note_on_c, 0, 46, 54
2, 28568, Note_on_c, 0, 73, 0
2, 28595, Note_on_c, 0, 73, 46
2, 28602, Note_on_c, 0, 77, 0
2, 28603, Note_on_c, 0, 58, 0
2, 28604, Note_on_c, 0, 67, 0
2, 28637, Note_on_c, 0, 73, 0
2, 28638, Note_on_c, 0, 75, 42
2, 28640, Note_on_c, 0, 46, 0
2, 28640, Note_on_c, 0, 51, 57
2, 28640, Note_on_c, 0, 55, 54
2, 28640, Note_on_c, 0, 61, 56
2, 28674, Note_on_c, 0, 61, 0
2, 28675, Note_on_c, 0, 55, 0
2, 28675, Note_on_c, 0, 51, 0
2, 28682, Note_on_c, 0, 77, 41
2, 28683, Note_on_c, 0, 67, 42
2, 28683, Note_on_c, 0, 73, 41
2, 28690, Note_on_c, 0, 75, 0
2, 28720, Note_on_c, 0, 58, 60
2, 28721, Note_on_c, 0, 46, 54
2, 28737, Note_on_c, 0, 73, 0
2, 28775, Note_on_c, 0, 73, 45
2, 28781, Note_on_c, 0, 77, 0
2, 28782, Note_on_c, 0, 67, 0
2, 28818, Note_on_c, 0, 72, 45
2, 28818, Note_on_c, 0, 75, 42
2, 28820, Note_on_c, 0, 66, 43
2, 28821, Note_on_c, 0, 44, 53
2, 28821, Note_on_c, 0, 56, 57
2, 28827, Note_on_c, 0, 73, 0
2, 28828, Note_on_c, 0, 58, 0
2, 28829, Note_on_c, 0, 46, 0
2, 28898, Note_on_c, 0, 72, 0
2, 28898, Note_on_c, 0, 75, 0
2, 28898, Note_on_c, 0, 66, 0
2, 28908, Note_on_c, 0, 65, 42
2, 28908, Note_on_c, 0, 73, 46
2, 28909, Note_on_c, 0, 61, 55
2, 28910, Note_on_c, 0, 49, 56
2, 28917, Note_on_c, 0, 56, 0
2, 28919, Note_on_c, 0, 44, 0
2, 28992, Note_on_c, 0, 61, 0
2, 28994, Note_on_c, 0, 49, 0
2, 29003, Note_on_c, 0, 48, 60
2, 29003, Note_on_c, 0, 60, 56
2, 29079, Note_on_c, 0, 60, 0
2, 29099, Note_on_c, 0, 58, 59
2, 29100, Note_on_c, 0, 46, 55
2, 29108, Note_on_c, 0, 48, 0
2, 29162, Note_on_c, 0, 58, 0
2, 29191, Note_on_c, 0, 56, 57
2, 29192, Note_on_c, 0, 44, 56
2, 29200, Note_on_c, 0, 46, 0
2, 29284, Note_on_c, 0, 58, 56
2, 29285, Note_on_c, 0, 46, 55
2, 29291, Note_on_c, 0, 73, 0
2, 29292, Note_on_c, 0, 65, 0
2, 29294, Note_on_c, 0, 56, 0
2, 29295, Note_on_c, 0, 44, 0
2, 29425, Note_on_c, 0, 48, 56
2, 29431, Note_on_c, 0, 58, 0
2, 29433, Note_on_c, 0, 46, 0
2, 29433, Note_on_c, 0, 60, 53
2, 29480, Note_on_c, 0, 61, 53
2, 29481, Note_on_c, 0, 49, 57
2, 29488, Note_on_c, 0, 60, 0
2, 29489, Note_on_c, 0, 48, 0
2, 29571, Note_on_c, 0, 63, 59
2, 29572, Note_on_c, 0, 51, 53
2, 29579, Note_on_c, 0, 61, 0
2, 29582, Note_on_c, 0, 49, 0
2, 29666, Note_on_c, 0, 52, 58
2, 29666, Note_on_c, 0, 64, 54
2, 29672, Note_on_c, 0, 63, 0
2, 29674, Note_on_c, 0, 51, 0
2, 29711, Note_on_c, 0, 65, 46
2, 29713, Note_on_c, 0, 53, 58
2, 29719, Note_on_c, 0, 64, 0
2, 29720, Note_on_c, 0, 52, 0
2, 29803, Note_on_c, 0, 61, 59
2, 29804, Note_on_c, 0, 49, 56
2, 29810, Note_on_c, 0, 65, 0
2, 29812, Note_on_c, 0, 53, 0
2, 29848, Note_on_c, 0, 58, 57
2, 29849, Note_on_c, 0, 46, 55
2, 29856, Note_on_c, 0, 61, 0
2, 29858, Note_on_c, 0, 49, 0
2, 29936, Note_on_c, 0, 73, 48
2, 29939, Note_on_c, 0, 46, 0
2, 29939, Note_on_c, 0, 61, 57
2, 29947, Note_on_c, 0, 58, 0
2, 29973, Note_on_c, 0, 75, 41
2, 29976, Note_on_c, 0, 63, 59
2, 29982, Note_on_c, 0, 73, 0
2, 29983, Note_on_c, 0, 61, 0
2, 30025, Note_on_c, 0, 44, 59
2, 30025, Note_on_c, 0, 56, 58
2, 30029, Note_on_c, 0, 77, 48
2, 30031, Note_on_c, 0, 63, 0
2, 30031, Note_on_c, 0, 68, 42
2, 30031, Note_on_c, 0, 73, 44
2, 30039, Note_on_c, 0, 75, 0
2, 30067, Note_on_c, 0, 73, 0
2, 30123, Note_on_c, 0, 68, 0
2, 30124, Note_on_c, 0, 67, 46
2, 30124, Note_on_c, 0, 76, 48
2, 30125, Note_on_c, 0, 56, 0
2, 30125, Note_on_c, 0, 73, 41
2, 30126, Note_on_c, 0, 57, 57
2, 30127, Note_on_c, 0, 44, 0
2, 30128, Note_on_c, 0, 45, 56
2, 30131, Note_on_c, 0, 77, 0
2, 30170, Note_on_c, 0, 73, 0
2, 30218, Note_on_c, 0, 77, 48
2, 30219, Note_on_c, 0, 68, 47
2, 30219, Note_on_c, 0, 73, 43
2, 30221, Note_on_c, 0, 56, 58
2, 30222, Note_on_c, 0, 44, 57
2, 30227, Note_on_c, 0, 76, 0
2, 30229, Note_on_c, 0, 67, 0
2, 30230, Note_on_c, 0, 45, 0
2, 30230, Note_on_c, 0, 57, 0
2, 30237, Note_on_c, 0, 73, 0
2, 30267, Note_on_c, 0, 73, 45
2, 30275, Note_on_c, 0, 77, 0
2, 30275, Note_on_c, 0, 68, 0
2, 30278, Note_on_c, 0, 56, 0
2, 30280, Note_on_c, 0, 44, 0
2, 30316, Note_on_c, 0, 72, 46
2, 30316, Note_on_c, 0, 75, 48
2, 30317, Note_on_c, 0, 66, 43
2, 30319, Note_on_c, 0, 56, 60
2, 30320, Note_on_c, 0, 44, 60
2, 30325, Note_on_c, 0, 73, 0
2, 30414, Note_on_c, 0, 73, 45
2, 30415, Note_on_c, 0, 65, 45
2, 30416, Note_on_c, 0, 61, 55
2, 30417, Note_on_c, 0, 49, 58
2, 30422, Note_on_c, 0, 75, 0
2, 30423, Note_on_c, 0, 72, 0
2, 30424, Note_on_c, 0, 66, 0
2, 30426, Note_on_c, 0, 56, 0
2, 30427, Note_on_c, 0, 44, 0
2, 30513, Note_on_c, 0, 44, 57
2, 30513, Note_on_c, 0, 56, 56
2, 30518, Note_on_c, 0, 73, 0
2, 30519, Note_on_c, 0, 65, 0
2, 30520, Note_on_c, 0, 61, 0
2, 30522, Note_on_c, 0, 49, 0
2, 30602, Note_on_c, 0, 77, 44
2, 30602, Note_on_c, 0, 85, 45
2, 30604, Note_on_c, 0, 73, 48
2, 30606, Note_on_c, 0, 49, 55
2, 30607, Note_on_c, 0, 37, 60
2, 30614, Note_on_c, 0, 56, 0
2, 30616, Note_on_c, 0, 44, 0
2, 30696, Note_on_c, 0, 77, 0
2, 30697, Note_on_c, 0, 73, 0
2, 30699, Note_on_c, 0, 49, 0
2, 30701, Note_on_c, 0, 37, 0
2, 30703, Note_on_c, 0, 85, 0
2, 30723, Note_on_c, 0, 80, 47
2, 30744, Note_on_c, 0, 82, 42
2, 30762, Note_on_c, 0, 80, 0
2, 30772, Note_on_c, 0, 84, 43
2, 30779, Note_on_c, 0, 82, 0
2, 30785, Note_on_c, 0, 49, 57
2, 30787, Note_on_c, 0, 37, 56
2, 30790, Note_on_c, 0, 84, 0
2, 30790, Note_on_c, 0, 85, 44
2, 30792, Note_on_c, 0, 77, 42
2, 30827, Note_on_c, 0, 82, 41
2, 30834, Note_on_c, 0, 85, 0
2, 30843, Note_on_c, 0, 77, 0
2, 30874, Note_on_c, 0, 56, 54
2, 30874, Note_on_c, 0, 61, 53
2, 30875, Note_on_c, 0, 37, 0
2, 30878, Note_on_c, 0, 82, 0
2, 30880, Note_on_c, 0, 84, 45
2, 30882, Note_on_c, 0, 65, 41
2, 30883, Note_on_c, 0, 49, 0
2, 30915, Note_on_c, 0, 65, 0
2, 30916, Note_on_c, 0, 61, 0
2, 30917, Note_on_c, 0, 56, 0
2, 30924, Note_on_c, 0, 80, 45
2, 30931, Note_on_c, 0, 84, 0
2, 30970, Note_on_c, 0, 82, 48
2, 30972, Note_on_c, 0, 56, 58
2, 30973, Note_on_c, 0, 44, 59
2, 30978, Note_on_c, 0, 80, 0
2, 31009, Note_on_c, 0, 56, 0
2, 31015, Note_on_c, 0, 80, 42
2, 31024, Note_on_c, 0, 82, 0
2, 31062, Note_on_c, 0, 77, 41
2, 31063, Note_on_c, 0, 65, 45
2, 31065, Note_on_c, 0, 44, 0
2, 31065, Note_on_c, 0, 56, 60
2, 31065, Note_on_c, 0, 61, 56
2, 31071, Note_on_c, 0, 80, 0
2, 31099, Note_on_c, 0, 65, 0
2, 31101, Note_on_c, 0, 56, 0
2, 31101, Note_on_c, 0, 61, 0
2, 31149, Note_on_c, 0, 37, 56
2, 31154, Note_on_c, 0, 80, 48
2, 31156, Note_on_c, 0, 68, 44
2, 31159, Note_on_c, 0, 49, 56
2, 31164, Note_on_c, 0, 77, 0
2, 31200, Note_on_c, 0, 73, 46
2, 31206, Note_on_c, 0, 80, 0
2, 31207, Note_on_c, 0, 68, 0
2, 31243, Note_on_c, 0, 73, 0
2, 31243, Note_on_c, 0, 77, 44
2, 31244, Note_on_c, 0, 65, 42
2, 31245, Note_on_c, 0, 49, 0
2, 31246, Note_on_c, 0, 37, 0
2, 31246, Note_on_c, 0, 56, 60
2, 31246, Note_on_c, 0, 61, 57
2, 31279, Note_on_c, 0, 65, 0
2, 31280, Note_on_c, 0, 61, 0
2, 31280, Note_on_c, 0, 56, 0
2, 31288, Note_on_c, 0, 82, 45
2, 31289, Note_on_c, 0, 70, 42
2, 31296, Note_on_c, 0, 77, 0
2, 31325, Note_on_c, 0, 58, 55
2, 31326, Note_on_c, 0, 46, 59
2, 31361, Note_on_c, 0, 58, 0
2, 31422, Note_on_c, 0, 77, 42
2, 31423, Note_on_c, 0, 73, 41
2, 31424, Note_on_c, 0, 46, 0
2, 31424, Note_on_c, 0, 58, 54
2, 31425, Note_on_c, 0, 53, 59
2, 31425, Note_on_c, 0, 61, 55
2, 31431, Note_on_c, 0, 82, 0
2, 31432, Note_on_c, 0, 70, 0
2, 31451, Note_on_c, 0, 58, 0
2, 31451, Note_on_c, 0, 61, 0
2, 31452, Note_on_c, 0, 53, 0
2, 31467, Note_on_c, 0, 73, 0
2, 31467, Note_on_c, 0, 77, 0
2, 31514, Note_on_c, 0, 77, 43
2, 31514, Note_on_c, 0, 67, 47
2, 31515, Note_on_c, 0, 58, 60
2, 31517, Note_on_c, 0, 46, 59
2, 31559, Note_on_c, 0, 73, 48
2, 31566, Note_on_c, 0, 77, 0
2, 31567, Note_on_c, 0, 67, 0
2, 31603, Note_on_c, 0, 75, 46
2, 31604, Note_on_c, 0, 51, 59
2, 31604, Note_on_c, 0, 61, 60
2, 31605, Note_on_c, 0, 55, 55
2, 31610, Note_on_c, 0, 73, 0
2, 31613, Note_on_c, 0, 46, 0
2, 31613, Note_on_c, 0, 58, 0
2, 31640, Note_on_c, 0, 61, 0
2, 31641, Note_on_c, 0, 55, 0
2, 31642, Note_on_c, 0, 51, 0
2, 31649, Note_on_c, 0, 67, 48
2, 31649, Note_on_c, 0, 77, 46
2, 31650, Note_on_c, 0, 73, 48
2, 31657, Note_on_c, 0, 75, 0
2, 31697, Note_on_c, 0, 58, 57
2, 31698, Note_on_c, 0, 46, 58
2, 31705, Note_on_c, 0, 73, 0
2, 31743, Note_on_c, 0, 73, 47
2, 31750, Note_on_c, 0, 77, 0
2, 31751, Note_on_c, 0, 67, 0
2, 31789, Note_on_c, 0, 73, 0
2, 31789, Note_on_c, 0, 72, 46
2, 31789, Note_on_c, 0, 75, 47
2, 31790, Note_on_c, 0, 66, 41
2, 31791, Note_on_c, 0, 46, 0
2, 31793, Note_on_c, 0, 44, 55
2, 31793, Note_on_c, 0, 56, 56
2, 31800, Note_on_c, 0, 58, 0
2, 31884, Note_on_c, 0, 65, 42
2, 31884, Note_on_c, 0, 73, 44
2, 31885, Note_on_c, 0, 61, 56
2, 31886, Note_on_c, 0, 49, 55
2, 31892, Note_on_c, 0, 75, 0
2, 31893, Note_on_c, 0, 66, 0
2, 31893, Note_on_c, 0, 72, 0
2, 31895, Note_on_c, 0, 56, 0
2, 31897, Note_on_c, 0, 44, 0
2, 31903, Note_on_c, 0, 61, 0
2, 31904, Note_on_c, 0, 49, 0
2, 31933, Note_on_c, 0, 61, 56
2, 31934, Note_on_c, 0, 49, 53
2, 31941, Note_on_c, 0, 65, 0
2, 31961, Note_on_c, 0, 61, 0
2, 31962, Note_on_c, 0, 63, 60
2, 31963, Note_on_c, 0, 49, 0
2, 31963, Note_on_c, 0, 51, 57
2, 31979, Note_on_c, 0, 73, 0
2, 31982, Note_on_c, 0, 65, 48
2, 31984, Note_on_c, 0, 53, 60
2, 31991, Note_on_c, 0, 63, 0
2, 31992, Note_on_c, 0, 51, 0
2, 32010, Note_on_c, 0, 65, 0
2, 32011, Note_on_c, 0, 66, 43
2, 32012, Note_on_c, 0, 53, 0
2, 32014, Note_on_c, 0, 54, 54
2, 32031, Note_on_c, 0, 68, 45
2, 32034, Note_on_c, 0, 56, 60
2, 32040, Note_on_c, 0, 66, 0
2, 32042, Note_on_c, 0, 54, 0
2, 32059, Note_on_c, 0, 68, 0
2, 32062, Note_on_c, 0, 56, 0
2, 32062, Note_on_c, 0, 70, 43
2, 32063, Note_on_c, 0, 58, 58
2, 32081, Note_on_c, 0, 72, 48
2, 32084, Note_on_c, 0, 60, 57
2, 32090, Note_on_c, 0, 70, 0
2, 32091, Note_on_c, 0, 58, 0
2, 32111, Note_on_c, 0, 72, 0
2, 32112, Note_on_c, 0, 60, 0
2, 32112, Note_on_c, 0, 73, 44
2, 32113, Note_on_c, 0, 61, 57
2, 32131, Note_on_c, 0, 61, 0
2, 32131, Note_on_c, 0, 75, 47
2, 32133, Note_on_c, 0, 63, 57
2, 32139, Note_on_c, 0, 73, 0
2, 32159, Note_on_c, 0, 75, 0
2, 32159, Note_on_c, 0, 77, 47
2, 32160, Note_on_c, 0, 63, 0
2, 32162, Note_on_c, 0, 65, 47
2, 32179, Note_on_c, 0, 78, 47
2, 32180, Note_on_c, 0, 66, 45
2, 32186, Note_on_c, 0, 77, 0
2, 32187, Note_on_c, 0, 65, 0
2, 32195, Note_on_c, 0, 78, 0
2, 32204, Note_on_c, 0, 80, 45
2, 32206, Note_on_c, 0, 66, 0
2, 32207, Note_on_c, 0, 68, 44
2, 32216, Note_on_c, 0, 70, 47
2, 32222, Note_on_c, 0, 80, 0
2, 32224, Note_on_c, 0, 82, 47
2, 32225, Note_on_c, 0, 68, 0
2, 32250, Note_on_c, 0, 82, 0
2, 32251, Note_on_c, 0, 70, 0
2, 32252, Note_on_c, 0, 72, 44
2, 32252, Note_on_c, 0, 84, 45
2, 32269, Note_on_c, 0, 85, 44
2, 32270, Note_on_c, 0, 77, 42
2, 32273, Note_on_c, 0, 61, 60
2, 32274, Note_on_c, 0, 49, 60
2, 32278, Note_on_c, 0, 84, 0
2, 32280, Note_on_c, 0, 72, 0
2, 32316, Note_on_c, 0, 82, 43
2, 32323, Note_on_c, 0, 85, 0
2, 32324, Note_on_c, 0, 77, 0
2, 32327, Note_on_c, 0, 61, 0
2, 32362, Note_on_c, 0, 84, 45
2, 32364, Note_on_c, 0, 65, 41
2, 32365, Note_on_c, 0, 49, 0
2, 32365, Note_on_c, 0, 61, 56
2, 32366, Note_on_c, 0, 56, 56
2, 32370, Note_on_c, 0, 82, 0
2, 32401, Note_on_c, 0, 65, 0
2, 32402, Note_on_c, 0, 61, 0
2, 32402, Note_on_c, 0, 56, 0
2, 32409, Note_on_c, 0, 80, 44
2, 32418, Note_on_c, 0, 84, 0
2, 32452, Note_on_c, 0, 44, 56
2, 32457, Note_on_c, 0, 82, 48
2, 32461, Note_on_c, 0, 56, 57
2, 32466, Note_on_c, 0, 80, 0
2, 32503, Note_on_c, 0, 80, 44
2, 32507, Note_on_c, 0, 56, 0
2, 32513, Note_on_c, 0, 82, 0
2, 32550, Note_on_c, 0, 77, 42
2, 32552, Note_on_c, 0, 65, 42
2, 32552, Note_on_c, 0, 68, 44
2, 32553, Note_on_c, 0, 61, 54
2, 32555, Note_on_c, 0, 44, 0
2, 32559, Note_on_c, 0, 80, 0
2, 32587, Note_on_c, 0, 68, 0
2, 32588, Note_on_c, 0, 65, 0
2, 32588, Note_on_c, 0, 61, 0
2, 32637, Note_on_c, 0, 49, 56
2, 32642, Note_on_c, 0, 80, 43
2, 32644, Note_on_c, 0, 68, 46
2, 32645, Note_on_c, 0, 61, 56
2, 32651, Note_on_c, 0, 77, 0
2, 32690, Note_on_c, 0, 68, 0
2, 32690, Note_on_c, 0, 73, 46
2, 32691, Note_on_c, 0, 61, 0
2, 32697, Note_on_c, 0, 80, 0
2, 32732, Note_on_c, 0, 65, 41
2, 32733, Note_on_c, 0, 49, 0
2, 32733, Note_on_c, 0, 56, 58
2, 32733, Note_on_c, 0, 61, 57
2, 32739, Note_on_c, 0, 73, 0
2, 32739, Note_on_c, 0, 77, 46
2, 32769, Note_on_c, 0, 65, 0
2, 32770, Note_on_c, 0, 61, 0
2, 32771, Note_on_c, 0, 56, 0
2, 32788, Note_on_c, 0, 82, 46
2, 32790, Note_on_c, 0, 70, 48
2, 32797, Note_on_c, 0, 77, 0
2, 32820, Note_on_c, 0, 44, 56
2, 32840, Note_on_c, 0, 56, 55
2, 32894, Note_on_c, 0, 56, 0
2, 32930, Note_on_c, 0, 77, 43
2, 32931, Note_on_c, 0, 68, 47
2, 32931, Note_on_c, 0, 73, 46
2, 32932, Note_on_c, 0, 61, 55
2, 32932, Note_on_c, 0, 65, 47
2, 32937, Note_on_c, 0, 82, 0
2, 32939, Note_on_c, 0, 70, 0
2, 32944, Note_on_c, 0, 44, 0
2, 32967, Note_on_c, 0, 68, 0
2, 32968, Note_on_c, 0, 65, 0
2, 32969, Note_on_c, 0, 61, 0
2, 33024, Note_on_c, 0, 84, 47
2, 33025, Note_on_c, 0, 72, 42
2, 33025, Note_on_c, 0, 79, 46
2, 33027, Note_on_c, 0, 58, 54
2, 33029, Note_on_c, 0, 46, 53
2, 33033, Note_on_c, 0, 73, 0
2, 33033, Note_on_c, 0, 77, 0
2, 33071, Note_on_c, 0, 79, 0
2, 33120, Note_on_c, 0, 79, 46
2, 33120, Note_on_c, 0, 82, 45
2, 33122, Note_on_c, 0, 70, 46
2, 33122, Note_on_c, 0, 61, 58
2, 33122, Note_on_c, 0, 63, 60
2, 33123, Note_on_c, 0, 46, 0
2, 33123, Note_on_c, 0, 55, 56
2, 33127, Note_on_c, 0, 84, 0
2, 33129, Note_on_c, 0, 72, 0
2, 33132, Note_on_c, 0, 58, 0
2, 33159, Note_on_c, 0, 63, 0
2, 33159, Note_on_c, 0, 61, 0
2, 33160, Note_on_c, 0, 55, 0
2, 33176, Note_on_c, 0, 79, 0
2, 33214, Note_on_c, 0, 84, 43
2, 33215, Note_on_c, 0, 72, 41
2, 33215, Note_on_c, 0, 79, 43
2, 33218, Note_on_c, 0, 51, 57
2, 33220, Note_on_c, 0, 39, 57
2, 33222, Note_on_c, 0, 82, 0
2, 33224, Note_on_c, 0, 70, 0
2, 33232, Note_on_c, 0, 79, 0
2, 33261, Note_on_c, 0, 79, 43
2, 33262, Note_on_c, 0, 70, 44
2, 33262, Note_on_c, 0, 82, 45
2, 33268, Note_on_c, 0, 84, 0
2, 33270, Note_on_c, 0, 72, 0
2, 33307, Note_on_c, 0, 67, 47
2, 33308, Note_on_c, 0, 63, 59
2, 33309, Note_on_c, 0, 61, 58
2, 33317, Note_on_c, 0, 51, 0
2, 33319, Note_on_c, 0, 39, 0
2, 33342, Note_on_c, 0, 67, 0
2, 33343, Note_on_c, 0, 61, 0
2, 33343, Note_on_c, 0, 63, 0
2, 33396, Note_on_c, 0, 87, 48
2, 33397, Note_on_c, 0, 70, 0
2, 33397, Note_on_c, 0, 78, 45
2, 33398, Note_on_c, 0, 75, 48
2, 33400, Note_on_c, 0, 68, 46
2, 33402, Note_on_c, 0, 44, 57
2, 33402, Note_on_c, 0, 56, 54
2, 33406, Note_on_c, 0, 82, 0
2, 33406, Note_on_c, 0, 79, 0
2, 33485, Note_on_c, 0, 45, 59
2, 33485, Note_on_c, 0, 57, 56
2, 33491, Note_on_c, 0, 68, 0
2, 33492, Note_on_c, 0, 69, 42
2, 33494, Note_on_c, 0, 56, 0
2, 33495, Note_on_c, 0, 44, 0
2, 33537, Note_on_c, 0, 70, 41
2, 33539, Note_on_c, 0, 58, 55
2, 33541, Note_on_c, 0, 46, 57
2, 33546, Note_on_c, 0, 69, 0
2, 33549, Note_on_c, 0, 57, 0
2, 33549, Note_on_c, 0, 45, 0
2, 33626, Note_on_c, 0, 71, 45
2, 33628, Note_on_c, 0, 59, 55
2, 33629, Note_on_c, 0, 47, 56
2, 33634, Note_on_c, 0, 70, 0
2, 33636, Note_on_c, 0, 58, 0
2, 33637, Note_on_c, 0, 46, 0
2, 33670, Note_on_c, 0, 71, 0
2, 33670, Note_on_c, 0, 72, 46
2, 33672, Note_on_c, 0, 59, 0
2, 33673, Note_on_c, 0, 48, 57
2, 33673, Note_on_c, 0, 60, 56
2, 33674, Note_on_c, 0, 47, 0
2, 33688, Note_on_c, 0, 80, 44
2, 33706, Note_on_c, 0, 82, 42
2, 33723, Note_on_c, 0, 80, 0
2, 33732, Note_on_c, 0, 84, 46
2, 33741, Note_on_c, 0, 82, 0
2, 33758, Note_on_c, 0, 77, 48
2, 33758, Note_on_c, 0, 85, 48
2, 33763, Note_on_c, 0, 37, 56
2, 33763, Note_on_c, 0, 49, 58
2, 33768, Note_on_c, 0, 84, 0
2, 33768, Note_on_c, 0, 78, 0
2, 33769, Note_on_c, 0, 72, 0
2, 33769, Note_on_c, 0, 87, 0
2, 33769, Note_on_c, 0, 75, 0
2, 33770, Note_on_c, 0, 60, 0
2, 33770, Note_on_c, 0, 48, 0
2, 33805, Note_on_c, 0, 82, 48
2, 33812, Note_on_c, 0, 85, 0
2, 33813, Note_on_c, 0, 77, 0
2, 33849, Note_on_c, 0, 84, 42
2, 33851, Note_on_c, 0, 65, 46
2, 33852, Note_on_c, 0, 61, 56
2, 33853, Note_on_c, 0, 56, 58
2, 33858, Note_on_c, 0, 82, 0
2, 33862, Note_on_c, 0, 37, 0
2, 33862, Note_on_c, 0, 49, 0
2, 33885, Note_on_c, 0, 65, 0
2, 33887, Note_on_c, 0, 56, 0
2, 33887, Note_on_c, 0, 61, 0
2, 33893, Note_on_c, 0, 84, 0
2, 33893, Note_on_c, 0, 80, 42
2, 33938, Note_on_c, 0, 82, 43
2, 33940, Note_on_c, 0, 44, 59
2, 33940, Note_on_c, 0, 56, 53
2, 33945, Note_on_c, 0, 80, 0
2, 33981, Note_on_c, 0, 82, 0
2, 33982, Note_on_c, 0, 80, 41
2, 33984, Note_on_c, 0, 56, 0
2, 34027, Note_on_c, 0, 77, 41
2, 34028, Note_on_c, 0, 68, 48
2, 34029, Note_on_c, 0, 61, 53
2, 34029, Note_on_c, 0, 65, 42
2, 34030, Note_on_c, 0, 44, 0
2, 34035, Note_on_c, 0, 80, 0
2, 34055, Note_on_c, 0, 68, 0
2, 34056, Note_on_c, 0, 65, 0
2, 34057, Note_on_c, 0, 61, 0
2, 34111, Note_on_c, 0, 49, 53
2, 34119, Note_on_c, 0, 80, 42
2, 34121, Note_on_c, 0, 68, 48
2, 34125, Note_on_c, 0, 37, 54
2, 34130, Note_on_c, 0, 77, 0
2, 34168, Note_on_c, 0, 73, 48
2, 34176, Note_on_c, 0, 80, 0
2, 34177, Note_on_c, 0, 68, 0
2, 34213, Note_on_c, 0, 77, 46
2, 34215, Note_on_c, 0, 65, 41
2, 34216, Note_on_c, 0, 49, 0
2, 34216, Note_on_c, 0, 56, 59
2, 34216, Note_on_c, 0, 61, 58
2, 34217, Note_on_c, 0, 37, 0
2, 34223, Note_on_c, 0, 73, 0
2, 34250, Note_on_c, 0, 65, 0
2, 34251, Note_on_c, 0, 61, 0
2, 34252, Note_on_c, 0, 56, 0
2, 34260, Note_on_c, 0, 82, 42
2, 34261, Note_on_c, 0, 70, 47
2, 34269, Note_on_c, 0, 77, 0
2, 34301, Note_on_c, 0, 46, 56
2, 34309, Note_on_c, 0, 58, 56
2, 34354, Note_on_c, 0, 58, 0
2, 34401, Note_on_c, 0, 77, 45
2, 34402, Note_on_c, 0, 73, 44
2, 34403, Note_on_c, 0, 58, 53
2, 34404, Note_on_c, 0, 46, 0
2, 34404, Note_on_c, 0, 61, 54
2, 34411, Note_on_c, 0, 82, 0
2, 34412, Note_on_c, 0, 70, 0
2, 34442, Note_on_c, 0, 58, 0
2, 34442, Note_on_c, 0, 61, 0
2, 34450, Note_on_c, 0, 77, 0
2, 34451, Note_on_c, 0, 73, 0
2, 34501, Note_on_c, 0, 77, 46
2, 34502, Note_on_c, 0, 67, 42
2, 34503, Note_on_c, 0, 58, 53
2, 34503, Note_on_c, 0, 73, 48
2, 34505, Note_on_c, 0, 46, 59
2, 34521, Note_on_c, 0, 73, 0
2, 34548, Note_on_c, 0, 77, 0
2, 34549, Note_on_c, 0, 67, 0
2, 34550, Note_on_c, 0, 58, 0
2, 34550, Note_on_c, 0, 73, 48
2, 34596, Note_on_c, 0, 75, 46
2, 34599, Note_on_c, 0, 46, 0
2, 34599, Note_on_c, 0, 51, 59
2, 34599, Note_on_c, 0, 55, 54
2, 34599, Note_on_c, 0, 61, 54
2, 34606, Note_on_c, 0, 73, 0
2, 34635, Note_on_c, 0, 55, 0
2, 34635, Note_on_c, 0, 61, 0
2, 34635, Note_on_c, 0, 51, 0
2, 34643, Note_on_c, 0, 77, 47
2, 34644, Note_on_c, 0, 73, 45
2, 34645, Note_on_c, 0, 67, 47
2, 34653, Note_on_c, 0, 75, 0
2, 34684, Note_on_c, 0, 58, 53
2, 34685, Note_on_c, 0, 46, 54
2, 34700, Note_on_c, 0, 73, 0
2, 34740, Note_on_c, 0, 73, 46
2, 34748, Note_on_c, 0, 77, 0
2, 34749, Note_on_c, 0, 67, 0
2, 34786, Note_on_c, 0, 72, 44
2, 34786, Note_on_c, 0, 75, 43
2, 34787, Note_on_c, 0, 66, 43
2, 34788, Note_on_c, 0, 46, 0
2, 34789, Note_on_c, 0, 56, 55
2, 34790, Note_on_c, 0, 44, 54
2, 34796, Note_on_c, 0, 73, 0
2, 34798, Note_on_c, 0, 58, 0
2, 34882, Note_on_c, 0, 65, 45
2, 34882, Note_on_c, 0, 73, 41
2, 34884, Note_on_c, 0, 61, 55
2, 34885, Note_on_c, 0, 49, 58
2, 34890, Note_on_c, 0, 75, 0
2, 34891, Note_on_c, 0, 72, 0
2, 34892, Note_on_c, 0, 66, 0
2, 34893, Note_on_c, 0, 56, 0
2, 34894, Note_on_c, 0, 44, 0
2, 34965, Note_on_c, 0, 61, 0
2, 34975, Note_on_c, 0, 48, 54
2, 34975, Note_on_c, 0, 60, 53
2, 34984, Note_on_c, 0, 49, 0
2, 35057, Note_on_c, 0, 60, 0
2, 35067, Note_on_c, 0, 58, 59
2, 35068, Note_on_c, 0, 46, 54
2, 35076, Note_on_c, 0, 48, 0
2, 35141, Note_on_c, 0, 58, 0
2, 35162, Note_on_c, 0, 56, 54
2, 35163, Note_on_c, 0, 44, 56
2, 35171, Note_on_c, 0, 46, 0
2, 35247, Note_on_c, 0, 58, 55
2, 35249, Note_on_c, 0, 46, 56
2, 35255, Note_on_c, 0, 65, 0
2, 35257, Note_on_c, 0, 56, 0
2, 35258, Note_on_c, 0, 44, 0
2, 35264, Note_on_c, 0, 73, 0
2, 35398, Note_on_c, 0, 58, 0
2, 35399, Note_on_c, 0, 46, 0
2, 35399, Note_on_c, 0, 60, 53
2, 35400, Note_on_c, 0, 48, 60
2, 35446, Note_on_c, 0, 61, 58
2, 35449, Note_on_c, 0, 49, 59
2, 35456, Note_on_c, 0, 60, 0
2, 35457, Note_on_c, 0, 48, 0
2, 35542, Note_on_c, 0, 61, 0
2, 35544, Note_on_c, 0, 49, 0
2, 35544, Note_on_c, 0, 51, 60
2, 35544, Note_on_c, 0, 63, 57
2, 35637, Note_on_c, 0, 52, 55
2, 35637, Note_on_c, 0, 64, 57
2, 35644, Note_on_c, 0, 63, 0
2, 35646, Note_on_c, 0, 51, 0
2, 35683, Note_on_c, 0, 65, 41
2, 35687, Note_on_c, 0, 53, 60
2, 35692, Note_on_c, 0, 64, 0
2, 35694, Note_on_c, 0, 52, 0
2, 35781, Note_on_c, 0, 61, 53
2, 35783, Note_on_c, 0, 49, 55
2, 35788, Note_on_c, 0, 65, 0
2, 35791, Note_on_c, 0, 53, 0
2, 35830, Note_on_c, 0, 58, 55
2, 35832, Note_on_c, 0, 46, 54
2, 35838, Note_on_c, 0, 61, 0
2, 35840, Note_on_c, 0, 49, 0
2, 35923, Note_on_c, 0, 73, 43
2, 35926, Note_on_c, 0, 46, 0
2, 35926, Note_on_c, 0, 61, 54
2, 35933, Note_on_c, 0, 58, 0
2, 35959, Note_on_c, 0, 75, 41
2, 35960, Note_on_c, 0, 61, 0
2, 35961, Note_on_c, 0, 63, 57
2, 35969, Note_on_c, 0, 73, 0
2, 36010, Note_on_c, 0, 56, 54
2, 36011, Note_on_c, 0, 44, 54
2, 36015, Note_on_c, 0, 75, 0
2, 36015, Note_on_c, 0, 77, 46
2, 36017, Note_on_c, 0, 63, 0
2, 36017, Note_on_c, 0, 73, 46
2, 36018, Note_on_c, 0, 68, 48
2, 36052, Note_on_c, 0, 73, 0
2, 36109, Note_on_c, 0, 76, 41
2, 36110, Note_on_c, 0, 67, 45
2, 36110, Note_on_c, 0, 73, 46
2, 36112, Note_on_c, 0, 56, 0
2, 36112, Note_on_c, 0, 57, 54
2, 36114, Note_on_c, 0, 44, 0
2, 36114, Note_on_c, 0, 45, 54
2, 36118, Note_on_c, 0, 68, 0
2, 36118, Note_on_c, 0, 77, 0
2, 36146, Note_on_c, 0, 73, 0
2, 36194, Note_on_c, 0, 76, 0
2, 36203, Note_on_c, 0, 67, 0
2, 36203, Note_on_c, 0, 77, 45
2, 36205, Note_on_c, 0, 68, 42
2, 36205, Note_on_c, 0, 73, 47
2, 36206, Note_on_c, 0, 57, 0
2, 36207, Note_on_c, 0, 45, 0
2, 36207, Note_on_c, 0, 56, 60
2, 36208, Note_on_c, 0, 44, 56
2, 36222, Note_on_c, 0, 73, 0
2, 36251, Note_on_c, 0, 73, 43
2, 36252, Note_on_c, 0, 56, 0
2, 36254, Note_on_c, 0, 44, 0
2, 36258, Note_on_c, 0, 77, 0
2, 36259, Note_on_c, 0, 68, 0
2, 36296, Note_on_c, 0, 72, 48
2, 36296, Note_on_c, 0, 75, 43
2, 36297, Note_on_c, 0, 66, 44
2, 36298, Note_on_c, 0, 56, 56
2, 36299, Note_on_c, 0, 44, 53
2, 36305, Note_on_c, 0, 73, 0
2, 36382, Note_on_c, 0, 73, 42
2, 36384, Note_on_c, 0, 61, 57
2, 36384, Note_on_c, 0, 65, 48
2, 36385, Note_on_c, 0, 49, 55
2, 36390, Note_on_c, 0, 72, 0
2, 36390, Note_on_c, 0, 75, 0
2, 36391, Note_on_c, 0, 66, 0
2, 36392, Note_on_c, 0, 56, 0
2, 36394, Note_on_c, 0, 44, 0
2, 36466, Note_on_c, 0, 60, 60
2, 36472, Note_on_c, 0, 48, 59
2, 36479, Note_on_c, 0, 65, 0
2, 36479, Note_on_c, 0, 73, 0
2, 36480, Note_on_c, 0, 61, 0
2, 36482, Note_on_c, 0, 49, 0
2, 36542, Note_on_c, 0, 60, 0
2, 36562, Note_on_c, 0, 58, 54
2, 36563, Note_on_c, 0, 46, 56
2, 36571, Note_on_c, 0, 48, 0
2, 36642, Note_on_c, 0, 45, 54
2, 36650, Note_on_c, 0, 46, 0
2, 36650, Note_on_c, 0, 57, 60
2, 36658, Note_on_c, 0, 58, 0
2, 36739, Note_on_c, 0, 45, 0
2, 36739, Note_on_c, 0, 56, 58
2, 36740, Note_on_c, 0, 44, 54
2, 36747, Note_on_c, 0, 57, 0
2, 36833, Note_on_c, 0, 57, 58
2, 36834, Note_on_c, 0, 45, 53
2, 36842, Note_on_c, 0, 56, 0
2, 36843, Note_on_c, 0, 44, 0
2, 36881, Note_on_c, 0, 58, 53
2, 36882, Note_on_c, 0, 46, 54
2, 36890, Note_on_c, 0, 57, 0
2, 36890, Note_on_c, 0, 45, 0
2, 36974, Note_on_c, 0, 59, 54
2, 36975, Note_on_c, 0, 47, 56
2, 36983, Note_on_c, 0, 58, 0
2, 36984, Note_on_c, 0, 46, 0
2, 37021, Note_on_c, 0, 60, 58
2, 37022, Note_on_c, 0, 48, 53
2, 37030, Note_on_c, 0, 59, 0
2, 37031, Note_on_c, 0, 47, 0
2, 37113, Note_on_c, 0, 73, 42
2, 37116, Note_on_c, 0, 61, 59
2, 37117, Note_on_c, 0, 49, 60
2, 37125, Note_on_c, 0, 60, 0
2, 37126, Note_on_c, 0, 48, 0
2, 37163, Note_on_c, 0, 61, 0
2, 37202, Note_on_c, 0, 56, 57
2, 37209, Note_on_c, 0, 82, 48
2, 37211, Note_on_c, 0, 65, 47
2, 37212, Note_on_c, 0, 61, 56
2, 37219, Note_on_c, 0, 73, 0
2, 37222, Note_on_c, 0, 49, 0
2, 37238, Note_on_c, 0, 61, 0
2, 37246, Note_on_c, 0, 65, 0
2, 37248, Note_on_c, 0, 56, 0
2, 37251, Note_on_c, 0, 73, 42
2, 37255, Note_on_c, 0, 77, 47
2, 37255, Note_on_c, 0, 80, 42
2, 37264, Note_on_c, 0, 82, 0
2, 37305, Note_on_c, 0, 44, 59
2, 37305, Note_on_c, 0, 56, 54
2, 37339, Note_on_c, 0, 56, 0
2, 37346, Note_on_c, 0, 73, 0
2, 37346, Note_on_c, 0, 82, 45
2, 37354, Note_on_c, 0, 80, 0
2, 37354, Note_on_c, 0, 77, 0
2, 37392, Note_on_c, 0, 80, 45
2, 37394, Note_on_c, 0, 65, 44
2, 37395, Note_on_c, 0, 61, 57
2, 37396, Note_on_c, 0, 56, 53
2, 37400, Note_on_c, 0, 82, 0
2, 37405, Note_on_c, 0, 44, 0
2, 37429, Note_on_c, 0, 65, 0
2, 37430, Note_on_c, 0, 61, 0
2, 37431, Note_on_c, 0, 56, 0
2, 37487, Note_on_c, 0, 72, 43
2, 37489, Note_on_c, 0, 51, 60
2, 37490, Note_on_c, 0, 39, 57
2, 37492, Note_on_c, 0, 80, 0
2, 37571, Note_on_c, 0, 56, 59
2, 37580, Note_on_c, 0, 82, 45
2, 37583, Note_on_c, 0, 66, 45
2, 37585, Note_on_c, 0, 60, 59
2, 37590, Note_on_c, 0, 72, 0
2, 37593, Note_on_c, 0, 51, 0
2, 37595, Note_on_c, 0, 39, 0
2, 37618, Note_on_c, 0, 82, 0
2, 37621, Note_on_c, 0, 66, 0
2, 37621, Note_on_c, 0, 60, 0
2, 37622, Note_on_c, 0, 56, 0
2, 37629, Note_on_c, 0, 80, 41
2, 37630, Note_on_c, 0, 78, 42
2, 37631, Note_on_c, 0, 72, 44
2, 37681, Note_on_c, 0, 44, 59
2, 37681, Note_on_c, 0, 56, 59
2, 37711, Note_on_c, 0, 80, 0
2, 37712, Note_on_c, 0, 78, 0
2, 37713, Note_on_c, 0, 72, 0
2, 37715, Note_on_c, 0, 56, 0
2, 37723, Note_on_c, 0, 82, 42
2, 37760, Note_on_c, 0, 82, 0
2, 37769, Note_on_c, 0, 80, 44
2, 37770, Note_on_c, 0, 78, 45
2, 37771, Note_on_c, 0, 72, 42
2, 37772, Note_on_c, 0, 66, 45
2, 37773, Note_on_c, 0, 60, 59
2, 37774, Note_on_c, 0, 56, 59
2, 37783, Note_on_c, 0, 44, 0
2, 37807, Note_on_c, 0, 66, 0
2, 37808, Note_on_c, 0, 60, 0
2, 37808, Note_on_c, 0, 56, 0
2, 37862, Note_on_c, 0, 80, 0
2, 37863, Note_on_c, 0, 78, 0
2, 37863, Note_on_c, 0, 72, 0
2, 37864, Note_on_c, 0, 73, 43
2, 37868, Note_on_c, 0, 49, 57
2, 37871, Note_on_c, 0, 37, 57
2, 37954, Note_on_c, 0, 56, 57
2, 37955, Note_on_c, 0, 37, 0
2, 37959, Note_on_c, 0, 82, 47
2, 37960, Note_on_c, 0, 73, 0
2, 37961, Note_on_c, 0, 65, 44
2, 37963, Note_on_c, 0, 49, 0
2, 37963, Note_on_c, 0, 61, 55
2, 37989, Note_on_c, 0, 61, 0
2, 37990, Note_on_c, 0, 56, 0
2, 37995, Note_on_c, 0, 82, 0
2, 37996, Note_on_c, 0, 65, 0
2, 38004, Note_on_c, 0, 80, 45
2, 38005, Note_on_c, 0, 77, 43
2, 38006, Note_on_c, 0, 73, 45
2, 38044, Note_on_c, 0, 56, 56
2, 38045, Note_on_c, 0, 44, 53
2, 38077, Note_on_c, 0, 77, 0
2, 38078, Note_on_c, 0, 73, 0
2, 38086, Note_on_c, 0, 80, 0
2, 38096, Note_on_c, 0, 82, 44
2, 38109, Note_on_c, 0, 56, 0
2, 38133, Note_on_c, 0, 82, 0
2, 38142, Note_on_c, 0, 80, 41
2, 38143, Note_on_c, 0, 77, 41
2, 38144, Note_on_c, 0, 73, 44
2, 38145, Note_on_c, 0, 65, 45
2, 38146, Note_on_c, 0, 61, 57
2, 38148, Note_on_c, 0, 56, 56
2, 38158, Note_on_c, 0, 44, 0
2, 38181, Note_on_c, 0, 65, 0
2, 38183, Note_on_c, 0, 61, 0
2, 38184, Note_on_c, 0, 56, 0
2, 38244, Note_on_c, 0, 44, 57
2, 38244, Note_on_c, 0, 56, 60
2, 38248, Note_on_c, 0, 80, 0
2, 38248, Note_on_c, 0, 77, 0
2, 38249, Note_on_c, 0, 73, 0
2, 38337, Note_on_c, 0, 57, 59
2, 38339, Note_on_c, 0, 45, 54
2, 38347, Note_on_c, 0, 56, 0
2, 38349, Note_on_c, 0, 44, 0
2, 38385, Note_on_c, 0, 58, 58
2, 38386, Note_on_c, 0, 46, 56
2, 38394, Note_on_c, 0, 57, 0
2, 38395, Note_on_c, 0, 45, 0
2, 38480, Note_on_c, 0, 59, 58
2, 38482, Note_on_c, 0, 47, 53
2, 38489, Note_on_c, 0, 58, 0
2, 38491, Note_on_c, 0, 46, 0
2, 38529, Note_on_c, 0, 60, 55
2, 38530, Note_on_c, 0, 48, 57
2, 38538, Note_on_c, 0, 59, 0
2, 38540, Note_on_c, 0, 47, 0
2, 38625, Note_on_c, 0, 73, 43
2, 38626, Note_on_c, 0, 61, 55
2, 38627, Note_on_c, 0, 48, 0
2, 38628, Note_on_c, 0, 49, 58
2, 38635, Note_on_c, 0, 60, 0
2, 38672, Note_on_c, 0, 61, 0
2, 38712, Note_on_c, 0, 56, 56
2, 38717, Note_on_c, 0, 82, 48
2, 38718, Note_on_c, 0, 65, 41
2, 38719, Note_on_c, 0, 61, 57
2, 38720, Note_on_c, 0, 49, 0
2, 38726, Note_on_c, 0, 73, 0
2, 38753, Note_on_c, 0, 65, 0
2, 38754, Note_on_c, 0, 61, 0
2, 38755, Note_on_c, 0, 56, 0
2, 38762, Note_on_c, 0, 77, 42
2, 38762, Note_on_c, 0, 80, 42
2, 38764, Note_on_c, 0, 73, 47
2, 38770, Note_on_c, 0, 82, 0
2, 38811, Note_on_c, 0, 56, 56
2, 38812, Note_on_c, 0, 44, 59
2, 38846, Note_on_c, 0, 56, 0
2, 38853, Note_on_c, 0, 73, 0
2, 38853, Note_on_c, 0, 82, 47
2, 38860, Note_on_c, 0, 77, 0
2, 38860, Note_on_c, 0, 80, 0
2, 38898, Note_on_c, 0, 80, 48
2, 38899, Note_on_c, 0, 77, 41
2, 38901, Note_on_c, 0, 68, 43
2, 38902, Note_on_c, 0, 65, 44
2, 38902, Note_on_c, 0, 73, 44
2, 38903, Note_on_c, 0, 61, 58
2, 38907, Note_on_c, 0, 82, 0
2, 38913, Note_on_c, 0, 44, 0
2, 38929, Note_on_c, 0, 61, 0
2, 38936, Note_on_c, 0, 68, 0
2, 38936, Note_on_c, 0, 65, 0
2, 38991, Note_on_c, 0, 75, 48
2, 38995, Note_on_c, 0, 58, 54
2, 38996, Note_on_c, 0, 46, 60
2, 38999, Note_on_c, 0, 77, 0
2, 38999, Note_on_c, 0, 80, 0
2, 39000, Note_on_c, 0, 73, 0
2, 39034, Note_on_c, 0, 75, 0
2, 39036, Note_on_c, 0, 79, 44
2, 39038, Note_on_c, 0, 58, 0
2, 39077, Note_on_c, 0, 79, 0
2, 39078, Note_on_c, 0, 82, 48
2, 39081, Note_on_c, 0, 51, 55
2, 39081, Note_on_c, 0, 55, 55
2, 39081, Note_on_c, 0, 61, 53
2, 39082, Note_on_c, 0, 46, 0
2, 39113, Note_on_c, 0, 61, 0
2, 39114, Note_on_c, 0, 55, 0
2, 39114, Note_on_c, 0, 51, 0
2, 39120, Note_on_c, 0, 87, 48
2, 39121, Note_on_c, 0, 75, 44
2, 39127, Note_on_c, 0, 82, 0
2, 39160, Note_on_c, 0, 51, 55
2, 39162, Note_on_c, 0, 39, 53
2, 39201, Note_on_c, 0, 75, 0
2, 39203, Note_on_c, 0, 79, 47
2, 39205, Note_on_c, 0, 51, 0
2, 39209, Note_on_c, 0, 87, 0
2, 39244, Note_on_c, 0, 55, 58
2, 39248, Note_on_c, 0, 85, 47
2, 39251, Note_on_c, 0, 73, 42
2, 39252, Note_on_c, 0, 61, 53
2, 39253, Note_on_c, 0, 51, 57
2, 39254, Note_on_c, 0, 39, 0
2, 39258, Note_on_c, 0, 79, 0
2, 39278, Note_on_c, 0, 61, 0
2, 39279, Note_on_c, 0, 51, 0
2, 39288, Note_on_c, 0, 55, 0
2, 39334, Note_on_c, 0, 56, 57
2, 39335, Note_on_c, 0, 44, 55
2, 39338, Note_on_c, 0, 85, 0
2, 39339, Note_on_c, 0, 84, 42
2, 39341, Note_on_c, 0, 72, 45
2, 39349, Note_on_c, 0, 73, 0
2, 39421, Note_on_c, 0, 56, 0
2, 39422, Note_on_c, 0, 46, 57
2, 39422, Note_on_c, 0, 58, 59
2, 39427, Note_on_c, 0, 84, 0
2, 39428, Note_on_c, 0, 72, 0
2, 39428, Note_on_c, 0, 82, 46
2, 39430, Note_on_c, 0, 70, 47
2, 39432, Note_on_c, 0, 44, 0
2, 39518, Note_on_c, 0, 80, 43
2, 39521, Note_on_c, 0, 68, 44
2, 39522, Note_on_c, 0, 48, 56
2, 39522, Note_on_c, 0, 60, 59
2, 39528, Note_on_c, 0, 82, 0
2, 39529, Note_on_c, 0, 70, 0
2, 39530, Note_on_c, 0, 46, 0
2, 39530, Note_on_c, 0, 58, 0
2, 39614, Note_on_c, 0, 63, 53
2, 39615, Note_on_c, 0, 51, 53
2, 39620, Note_on_c, 0, 80, 0
2, 39621, Note_on_c, 0, 68, 0
2, 39623, Note_on_c, 0, 60, 0
2, 39624, Note_on_c, 0, 48, 0
2, 39705, Note_on_c, 0, 44, 53
2, 39705, Note_on_c, 0, 56, 54
2, 39705, Note_on_c, 0, 68, 46
2, 39706, Note_on_c, 0, 51, 0
2, 39706, Note_on_c, 0, 63, 0
2, 39793, Note_on_c, 0, 68, 0
2, 39794, Note_on_c, 0, 69, 44
2, 39795, Note_on_c, 0, 56, 0
2, 39796, Note_on_c, 0, 44, 0
2, 39796, Note_on_c, 0, 45, 53
2, 39796, Note_on_c, 0, 57, 58
2, 39834, Note_on_c, 0, 46, 59
2, 39840, Note_on_c, 0, 69, 0
2, 39842, Note_on_c, 0, 57, 0
2, 39842, Note_on_c, 0, 70, 41
2, 39842, Note_on_c, 0, 58, 57
2, 39852, Note_on_c, 0, 45, 0
2, 39926, Note_on_c, 0, 59, 53
2, 39928, Note_on_c, 0, 47, 54
2, 39934, Note_on_c, 0, 71, 48
2, 39937, Note_on_c, 0, 46, 0
2, 39944, Note_on_c, 0, 70, 0
2, 39946, Note_on_c, 0, 58, 0
2, 39982, Note_on_c, 0, 71, 0
2, 39984, Note_on_c, 0, 59, 0
2, 39984, Note_on_c, 0, 72, 43
2, 39986, Note_on_c, 0, 47, 0
2, 39986, Note_on_c, 0, 60, 58
2, 39986, Note_on_c, 0, 48, 55
2, 40075, Note_on_c, 0, 85, 45
2, 40077, Note_on_c, 0, 73, 42
2, 40079, Note_on_c, 0, 61, 56
2, 40080, Note_on_c, 0, 49, 60
2, 40085, Note_on_c, 0, 72, 0
2, 40087, Note_on_c, 0, 60, 0
2, 40088, Note_on_c, 0, 48, 0
2, 40125, Note_on_c, 0, 61, 0
2, 40168, Note_on_c, 0, 94, 48
2, 40171, Note_on_c, 0, 82, 46
2, 40173, Note_on_c, 0, 65, 44
2, 40174, Note_on_c, 0, 49, 0
2, 40174, Note_on_c, 0, 61, 60
2, 40175, Note_on_c, 0, 56, 54
2, 40178, Note_on_c, 0, 85, 0
2, 40180, Note_on_c, 0, 73, 0
2, 40209, Note_on_c, 0, 65, 0
2, 40210, Note_on_c, 0, 61, 0
2, 40211, Note_on_c, 0, 56, 0
2, 40215, Note_on_c, 0, 92, 45
2, 40219, Note_on_c, 0, 77, 45
2, 40219, Note_on_c, 0, 80, 45
2, 40220, Note_on_c, 0, 73, 48
2, 40226, Note_on_c, 0, 94, 0
2, 40227, Note_on_c, 0, 82, 0
2, 40270, Note_on_c, 0, 44, 56
2, 40270, Note_on_c, 0, 56, 54
2, 40305, Note_on_c, 0, 56, 0
2, 40311, Note_on_c, 0, 94, 43
2, 40314, Note_on_c, 0, 73, 0
2, 40314, Note_on_c, 0, 82, 47
2, 40321, Note_on_c, 0, 92, 0
2, 40322, Note_on_c, 0, 80, 0
2, 40323, Note_on_c, 0, 77, 0
2, 40358, Note_on_c, 0, 92, 41
2, 40360, Note_on_c, 0, 77, 42
2, 40360, Note_on_c, 0, 80, 44
2, 40362, Note_on_c, 0, 73, 47
2, 40363, Note_on_c, 0, 65, 41
2, 40364, Note_on_c, 0, 56, 57
2, 40364, Note_on_c, 0, 61, 60
2, 40366, Note_on_c, 0, 94, 0
2, 40369, Note_on_c, 0, 82, 0
2, 40373, Note_on_c, 0, 44, 0
2, 40397, Note_on_c, 0, 65, 0
2, 40398, Note_on_c, 0, 61, 0
2, 40399, Note_on_c, 0, 56, 0
2, 40450, Note_on_c, 0, 84, 41
2, 40452, Note_on_c, 0, 72, 42
2, 40454, Note_on_c, 0, 51, 60
2, 40456, Note_on_c, 0, 39, 56
2, 40457, Note_on_c, 0, 92, 0
2, 40459, Note_on_c, 0, 80, 0
2, 40459, Note_on_c, 0, 77, 0
2, 40460, Note_on_c, 0, 73, 0
2, 40541, Note_on_c, 0, 94, 46
2, 40544, Note_on_c, 0, 82, 48
2, 40546, Note_on_c, 0, 66, 48
2, 40548, Note_on_c, 0, 56, 59
2, 40548, Note_on_c, 0, 60, 57
2, 40553, Note_on_c, 0, 84, 0
2, 40554, Note_on_c, 0, 72, 0
2, 40557, Note_on_c, 0, 51, 0
2, 40559, Note_on_c, 0, 39, 0
2, 40583, Note_on_c, 0, 66, 0
2, 40585, Note_on_c, 0, 60, 0
2, 40585, Note_on_c, 0, 56, 0
2, 40588, Note_on_c, 0, 92, 44
2, 40592, Note_on_c, 0, 78, 44
2, 40592, Note_on_c, 0, 80, 44
2, 40593, Note_on_c, 0, 72, 47
2, 40598, Note_on_c, 0, 94, 0
2, 40602, Note_on_c, 0, 82, 0
2, 40626, Note_on_c, 0, 44, 53
2, 40645, Note_on_c, 0, 56, 53
2, 40677, Note_on_c, 0, 72, 0
2, 40683, Note_on_c, 0, 92, 0
2, 40683, Note_on_c, 0, 94, 41
2, 40685, Note_on_c, 0, 78, 0
2, 40685, Note_on_c, 0, 80, 0
2, 40686, Note_on_c, 0, 82, 45
2, 40689, Note_on_c, 0, 56, 0
2, 40730, Note_on_c, 0, 92, 44
2, 40731, Note_on_c, 0, 80, 41
2, 40732, Note_on_c, 0, 78, 44
2, 40733, Note_on_c, 0, 72, 46
2, 40734, Note_on_c, 0, 68, 46
2, 40735, Note_on_c, 0, 66, 41
2, 40736, Note_on_c, 0, 44, 0
2, 40736, Note_on_c, 0, 60, 58
2, 40738, Note_on_c, 0, 94, 0
2, 40741, Note_on_c, 0, 82, 0
2, 40762, Note_on_c, 0, 66, 0
2, 40763, Note_on_c, 0, 60, 0
2, 40771, Note_on_c, 0, 68, 0
2, 40826, Note_on_c, 0, 85, 44
2, 40828, Note_on_c, 0, 73, 41
2, 40832, Note_on_c, 0, 37, 54
2, 40832, Note_on_c, 0, 49, 54
2, 40834, Note_on_c, 0, 92, 0
2, 40837, Note_on_c, 0, 80, 0
2, 40837, Note_on_c, 0, 78, 0
2, 40838, Note_on_c, 0, 72, 0
2, 40922, Note_on_c, 0, 94, 41
2, 40925, Note_on_c, 0, 73, 0
2, 40925, Note_on_c, 0, 82, 46
2, 40928, Note_on_c, 0, 61, 58
2, 40928, Note_on_c, 0, 65, 43
2, 40929, Note_on_c, 0, 49, 0
2, 40930, Note_on_c, 0, 56, 60
2, 40933, Note_on_c, 0, 85, 0
2, 40940, Note_on_c, 0, 37, 0
2, 40965, Note_on_c, 0, 65, 0
2, 40966, Note_on_c, 0, 56, 0
2, 40966, Note_on_c, 0, 61, 0
2, 40971, Note_on_c, 0, 92, 42
2, 40972, Note_on_c, 0, 80, 43
2, 40973, Note_on_c, 0, 77, 46
2, 40975, Note_on_c, 0, 73, 44
2, 40980, Note_on_c, 0, 94, 0
2, 40983, Note_on_c, 0, 82, 0
2, 41024, Note_on_c, 0, 44, 53
2, 41024, Note_on_c, 0, 56, 60
2, 41059, Note_on_c, 0, 56, 0
2, 41063, Note_on_c, 0, 94, 43
2, 41066, Note_on_c, 0, 73, 0
2, 41066, Note_on_c, 0, 82, 41
2, 41074, Note_on_c, 0, 80, 0
2, 41074, Note_on_c, 0, 77, 0
2, 41082, Note_on_c, 0, 92, 0
2, 41108, Note_on_c, 0, 92, 46
2, 41110, Note_on_c, 0, 77, 42
2, 41110, Note_on_c, 0, 80, 44
2, 41112, Note_on_c, 0, 73, 48
2, 41113, Note_on_c, 0, 65, 42
2, 41114, Note_on_c, 0, 44, 0
2, 41114, Note_on_c, 0, 56, 59
2, 41114, Note_on_c, 0, 61, 55
2, 41116, Note_on_c, 0, 94, 0
2, 41119, Note_on_c, 0, 82, 0
2, 41146, Note_on_c, 0, 65, 0
2, 41147, Note_on_c, 0, 61, 0
2, 41148, Note_on_c, 0, 56, 0
2, 41204, Note_on_c, 0, 68, 44
2, 41205, Note_on_c, 0, 56, 55
2, 41206, Note_on_c, 0, 44, 57
2, 41208, Note_on_c, 0, 92, 0
2, 41210, Note_on_c, 0, 77, 0
2, 41210, Note_on_c, 0, 80, 0
2, 41211, Note_on_c, 0, 73, 0
2, 41290, Note_on_c, 0, 45, 60
2, 41295, Note_on_c, 0, 68, 0
2, 41297, Note_on_c, 0, 69, 46
2, 41298, Note_on_c, 0, 56, 0
2, 41299, Note_on_c, 0, 57, 58
2, 41300, Note_on_c, 0, 44, 0
2, 41343, Note_on_c, 0, 70, 48
2, 41345, Note_on_c, 0, 58, 60
2, 41346, Note_on_c, 0, 46, 53
2, 41351, Note_on_c, 0, 69, 0
2, 41354, Note_on_c, 0, 57, 0
2, 41354, Note_on_c, 0, 45, 0
2, 41434, Note_on_c, 0, 71, 48
2, 41435, Note_on_c, 0, 59, 57
2, 41436, Note_on_c, 0, 47, 60
2, 41442, Note_on_c, 0, 70, 0
2, 41444, Note_on_c, 0, 58, 0
2, 41445, Note_on_c, 0, 46, 0
2, 41478, Note_on_c, 0, 72, 47
2, 41480, Note_on_c, 0, 60, 55
2, 41481, Note_on_c, 0, 48, 55
2, 41487, Note_on_c, 0, 71, 0
2, 41489, Note_on_c, 0, 59, 0
2, 41490, Note_on_c, 0, 47, 0
2, 41570, Note_on_c, 0, 85, 43
2, 41571, Note_on_c, 0, 73, 43
2, 41572, Note_on_c, 0, 61, 54
2, 41573, Note_on_c, 0, 49, 56
2, 41580, Note_on_c, 0, 72, 0
2, 41581, Note_on_c, 0, 60, 0
2, 41583, Note_on_c, 0, 48, 0
2, 41618, Note_on_c, 0, 61, 0
2, 41662, Note_on_c, 0, 94, 42
2, 41664, Note_on_c, 0, 82, 48
2, 41666, Note_on_c, 0, 49, 0
2, 41666, Note_on_c, 0, 65, 42
2, 41666, Note_on_c, 0, 61, 53
2, 41667, Note_on_c, 0, 56, 59
2, 41672, Note_on_c, 0, 85, 0
2, 41673, Note_on_c, 0, 73, 0
2, 41701, Note_on_c, 0, 65, 0
2, 41701, Note_on_c, 0, 61, 0
2, 41702, Note_on_c, 0, 56, 0
2, 41707, Note_on_c, 0, 92, 43
2, 41710, Note_on_c, 0, 77, 45
2, 41710, Note_on_c, 0, 80, 44
2, 41711, Note_on_c, 0, 73, 41
2, 41716, Note_on_c, 0, 94, 0
2, 41718, Note_on_c, 0, 82, 0
2, 41758, Note_on_c, 0, 44, 59
2, 41758, Note_on_c, 0, 56, 58
2, 41795, Note_on_c, 0, 94, 45
2, 41797, Note_on_c, 0, 80, 0
2, 41797, Note_on_c, 0, 77, 0
2, 41798, Note_on_c, 0, 73, 0
2, 41798, Note_on_c, 0, 82, 43
2, 41799, Note_on_c, 0, 56, 0
2, 41801, Note_on_c, 0, 44, 0
2, 41805, Note_on_c, 0, 92, 0
2, 41841, Note_on_c, 0, 92, 43
2, 41842, Note_on_c, 0, 77, 47
2, 41842, Note_on_c, 0, 80, 44
2, 41844, Note_on_c, 0, 68, 42
2, 41844, Note_on_c, 0, 73, 45
2, 41845, Note_on_c, 0, 61, 53
2, 41845, Note_on_c, 0, 65, 41
2, 41850, Note_on_c, 0, 94, 0
2, 41852, Note_on_c, 0, 82, 0
2, 41878, Note_on_c, 0, 68, 0
2, 41879, Note_on_c, 0, 61, 0
2, 41879, Note_on_c, 0, 65, 0
2, 41925, Note_on_c, 0, 39, 53
2, 41930, Note_on_c, 0, 92, 0
2, 41931, Note_on_c, 0, 77, 0
2, 41932, Note_on_c, 0, 73, 0
2, 41932, Note_on_c, 0, 72, 43
2, 41932, Note_on_c, 0, 84, 47
2, 41934, Note_on_c, 0, 51, 54
2, 41941, Note_on_c, 0, 80, 0
2, 42012, Note_on_c, 0, 84, 0
2, 42012, Note_on_c, 0, 72, 0
2, 42014, Note_on_c, 0, 51, 0
2, 42015, Note_on_c, 0, 39, 0
2, 42015, Note_on_c, 0, 56, 57
2, 42015, Note_on_c, 0, 60, 53
2, 42015, Note_on_c, 0, 66, 46
2, 42021, Note_on_c, 0, 94, 46
2, 42024, Note_on_c, 0, 82, 45
2, 42050, Note_on_c, 0, 56, 0
2, 42057, Note_on_c, 0, 66, 0
2, 42058, Note_on_c, 0, 60, 0
2, 42065, Note_on_c, 0, 92, 45
2, 42066, Note_on_c, 0, 80, 43
2, 42067, Note_on_c, 0, 78, 46
2, 42068, Note_on_c, 0, 72, 47
2, 42073, Note_on_c, 0, 94, 0
2, 42074, Note_on_c, 0, 82, 0
2, 42112, Note_on_c, 0, 44, 54
2, 42112, Note_on_c, 0, 56, 59
2, 42152, Note_on_c, 0, 94, 47
2, 42154, Note_on_c, 0, 56, 0
2, 42155, Note_on_c, 0, 82, 44
2, 42163, Note_on_c, 0, 80, 0
2, 42163, Note_on_c, 0, 72, 0
2, 42164, Note_on_c, 0, 78, 0
2, 42200, Note_on_c, 0, 80, 46
2, 42201, Note_on_c, 0, 66, 46
2, 42201, Note_on_c, 0, 72, 48
2, 42201, Note_on_c, 0, 78, 44
2, 42202, Note_on_c, 0, 60, 55
2, 42207, Note_on_c, 0, 94, 0
2, 42209, Note_on_c, 0, 82, 0
2, 42210, Note_on_c, 0, 44, 0
2, 42237, Note_on_c, 0, 60, 0
2, 42237, Note_on_c, 0, 66, 0
2, 42293, Note_on_c, 0, 85, 42
2, 42294, Note_on_c, 0, 49, 58
2, 42294, Note_on_c, 0, 61, 60
2, 42294, Note_on_c, 0, 65, 43
2, 42294, Note_on_c, 0, 73, 48
2, 42302, Note_on_c, 0, 80, 0
2, 42302, Note_on_c, 0, 92, 0
2, 42303, Note_on_c, 0, 72, 0
2, 42303, Note_on_c, 0, 78, 0
2, 42394, Note_on_c, 0, 85, 0
2, 42395, Note_on_c, 0, 65, 0
2, 42395, Note_on_c, 0, 73, 0
2, 42395, Note_on_c, 0, 61, 0
2, 42395, Note_on_c, 0, 49, 0
2, 42470, Note_on_c, 0, 37, 54
2, 42470, Note_on_c, 0, 49, 55
2, 42478, Note_on_c, 0, 97, 42
2, 42479, Note_on_c, 0, 77, 48
2, 42480, Note_on_c, 0, 85, 41
2, 42481, Note_on_c, 0, 73, 44
2, 42561, Note_on_c, 0, 37, 0
2, 42570, Note_on_c, 0, 49, 0
2, 42570, Note_on_c, 0, 73, 0
2, 42577, Note_on_c, 0, 97, 0
2, 42578, Note_on_c, 0, 85, 0
2, 42578, Note_on_c, 0, 77, 0
2, 42932, Note_on_c, 0, 86, 42
2, 42932, Note_on_c, 0, 86, 0
2, 42932, End_track
3, 0, Start_track
3, 1, Copyright_t, "___________________________________________________\012\012KUNSTDERFUGE.COM LARGE CLASSICAL MIDI COLLECTION\012ONCLASSICAL BY ALESSANDRO SIMONETTO, PROPRIETOR\012___________________________________________________\012\012! Attention: this file is under copyright !\012\012(c)onclassical, (nc)smythe, 2010\012___________________________________________________\012\012NO ONE MAY REPUBLISH THIS FILE WITHOUT PERMISSION\012COMMERCIAL USES OF THIS FILE IS STRICTLY PROHIBITED\012___________________________________________________\012\012Files & contributor's list: http://kunstderfuge.com/\012Terms and conditions: http://kunstderfuge.com/notes.htm"
3, 1, End_track
0, 0, End_of_file